<svg width="60" height="60" viewBox="0 0 60 60" fill="none" xmlns="http://www.w3.org/2000/svg">
<path d="M30.1839 1.95424C31.7822 2.01098 33.1724 2.71086 34.2122 3.98158C35.0863 5.04985 35.5206 5.37696 36.4114 5.63978C37.147 5.85669 37.7356 5.84196 38.7259 5.54994L39.1761 5.40834C40.5601 4.94695 41.392 4.86274 42.385 5.0851C44.6972 5.60322 46.2642 7.3327 46.6292 9.77162C46.9188 11.7077 48.0746 12.9524 49.8587 13.2472C51.9537 13.5936 53.0404 14.233 54.013 15.6935C54.6611 16.6669 54.8892 17.4489 54.8841 18.6749C54.8802 19.5623 54.8482 19.7358 54.4944 20.7833L54.345 21.2531C54.0393 22.2887 54.0313 22.9288 54.2835 23.6652C54.5873 24.5523 54.9301 24.9815 56.1009 25.9386C56.7248 26.4488 57.409 27.4858 57.6897 28.3468C58.0065 29.3185 58.0065 30.6798 57.6897 31.6515C57.409 32.5125 56.7247 33.5495 56.1009 34.0597C54.9302 35.0167 54.5873 35.4461 54.2835 36.3331L54.1907 36.6466C54.0127 37.3716 54.1022 38.0722 54.4895 39.1788C54.8414 40.1839 54.8691 40.3385 54.8782 41.2765C54.8906 42.5515 54.6737 43.3124 54.013 44.3048L53.7923 44.6163C53.2702 45.3131 52.6811 45.8024 51.9436 46.1564C51.2725 46.4785 50.9475 46.5711 49.8587 46.7511L49.5511 46.8146C48.0394 47.1841 46.9385 48.3713 46.6809 49.9425C46.3361 52.0467 45.6992 53.1376 44.2454 54.1144L43.889 54.339C43.0739 54.819 42.3439 54.9949 41.2757 54.9904L40.722 54.9777C40.252 54.9504 39.9592 54.8652 39.177 54.5988C37.9005 54.1639 37.2598 54.1084 36.4114 54.3585C35.5192 54.6218 35.0871 54.9483 34.2073 56.0236L33.9456 56.3195C33.3073 56.992 32.4728 57.5359 31.6468 57.8077L31.4602 57.8634C30.5739 58.107 29.4276 58.107 28.5413 57.8634L28.3558 57.8077C27.5295 57.536 26.6944 56.9922 26.0559 56.3195L25.7952 56.0236C24.9152 54.948 24.4822 54.6218 23.5901 54.3585C22.7418 54.1084 22.1009 54.164 20.8245 54.5988C19.7816 54.954 19.609 54.9865 18.7259 54.9904L18.2874 54.9806C17.4472 54.9383 16.8113 54.7505 16.1126 54.339L15.7571 54.1144C14.8949 53.5351 14.3162 52.8837 13.9134 52.0372C13.5925 51.3631 13.4999 51.0366 13.3206 49.9425C13.0631 48.3715 11.9626 47.1844 10.4514 46.8146L10.1438 46.7511C8.17948 46.4264 7.10153 45.8443 6.17312 44.5695L5.98953 44.3048C5.42206 43.4527 5.17629 42.7476 5.12722 41.7628L5.11746 41.3234C5.12131 40.436 5.1533 40.2627 5.50711 39.215C5.88594 38.0932 5.97579 37.4605 5.82547 36.7491L5.74637 36.4376C5.48422 35.5414 5.1593 35.1067 4.08816 34.2228C3.28406 33.5591 2.62096 32.5998 2.31179 31.6515C2.0148 30.7405 1.99628 29.4871 2.25613 28.5333L2.31179 28.3468C2.62102 27.3985 3.28405 26.4382 4.08816 25.7745C5.15902 24.8908 5.48424 24.4568 5.74637 23.5607C5.96435 22.815 5.94903 22.2294 5.65164 21.2355L5.50711 20.7833C5.15327 19.7356 5.12131 19.5624 5.11746 18.6749C5.11294 17.602 5.2879 16.8695 5.7659 16.0509L5.98953 15.6935C6.49425 14.9358 7.05441 14.3961 7.75125 14.0021L8.05789 13.8419C8.56108 13.6004 8.87028 13.4873 9.45242 13.3702L10.1438 13.2472C11.708 12.9884 12.8902 11.8824 13.2581 10.3644L13.3206 10.0558C13.6439 8.0831 14.2241 7.00088 15.4934 6.06849L15.7571 5.88392C16.7265 5.2329 17.5049 5.00272 18.7259 5.00795C19.6091 5.01182 19.7816 5.04431 20.8245 5.39955C21.9416 5.78008 22.5721 5.87001 23.2806 5.71888L23.5901 5.63978C24.3631 5.4117 24.8508 5.08751 25.5081 4.3224L25.802 3.96596C26.4949 3.09593 27.4727 2.44743 28.5852 2.11537L28.8089 2.05287C29.125 1.97196 29.6382 1.93495 30.1839 1.95424ZM30.7415 3.67006C30.1768 3.56249 29.7539 3.56416 29.1878 3.67592C28.2985 3.85147 27.8896 4.16138 26.2942 5.86635L26.1126 6.04994C25.1847 6.94005 23.9493 7.39873 22.4847 7.39467L21.927 7.38295C21.6145 7.36531 21.3838 7.32171 21.0286 7.21205L20.3763 6.99232C19.3036 6.61854 19.1825 6.59622 18.4964 6.63881C17.5901 6.69523 16.7569 7.06137 16.138 7.67396L15.9163 7.90541C15.4395 8.43863 15.2246 8.94613 15.01 9.95717C14.6354 11.7234 14.2858 12.4637 13.4134 13.34C12.5389 14.218 11.8047 14.5672 10.0325 14.9464L9.6282 15.0392C8.75263 15.258 8.33612 15.5017 7.78347 16.0646L7.56472 16.3087C7.08258 16.8979 6.80335 17.6211 6.74734 18.4337L6.73269 18.674C6.70851 19.183 6.76381 19.3769 7.09402 20.3322C7.46378 21.4019 7.49184 21.5518 7.49441 22.4503C7.4988 24.0211 6.98469 25.3117 5.97293 26.2706L5.3782 26.84C4.1454 28.041 3.93564 28.419 3.76394 29.3458C3.68807 29.7555 3.6869 30.081 3.75906 30.5499C3.9335 31.6817 4.15938 32.0081 5.92312 33.673C6.97863 34.6694 7.49969 35.9553 7.49246 37.548L7.47976 38.1066C7.45205 38.581 7.36512 38.8803 7.09012 39.6984L6.87039 40.3712C6.709 40.9045 6.7083 41.0935 6.74734 41.6017C6.81632 42.5002 7.18057 43.3194 7.78347 43.9337C8.41499 44.5769 8.86853 44.8028 10.0325 45.0519C11.8048 45.4311 12.5389 45.7802 13.4134 46.6583C14.2858 47.5346 14.6354 48.2742 15.01 50.0402C15.2553 51.196 15.5014 51.694 16.138 52.3243C16.757 52.937 17.5901 53.3031 18.4964 53.3595C19.0094 53.3913 19.2092 53.3858 19.7278 53.2257L20.3763 53.0099C22.2091 52.3787 23.4494 52.4116 24.9593 53.1329C25.4393 53.3623 25.7862 53.653 26.7464 54.6271C27.5269 55.419 28.0866 55.9069 28.3684 56.0421C28.9309 56.3116 29.6645 56.4368 30.3245 56.3829L30.6018 56.3488C31.5536 56.1903 31.9334 55.9843 33.137 54.7345L33.7083 54.132C34.6541 53.1215 35.9555 52.5991 37.5179 52.6036L38.0745 52.6154C38.5435 52.6418 38.8277 52.7268 39.6263 53.005C40.5649 53.3321 40.774 53.3904 41.2718 53.3712L41.5052 53.3595C42.3548 53.3066 43.1405 52.9818 43.7454 52.4366L43.8645 52.3243C44.5009 51.6942 44.7463 51.1958 44.9915 50.0402C45.3193 48.4949 45.628 47.7353 46.2845 46.9825L46.5882 46.6583C47.4626 45.7803 48.1966 45.4311 49.969 45.0519C50.9876 44.8339 51.4627 44.634 51.9886 44.1564L52.219 43.9337C52.8397 43.301 53.2037 42.4682 53.26 41.5529C53.2919 41.036 53.2875 40.8389 53.1263 40.3185L52.9085 39.6661C52.6314 38.8639 52.5461 38.5788 52.5198 38.1075L52.5081 37.548C52.504 36.075 52.9555 34.849 53.846 33.9113L54.0296 33.7277C55.8178 32.0332 56.0564 31.6949 56.2366 30.6027C56.2903 30.2768 56.3045 30.0049 56.2776 29.7062L56.2366 29.3956C56.0789 28.4399 55.8763 28.0616 54.6302 26.8468L54.0296 26.2706C53.0807 25.3715 52.5695 24.1812 52.513 22.7413L52.5081 22.4503C52.51 21.7768 52.5259 21.5235 52.6897 20.9884L52.9085 20.3322C53.2341 19.3897 53.2918 19.1795 53.2727 18.6798L53.26 18.4454C53.2072 17.5871 52.8842 16.8009 52.3323 16.1847L52.219 16.0646C51.6664 15.5017 51.2494 15.258 50.3743 15.0392L49.969 14.9464C48.1965 14.5671 47.4627 14.2181 46.5882 13.34C45.7156 12.4636 45.3662 11.7235 44.9915 9.95717C44.777 8.94602 44.5621 8.43867 44.0852 7.90541L43.8645 7.67396C43.2455 7.06111 42.4117 6.69525 41.5052 6.63881C40.8188 6.59619 40.6983 6.61874 39.6263 6.99232L38.9729 7.21205C38.4402 7.37654 38.1881 7.39272 37.5179 7.39467L37.2278 7.38978C35.8896 7.33629 34.7561 6.88061 33.8899 6.04994L33.7083 5.86635C32.0751 4.12092 31.7165 3.85584 30.7415 3.67006ZM30.0003 8.99916C41.5982 8.99916 51.0002 18.4012 51.0003 29.9991C51.0003 41.5971 41.5983 50.9991 30.0003 50.9991C18.4024 50.999 9.00027 41.597 9.00027 29.9991C9.00035 18.4013 18.4025 8.99929 30.0003 8.99916ZM30.0003 10.9992C19.507 10.9993 11.0003 19.5059 11.0003 29.9991C11.0003 40.4925 19.507 48.999 30.0003 48.9991C40.4937 48.9991 49.0003 40.4926 49.0003 29.9991C49.0002 19.5058 40.4936 10.9992 30.0003 10.9992ZM28.8548 14.3302C30.1018 13.8001 31.6029 14.5115 32.2913 15.9591C32.6834 16.7838 32.7822 17.2914 32.7268 18.1984L32.7083 18.4513C32.6569 19.0035 32.5358 19.3522 31.9817 20.7296L31.4886 21.9786C31.3628 22.3068 31.285 22.523 31.2845 22.548C31.2845 22.6002 33.4509 22.6347 36.8069 22.6359C41.9522 22.6377 42.3549 22.6495 42.6966 22.8058C43.2131 23.0424 43.6024 23.3956 43.9026 23.9015C44.1429 24.3063 44.1629 24.4192 44.1936 25.5001C44.2308 26.8089 44.1326 27.1753 43.5686 27.8204L43.5462 27.8458C43.3765 28.0399 43.3353 28.3157 43.4407 28.5509C43.5801 28.8626 43.6136 29.1581 43.6136 30.089L43.6077 30.7462C43.5924 31.2536 43.5375 31.3809 43.3421 31.7355L43.2122 31.9464C43.0687 32.1611 42.8918 32.3751 42.7669 32.4786C42.5876 32.627 42.5266 32.8767 42.6175 33.0909C42.8511 33.6428 42.827 35.4256 42.5784 35.9835L42.5003 36.1407C42.3018 36.5091 41.9894 36.8721 41.6741 37.0929L41.6106 37.1398C41.4836 37.2401 41.4968 37.3086 41.6116 37.7355C41.7885 38.3943 41.7329 39.9302 41.514 40.4484L41.427 40.6281C41.1993 41.0418 40.8071 41.4122 40.3138 41.6759L40.0725 41.8048L39.9622 41.8556C39.8499 41.8991 39.7298 41.922 39.6087 41.923L36.0511 41.9503L34.1116 41.9562C30.0282 41.9421 28.8126 41.6999 25.555 40.5958C24.348 40.1868 23.3082 39.8515 23.2405 39.8497C23.1777 39.8497 23.1264 39.9105 23.1263 39.9845L23.1204 40.0255C23.0611 40.2478 22.5797 40.7636 22.2649 40.9288L22.1673 40.9699C21.9132 41.0573 21.4343 41.0817 20.055 41.0909L19.2766 41.09C18.5266 41.0835 17.8978 41.0604 17.7337 41.0304C17.2208 40.9359 16.8417 40.6592 16.6155 40.214C16.4833 39.9536 16.4474 39.7637 16.4378 36.4699L16.4339 32.0236C16.4339 24.4685 16.4055 23.9467 16.8167 23.5656L17.0218 23.3907C17.4468 23.0161 17.7436 22.9792 20.1087 23.0167C21.9661 23.0462 22.0902 23.0596 22.4095 23.2589C22.571 23.3595 22.7777 23.3269 22.9007 23.1915L22.9475 23.1271L23.0599 22.9366C23.649 21.9336 25.7944 18.3784 26.9485 16.4845L27.678 15.2999C28.0129 14.7922 28.2727 14.5778 28.8548 14.3302ZM30.8118 16.6495C30.3959 15.9416 29.9281 15.6467 29.4964 15.8185C29.3958 15.8588 29.2423 15.9718 29.1546 16.0695C28.9656 16.2807 29.0265 16.1807 24.9808 22.9103C24.2064 24.1984 23.4933 25.3382 23.3938 25.4474C23.2407 25.6131 23.2181 25.7815 23.2181 26.755V37.3546L23.2298 37.5118C23.2873 37.8727 23.5402 38.1787 23.8938 38.2999L25.4407 38.8302C28.0651 39.7298 29.4064 40.0789 30.7806 40.2189C31.2519 40.2668 32.4175 40.2947 34.0013 40.298L35.7151 40.2931L39.302 40.2667C39.5178 40.265 39.7232 40.17 39.8636 40.006C40.061 39.7753 40.0843 39.6605 40.0843 38.9308C40.0843 38.1919 40.0621 38.0881 39.8518 37.837C39.7228 37.6832 39.5403 37.5848 39.3431 37.5607L39.2581 37.5558L37.3684 37.5314L35.4583 37.507C35.2423 37.5042 35.0373 37.4083 34.8968 37.2443C34.589 36.8848 34.6032 36.4562 34.9329 36.1388C35.0771 36.0002 35.2638 35.9148 35.4612 35.8956L35.5472 35.8907H37.761C39.1515 35.8907 40.1596 35.8626 40.5061 35.8146L40.6136 35.7931C40.951 35.6747 41.1354 35.331 41.1761 34.7384L41.1839 34.4689C41.1839 33.8136 41.0274 33.3834 40.7308 33.2238C40.6482 33.1802 40.0562 33.1491 39.1302 33.1359L38.097 33.129C36.8652 33.1288 35.7959 33.0971 35.4163 33.0529L35.2972 33.0333C34.6755 32.8598 34.4769 32.2251 34.8714 31.7941L34.9583 31.7101C35.1386 31.5579 35.3698 31.4719 35.6058 31.4718H38.1985C39.8858 31.4718 40.9631 31.445 41.3333 31.3937L41.4485 31.3702C41.8683 31.223 42.0091 30.8777 42.0091 29.9962C42.0091 29.2929 41.9932 29.2325 41.7415 28.9796C41.5914 28.8289 41.3937 28.7359 41.1839 28.715L41.094 28.7101H38.4847L37.4222 28.7081C35.3875 28.6962 35.0133 28.6313 34.8177 28.3361L34.7747 28.2638C34.6031 27.9416 34.6591 27.5555 34.9143 27.299C35.0672 27.1457 35.275 27.0584 35.4915 27.0568L38.635 27.0333L41.7766 27.0099C41.9923 27.0081 42.1978 26.913 42.3382 26.7491C42.5376 26.5163 42.5589 26.4061 42.5589 25.631C42.5589 24.9229 42.5283 24.734 42.3841 24.5548C42.301 24.4518 42.1863 24.3804 42.0599 24.3507L41.93 24.3351L35.9768 24.2911C29.9096 24.2463 29.7394 24.2398 29.5413 24.0607C29.1124 23.6724 29.0741 23.5488 29.8391 21.6671L30.2181 20.7462L30.9798 18.9044C31.0297 18.7835 31.055 18.6534 31.055 18.5226V17.8927C31.055 17.2532 31.0333 17.0612 30.8841 16.7784L30.8118 16.6495ZM18.9944 24.6593C18.4412 24.6595 17.9929 25.109 17.9944 25.6622L18.0149 32.047L18.0354 38.4532C18.0374 38.9984 18.4757 39.4414 19.0208 39.4493L19.8001 39.4601L20.554 39.4708C21.0745 39.478 21.508 39.0867 21.5628 38.5802L21.5686 38.4767L21.5882 35.1027L21.5677 26.3741V25.6593C21.5675 25.1073 21.1197 24.6596 20.5677 24.6593H18.9944ZM17.7679 24.0782L17.7698 24.0792L17.7747 24.0763C17.7723 24.077 17.7679 24.0782 17.7679 24.0782ZM30.3899 23.0118C30.3929 23.0112 30.3958 23.0105 30.3987 23.0099C30.3973 23.0072 30.3952 23.0048 30.3938 23.0021C30.3927 23.0053 30.3911 23.0087 30.3899 23.0118Z" fill="#141414"/>
</svg>
