<svg width="60" height="60" viewBox="0 0 60 60" fill="none" xmlns="http://www.w3.org/2000/svg">
<rect x="1" y="1" width="24" height="24" rx="12" stroke="#141414" stroke-width="2"/>
<path d="M12.7609 6.19995H14.0009V18.2H16.5409V19.8H9.46094V18.2H12.3209V7.97995L9.46094 9.05995V7.45995L12.7609 6.19995Z" fill="#141414"/>
<rect x="35" y="18" width="24" height="24" rx="12" stroke="#141414" stroke-width="2"/>
<path d="M42.6909 24.4C44.0509 23.46 45.5509 23.08 47.0509 23.08C49.8309 23.08 51.6909 24.4 51.6909 26.72C51.6909 29.04 49.7509 30.38 47.8509 31.5C45.9509 32.62 44.0909 33.54 44.0509 35.34L51.7909 35.32V36.92H42.2109V36.12C42.2109 32.8 44.6509 31.54 46.7709 30.3C48.4709 29.3 50.0109 28.46 50.0109 26.7C50.0109 25.36 48.8709 24.64 46.9109 24.64C45.5309 24.64 44.0909 25.1 42.6909 26.08V24.4Z" fill="#141414"/>
<rect x="1" y="34" width="24" height="24" rx="12" stroke="#141414" stroke-width="2"/>
<path d="M17.3006 42.66C17.3006 44.06 16.4806 45.26 15.3206 45.66C16.4806 46.02 17.8606 47.02 17.8606 49.1C17.8606 51.74 15.6006 53.04 12.8806 53.04C10.9406 53.04 9.48063 52.74 8.14062 52.14V50.48C9.52063 51.2 10.9406 51.48 12.7406 51.46C14.7406 51.46 16.2406 50.8 16.2406 49.02C16.2406 47.16 14.7606 46.58 12.9206 46.58H10.8406V44.98L12.7406 45C14.7206 45 15.6806 44.06 15.6806 42.8C15.6806 41.4 14.5406 40.52 12.4606 40.52C11.0206 40.52 9.70063 40.86 8.38063 41.56V39.92C9.60062 39.3 10.9806 38.96 12.6806 38.96C15.4606 38.96 17.3006 40.46 17.3006 42.66Z" fill="black"/>
<path d="M25 16L37 24" stroke="#141414" stroke-width="2"/>
<path d="M37 36L24.4428 41.0683" stroke="#141414" stroke-width="2"/>
</svg>
