<svg width="60" height="60" viewBox="0 0 60 60" fill="none" xmlns="http://www.w3.org/2000/svg">
<path d="M21.5722 40.1477L30.9336 38.9339C31.049 38.9189 31.1608 38.8844 31.2633 38.8296C32.4701 38.1839 34.0386 37.0959 35.5488 35.6141M21.5722 40.1477C27.7547 40.1477 32.7667 32.9512 32.7667 24.0739C32.7667 15.1965 27.7545 8 21.572 8M21.5722 40.1477H20M21.572 8H31.6494C31.8375 8 32.0221 8.05183 32.1783 8.15662C33.123 8.79027 34.363 9.84785 35.604 11.2972M21.572 8C15.3894 8 10.3776 15.1965 10.3776 24.0739C10.3776 28.5403 11.6463 32.5812 13.6945 35.4942M35.604 11.2972C37.9131 13.994 40.2254 18.0472 40.6441 23.2496C41.0722 28.5688 38.4156 32.801 35.5488 35.6141M35.604 11.2972H51.6996C51.792 11.2972 51.8826 11.3089 51.9707 11.3368C54.8646 12.2533 58.8696 16.5942 58.4726 24.486C58.0725 32.4416 54.1965 34.7665 52.4357 35.5365C52.3154 35.5891 52.1859 35.6141 52.0545 35.6141H35.5488M16.7202 45.3368V31.0804V31C16.7202 30.4477 17.1679 30 17.7202 30H27.9254M26.0192 33.1412C26.5235 32.5358 26.9855 31.8407 27.396 31.0804C27.5836 30.7331 27.7603 30.3722 27.9254 30M26.0192 33.1412C24.7536 34.6604 23.2221 35.6141 21.5722 35.6141H20M26.0192 33.1412H21C20.4477 33.1412 20 33.5889 20 34.1412V35.6141M2.5 45.0935C3.60563 45.3683 5.98274 46.1651 6.64612 47.1543C7.47534 48.3907 10.7922 47.9786 11.2069 47.1543M11.2069 47.1543C11.6215 46.33 13.6945 45.0935 14.9384 45.0935M11.2069 47.1543C11.5 46.5714 12.6224 45.7825 13.6945 45.3703M14.9384 45.0935C16.1822 45.0935 18.3669 46.2032 19.0845 47.1543C19.3398 47.4927 19.6548 47.7196 20 47.8609M14.9384 45.0935C14.5741 45.0935 14.1386 45.1996 13.6945 45.3703M13.6945 45.3703V35.4942M36.0836 47.1543C35.669 47.9786 32.3521 48.3907 31.5228 47.1543C30.8595 46.1651 28.9139 45.0935 27.7913 45.0935C26.9621 45.0935 26.577 45.1996 26.1329 45.3703C25.0608 45.7825 24.4744 46.33 23.6452 47.1543C23.1242 47.6722 21.3364 48.4081 20 47.8609M2.5 50.0393C3.60563 50.3141 5.98274 51.1109 6.64612 52.1001C7.47534 53.3365 10.7922 52.9244 11.2069 52.1001C11.4919 51.5334 12.5608 50.7718 13.6052 50.3512C13.635 50.3393 13.6648 50.3275 13.6945 50.3161C14.1386 50.1454 14.5741 50.0393 14.9384 50.0393C15.2946 50.0393 15.7676 50.0393 16.1822 50.2826C16.5968 50.526 18.5725 51.4214 19.0845 52.1001C20.3283 53.7487 22.9897 52.7517 23.6452 52.1001C24.4744 51.2758 25.0608 50.7283 26.1329 50.3161C26.577 50.1454 26.9621 50.0393 27.7913 50.0393C28.9139 50.0393 30.8595 51.1109 31.5228 52.1001C32.3521 53.3365 35.669 52.9244 36.0836 52.1001M13.6945 35.4942V29.0197V28C13.6945 27.4477 14.1422 27 14.6945 27H15M20 47.8609V40.1477M20 40.1477V35.6141M28.9398 27C29.2695 25.6426 29.4499 24.2276 29.4499 22.8374C29.4499 16.6916 25.9229 11.7094 21.5722 11.7094C17.2215 11.7094 14.5237 17.5159 14.5237 23.6617C14.5158 24.6078 14.6 26.6 15 27M28.9398 27C28.7718 27.6918 28.5651 28.3686 28.3238 29.0197C28.1999 29.3537 28.0669 29.681 27.9254 30M28.9398 27H15" stroke="#141414" stroke-width="2" stroke-linecap="round"/>
</svg>
