<svg width="59" height="57" viewBox="0 0 59 57" fill="none" xmlns="http://www.w3.org/2000/svg">
<path d="M5.00488 18H25.3281C25.4503 18.0001 25.5658 18.0554 25.6426 18.1504L34.9102 29.6416C34.9681 29.7135 34.9999 29.8032 35 29.8955V37.9951C34.9999 38.2187 34.8183 38.4003 34.5947 38.4004H5.00488C4.78124 38.4004 4.59967 38.2187 4.59961 37.9951V18.4053C4.59961 18.1816 4.78121 18 5.00488 18Z" stroke="#141414" stroke-width="2"/>
<path d="M27.9961 19.8L35.7961 12.1625M51.9961 1H47.7694C47.4019 1 47.049 1.144 46.7865 1.40111L43.7961 4.32917M51.9961 1V32M51.9961 1L44.4439 12.5M34.3961 27.8L36.8916 24M36.8916 24L35.7961 12.1625M36.8916 24L44.4439 12.5M35.7961 12.1625L44.4439 12.5M35.7961 12.1625L43.7961 4.32917M44.4439 12.5L43.7961 4.32917" stroke="#141414" stroke-width="2" stroke-linejoin="round"/>
<path d="M10 39V42M30 42V39" stroke="#141414" stroke-width="2"/>
<rect x="1" y="42.8008" width="40" height="13.2" rx="6.6" stroke="#141414" stroke-width="2"/>
<path d="M47.7988 43.4012C47.7988 42.8489 47.3511 42.4012 46.7988 42.4012C46.2465 42.4012 45.7988 42.8489 45.7988 43.4012H46.7988H47.7988ZM52.9931 38.2961L53.1831 37.3143L53.1831 37.3143L52.9931 38.2961ZM57.1988 43.4012H56.1988C56.1988 45.7208 54.3184 47.6012 51.9988 47.6012V48.6012V49.6012C55.423 49.6012 58.1988 46.8253 58.1988 43.4012H57.1988ZM51.9988 48.6012V47.6012C49.6792 47.6012 47.7988 45.7208 47.7988 43.4012H46.7988H45.7988C45.7988 46.8253 48.5747 49.6012 51.9988 49.6012V48.6012ZM52.9931 38.2961L52.803 39.2779C54.7379 39.6525 56.1988 41.3573 56.1988 43.4012H57.1988H58.1988C58.1988 40.3813 56.0408 37.8676 53.1831 37.3143L52.9931 38.2961ZM52.9931 38.2961L53.1831 37.3143C53.1103 37.3002 53.0519 37.264 53.0199 37.2301C53.0054 37.2147 53.0003 37.2042 52.9991 37.2013C52.9985 37.1998 52.9985 37.1996 52.9987 37.2004C52.9989 37.2012 52.9988 37.2017 52.9988 37.2012H51.9988H50.9988C50.9988 38.3429 51.9081 39.1046 52.803 39.2779L52.9931 38.2961Z" fill="#141414"/>
<circle cx="52.0031" cy="34.6008" r="1.8" stroke="#141414" stroke-width="2"/>
</svg>
