<svg width="57" height="52" viewBox="0 0 57 52" fill="none" xmlns="http://www.w3.org/2000/svg">
<path d="M26 22.3224L25.3105 22.4756C24.1718 22.7287 23.2205 23.5068 22.7468 24.5727L22.5856 24.9354C21.8753 26.5334 21.6146 28.295 21.8315 30.0302C21.9417 30.9114 21.8055 31.8059 21.438 32.6144L20.1426 35.4641C19.8417 36.1262 20.3257 36.8779 21.053 36.8779H28H34.947C35.6743 36.8779 36.1583 36.1262 35.8574 35.4641L34.562 32.6144C34.1945 31.8059 34.0583 30.9114 34.1685 30.0302C34.3854 28.295 34.1247 26.5334 33.4144 24.9354L33.2532 24.5727C32.7795 23.5068 31.8282 22.7287 30.6895 22.4756L29.5 22.2113M26 22.3224L26.5 22.2113C27.4879 21.9917 28.512 21.9917 29.5 22.2113M26 22.3224V21.5311C26 20.8244 26.3993 20.1783 27.0315 19.8622L27.1612 19.7974C27.6799 19.538 28.2978 19.5765 28.7803 19.8982C29.2299 20.1979 29.5 20.7025 29.5 21.2428V22.2113M28.5 50.8779C19.3204 50.8779 5.7418 50.8779 1.99096 50.8779C1.43868 50.8779 1 50.4302 1 49.8779V15.491C1 15.1148 1.2111 14.7705 1.54632 14.5998L28.0463 1.1089C28.3314 0.96378 28.6686 0.96378 28.9537 1.1089L55.4537 14.5998C55.7889 14.7705 56 15.1148 56 15.491V49.8779C56 50.4302 55.5613 50.8779 55.009 50.8779C51.2582 50.8779 37.6796 50.8779 28.5 50.8779ZM29.8369 39.8779H26.1631C26.0974 39.8779 26.0608 39.954 26.1019 40.0053C27.075 41.2217 28.925 41.2217 29.8981 40.0053C29.9392 39.954 29.9026 39.8779 29.8369 39.8779Z" stroke="#141414" stroke-width="2" stroke-linecap="round"/>
<path d="M16 22.8779L15.1374 25.4657C14.0765 28.6484 14.1132 32.0948 15.2415 35.2542L16 37.3779M40.7302 22.8779L41.5928 25.4657C42.6536 28.6484 42.617 32.0948 41.4886 35.2542L40.7302 37.3779" stroke="#141414" stroke-width="2" stroke-linecap="round"/>
<path d="M12 20.8779L10.4264 25.861C9.49806 28.8007 9.49806 31.9551 10.4264 34.8949L12 39.8779M44.7302 20.8779L46.3037 25.861C47.2321 28.8007 47.2321 31.9551 46.3037 34.8949L44.7302 39.8779" stroke="#141414" stroke-width="2" stroke-linecap="round"/>
</svg>
