<svg width="45" height="46" viewBox="0 0 45 46" fill="none" xmlns="http://www.w3.org/2000/svg">
<rect x="1.76562" y="18" width="19" height="3" rx="1.5" stroke="#141414" stroke-width="2"/>
<path d="M5.76562 21L1.02267 43.2919C0.890303 43.914 1.36473 44.5 2.00078 44.5H22.2656M22.2656 44.5L20.4465 35M22.2656 44.5H29.7656M17.7656 21L20.4465 35M20.4465 35L22.1101 26.3119C22.2004 25.8407 22.6125 25.5 23.0923 25.5H28.9542C29.4271 25.5 29.8354 25.8312 29.9328 26.294L31.7656 35M31.7656 35L29.7656 44.5M31.7656 35L32.6048 30.8039C32.6983 30.3365 33.1087 30 33.5854 30H39.4513C39.9255 30 40.3345 30.333 40.4306 30.7974L43.0168 43.2974C43.1452 43.918 42.6713 44.5 42.0375 44.5H29.7656" stroke="#141414" stroke-width="2" stroke-linecap="round" stroke-linejoin="round"/>
<path d="M8.01591 6.54821C9.01601 4.04821 11.0121 5.76084 12.016 4.54821C13.0199 3.33558 12.4408 3.15368 13.5158 2.54779C14.5907 1.9419 15.5158 3.04794 17.0158 2.54813C18.5158 2.04832 19.5158 0.0482765 21.0158 1.54805C22.5158 3.04783 21.0158 4.04813 21.5158 6.04813C22.0158 8.04813 22.0158 8.54813 21.5158 9.04813C21.0158 9.54813 19.9534 9.24444 19.0158 10.0481C18.0781 10.8518 18.3006 11.1588 17.5225 11.5479L17.513 11.5526C16.7426 11.9378 16.523 12.0476 15.0225 12.0479C13.5158 12.0481 12.7313 15.1559 10.5158 14.0481C8.30026 12.9404 9.6926 10.1295 9.50802 9.54821C9.32344 8.96694 7.01581 9.04821 8.01591 6.54821Z" stroke="#141414" stroke-width="2"/>
</svg>
