<svg width="47" height="53" viewBox="0 0 47 53" fill="none" xmlns="http://www.w3.org/2000/svg">
<path d="M15 7V19.6977C15 20.2257 14.8805 20.7469 14.6506 21.2222L9.67742 31.5M38 36.5L43.5389 46.2745C44.861 48.6077 43.1756 51.5 40.4938 51.5H5.58175C2.99974 51.5 1.30657 48.7998 2.4312 46.4755L9.67742 31.5M31 7V9.5M9.67742 31.5C12.2849 29.3333 18.8 26.3 24 31.5C29.2 36.7 28 35.5 27 34.5M30.5 37H33M30.5 30.5H32.5M30.5 20H34.5" stroke="#141414" stroke-width="2" stroke-linecap="round"/>
<rect x="25" y="10" width="15" height="4" rx="2" stroke="#141414" stroke-width="2"/>
<rect x="12" y="1" width="22" height="5" rx="2.5" stroke="#141414" stroke-width="2"/>
<path d="M27 14V46C27 49.0376 29.4624 51.5 32.5 51.5C35.5376 51.5 38 49.0376 38 46V14" stroke="#141414" stroke-width="2"/>
</svg>
