<svg width="60" height="60" viewBox="0 0 60 60" fill="none" xmlns="http://www.w3.org/2000/svg">
<path d="M4 2V1H3V2H4ZM30 2H31V1H30V2ZM30 49V50H31V49H30ZM4 49H3V50H4V49ZM7.5 5.5V4.5H6.5V5.5H7.5ZM26.5 5.5H27.5V4.5H26.5V5.5ZM26.5 18.5V19.5H27.5V18.5H26.5ZM7.5 18.5H6.5V19.5H7.5V18.5ZM33.5 16C32.9477 16 32.5 16.4477 32.5 17C32.5 17.5523 32.9477 18 33.5 18V17V16ZM43.5 18C44.0523 18 44.5 17.5523 44.5 17C44.5 16.4477 44.0523 16 43.5 16V17V18ZM33.5 10C32.9477 10 32.5 10.4477 32.5 11C32.5 11.5523 32.9477 12 33.5 12V11V10ZM43.5 12C44.0523 12 44.5 11.5523 44.5 11C44.5 10.4477 44.0523 10 43.5 10V11V12ZM39.5 2.5C39.5 1.94772 39.0523 1.5 38.5 1.5C37.9477 1.5 37.5 1.94772 37.5 2.5H38.5H39.5ZM46.5 16C45.9477 16 45.5 16.4477 45.5 17C45.5 17.5523 45.9477 18 46.5 18V17V16ZM56.5 18C57.0523 18 57.5 17.5523 57.5 17C57.5 16.4477 57.0523 16 56.5 16V17V18ZM46.5 10C45.9477 10 45.5 10.4477 45.5 11C45.5 11.5523 45.9477 12 46.5 12V11V10ZM56.5 12C57.0523 12 57.5 11.5523 57.5 11C57.5 10.4477 57.0523 10 56.5 10V11V12ZM52.5 2.5C52.5 1.94772 52.0523 1.5 51.5 1.5C50.9477 1.5 50.5 1.94772 50.5 2.5H51.5H52.5ZM21.3116 33.9149L21.9701 34.6675L21.3116 33.9149ZM12.3572 28.754L13.0438 28.027L12.3572 28.754ZM51.9287 56.4311L52.9281 56.3966L51.9287 56.4311ZM17.75 33.8472L18.4366 33.1202L17.75 33.8472ZM4 2V3H30V2V1H4V2ZM30 2H29V49H30H31V2H30ZM30 49V48H4V49V50H30V49ZM4 49H5V2H4H3V49H4ZM7.5 5.5V6.5H26.5V5.5V4.5H7.5V5.5ZM26.5 5.5H25.5V18.5H26.5H27.5V5.5H26.5ZM26.5 18.5V17.5H7.5V18.5V19.5H26.5V18.5ZM7.5 18.5H8.5V5.5H7.5H6.5V18.5H7.5ZM25 29.5H24C24 33.366 20.866 36.5 17 36.5V37.5V38.5C21.9706 38.5 26 34.4706 26 29.5H25ZM17 37.5V36.5C13.134 36.5 10 33.366 10 29.5H9H8C8 34.4706 12.0294 38.5 17 38.5V37.5ZM9 29.5H10C10 25.634 13.134 22.5 17 22.5V21.5V20.5C12.0294 20.5 8 24.5294 8 29.5H9ZM17 21.5V22.5C20.866 22.5 24 25.634 24 29.5H25H26C26 24.5294 21.9706 20.5 17 20.5V21.5ZM12.3572 28.754L11.6705 29.481L17.0634 34.5742L17.75 33.8472L18.4366 33.1202L13.0438 28.027L12.3572 28.754ZM21.389 30.0001L22.0767 29.2741L16.6918 24.1726L16.004 24.8986L15.3163 25.6245L20.7012 30.726L21.389 30.0001ZM13 42.5H12C12 43.6046 11.1046 44.5 10 44.5V45.5V46.5C12.2091 46.5 14 44.7091 14 42.5H13ZM10 45.5V44.5C8.89543 44.5 8 43.6046 8 42.5H7H6C6 44.7091 7.79086 46.5 10 46.5V45.5ZM7 42.5H8C8 41.3954 8.89543 40.5 10 40.5V39.5V38.5C7.79086 38.5 6 40.2909 6 42.5H7ZM10 39.5V40.5C11.1046 40.5 12 41.3954 12 42.5H13H14C14 40.2909 12.2091 38.5 10 38.5V39.5ZM22 42.5H21C21 43.6046 20.1046 44.5 19 44.5V45.5V46.5C21.2091 46.5 23 44.7091 23 42.5H22ZM19 45.5V44.5C17.8954 44.5 17 43.6046 17 42.5H16H15C15 44.7091 16.7909 46.5 19 46.5V45.5ZM16 42.5H17C17 41.3954 17.8954 40.5 19 40.5V39.5V38.5C16.7909 38.5 15 40.2909 15 42.5H16ZM19 39.5V40.5C20.1046 40.5 21 41.3954 21 42.5H22H23C23 40.2909 21.2091 38.5 19 38.5V39.5ZM10 45.5H9V56.5H10H11V45.5H10ZM12 58.5V59.5H49.9298V58.5V57.5H12V58.5ZM51.9287 56.4311L52.9281 56.3966L52.4994 43.9655L51.5 44L50.5006 44.0345L50.9293 56.4655L51.9287 56.4311ZM19 45.5H18V52.5H19H20V45.5H19ZM21 54.5V55.5H36.5V54.5V53.5H21V54.5ZM38.5 52.5H39.5V44H38.5H37.5V52.5H38.5ZM38.5 44V45H39.5V44V43H38.5V44ZM38.5 44V43H37.5V44V45H38.5V44ZM35.5 42H36.5V11H35.5H34.5V42H35.5ZM41.5 11H40.5V42H41.5H42.5V11H41.5ZM33.5 17V18H43.5V17V16H33.5V17ZM35.5 11V10H33.5V11V12H35.5V11ZM43.5 11V10H41.5V11V12H43.5V11ZM33.5 11V12H38.5V11V10H33.5V11ZM38.5 11V12H41.5V11V10H38.5V11ZM35.5 11V12H38.5V11V10H35.5V11ZM38.5 2.5H37.5V11H38.5H39.5V2.5H38.5ZM51.5 44V45H52.5V44V43H51.5V44ZM51.5 44V43H50.5V44V45H51.5V44ZM48.5 42H49.5V17H48.5H47.5V42H48.5ZM48.5 17H49.5V11H48.5H47.5V17H48.5ZM54.5 11H53.5V17H54.5H55.5V11H54.5ZM54.5 17H53.5V42H54.5H55.5V17H54.5ZM46.5 17V18H48.5V17V16H46.5V17ZM48.5 17V18H54.5V17V16H48.5V17ZM54.5 17V18H56.5V17V16H54.5V17ZM48.5 11V10H46.5V11V12H48.5V11ZM56.5 11V10H54.5V11V12H56.5V11ZM48.5 11V12H51.5V11V10H48.5V11ZM51.5 11V12H54.5V11V10H51.5V11ZM51.5 2.5H50.5V11H51.5H52.5V2.5H51.5ZM50.5 44V43C49.9477 43 49.5 42.5523 49.5 42H48.5H47.5C47.5 43.6569 48.8431 45 50.5 45V44ZM52.5 44V45C54.1569 45 55.5 43.6569 55.5 42H54.5H53.5C53.5 42.5523 53.0523 43 52.5 43V44ZM37.5 44V43C36.9477 43 36.5 42.5523 36.5 42H35.5H34.5C34.5 43.6569 35.8431 45 37.5 45V44ZM39.5 44V45C41.1569 45 42.5 43.6569 42.5 42H41.5H40.5C40.5 42.5523 40.0523 43 39.5 43V44ZM36.5 54.5V55.5C38.1569 55.5 39.5 54.1569 39.5 52.5H38.5H37.5C37.5 53.0523 37.0523 53.5 36.5 53.5V54.5ZM19 52.5H18C18 54.1569 19.3431 55.5 21 55.5V54.5V53.5C20.4477 53.5 20 53.0523 20 52.5H19ZM21.3116 33.9149L21.9701 34.6675C23.5875 33.2522 23.637 30.7523 22.0767 29.2741L21.389 30.0001L20.7012 30.726C21.406 31.3937 21.3837 32.523 20.6531 33.1623L21.3116 33.9149ZM12.1822 25.0775L11.4296 24.419C10.1364 25.8969 10.2429 28.1326 11.6705 29.481L12.3572 28.754L13.0438 28.027C12.3977 27.4167 12.3495 26.4049 12.9347 25.736L12.1822 25.0775ZM10 56.5H9C9 58.1569 10.3431 59.5 12 59.5V58.5V57.5C11.4477 57.5 11 57.0523 11 56.5H10ZM49.9298 58.5V59.5C51.6272 59.5 52.9866 58.093 52.9281 56.3966L51.9287 56.4311L50.9293 56.4655C50.9487 57.031 50.4956 57.5 49.9298 57.5V58.5ZM17.75 33.8472L17.0634 34.5742C18.4304 35.8653 20.5549 35.9057 21.9701 34.6675L21.3116 33.9149L20.6531 33.1623C20.0138 33.7216 19.0541 33.7034 18.4366 33.1202L17.75 33.8472ZM12.1822 25.0775L12.9347 25.736C13.553 25.0295 14.6347 24.9788 15.3163 25.6245L16.004 24.8986L16.6918 24.1726C15.1858 22.7459 12.7956 22.8579 11.4296 24.419L12.1822 25.0775Z" fill="#141414"/>
</svg>
