<svg width="120" height="22" viewBox="0 0 120 22" fill="none" xmlns="http://www.w3.org/2000/svg">
<g clip-path="url(#clip0_506_8519)">
<path d="M62.8391 9.81818C61.8353 8.33058 60.3296 7.43802 58.2215 7.43802C54.3066 7.43802 51.6967 10.5124 51.6967 14.5785C51.6967 19.0413 54.6078 21.8182 58.2215 21.8182C60.4299 21.8182 61.9357 20.8264 62.8391 19.5372V21.2231H67.2559V8.03306H62.8391V9.81818ZM59.6269 18.3471C57.6193 18.3471 56.3143 16.7603 56.3143 14.5785C56.3143 12.3967 57.7196 10.8099 59.7273 10.8099C61.7349 10.8099 63.0399 12.3967 63.0399 14.5785C62.9395 16.9587 61.5341 18.3471 59.6269 18.3471ZM29.0104 9.81818C28.0066 8.33058 26.5008 7.43802 24.3928 7.43802C20.4779 7.43802 17.868 10.5124 17.868 14.5785C17.868 19.0413 20.7791 21.8182 24.3928 21.8182C26.6012 21.8182 28.107 20.8264 29.0104 19.5372V21.2231H33.4272V8.03306H29.0104V9.81818ZM25.7982 18.3471C23.7905 18.3471 22.4856 16.7603 22.4856 14.5785C22.4856 12.3967 23.8909 10.8099 25.8985 10.8099C27.9062 10.8099 29.2112 12.3967 29.2112 14.5785C29.1108 16.9587 27.7054 18.3471 25.7982 18.3471ZM80.7071 0.297521H85.3247V21.3223H80.7071V0.297521ZM71.0704 4.16529V8.03306H69.1632V11.5041H71.0704V21.3223H75.688V11.5041H78.3983V8.03306H75.688V5.35537C75.688 4.76033 75.7884 3.47107 77.0934 3.47107C77.4949 3.47107 78.0972 3.57025 78.3983 3.76859V0.297521C77.796 0.0991736 76.7922 0 75.8888 0C71.7731 0 71.0704 2.38017 71.0704 4.16529ZM45.0715 7.43802C42.9635 7.43802 41.5581 8.52892 40.7551 9.81818V8.03306H36.1375V21.2231H40.7551V14.4793C40.7551 12.2975 41.8593 10.9091 43.365 10.9091C44.9711 10.9091 45.2723 12.2975 45.2723 13.4876V21.2231H49.8898V13.1901C49.7895 11.5041 49.4883 7.43802 45.0715 7.43802ZM102.289 13.3884C101.687 10.1157 99.5789 7.43802 95.2625 7.43802C91.0464 7.43802 87.6335 10.0165 87.7338 15.0744C87.8342 18.7438 90.3438 21.8182 95.0617 21.8182C99.4785 21.8182 101.486 19.438 102.289 17.4545L98.2739 17.157C97.5713 18.843 96.2663 19.1405 95.3629 19.1405C93.8571 19.1405 92.1507 17.9504 92.1507 15.4711H102.49C102.49 14.6777 102.39 13.9835 102.289 13.3884ZM92.251 13.2893C92.3514 12.0992 93.2549 10.2149 95.3629 10.2149C97.0694 10.2149 98.1736 11.6033 98.2739 13.2893H92.251ZM114.134 14.281L118.852 8.03306H113.934L111.625 11.9008L109.316 8.03306H104.297L109.115 14.281L103.795 21.2231H108.714L111.625 16.8595L114.536 21.2231H119.455L114.134 14.281ZM11.042 9.52066C9.63667 7.73554 7.62903 7.43802 6.62521 7.43802C2.60993 7.43802 0 10.6116 0 14.5785C0 18.5455 2.50955 21.8182 6.42445 21.8182C8.63285 21.8182 10.1386 20.8264 11.042 19.5372V21.2231H15.4588V0.297521H11.042V9.52066ZM7.82979 18.3471C5.82215 18.3471 4.51719 16.7603 4.51719 14.5785C4.51719 12.8926 5.52101 10.9091 8.03056 10.9091C9.93781 10.9091 11.2428 12.595 11.2428 14.6777C11.2428 17.157 9.63667 18.3471 7.82979 18.3471Z" fill="#505050"/>
</g>
<defs>
<clipPath id="clip0_506_8519">
<rect width="119.455" height="21.8182" fill="white"/>
</clipPath>
</defs>
</svg>
