<svg width="94" height="21" viewBox="0 0 94 21" fill="none" xmlns="http://www.w3.org/2000/svg">
<path d="M59.6997 1.14551H58.0088V15.1091H59.6997V1.14551Z" fill="#505050"/>
<path d="M61.9629 11.149C61.9629 8.81444 64.2702 6.93262 67.1883 6.93262C70.1065 6.93262 72.4138 8.80898 72.4138 11.149C72.4138 13.4835 70.0847 15.3272 67.1883 15.3272C64.292 15.3272 61.9629 13.4835 61.9629 11.149ZM63.6538 11.1326C63.6538 12.7581 65.0883 14.0726 67.1883 14.0726C69.2829 14.0726 70.7229 12.7526 70.7229 11.1326C70.7229 9.52353 69.2829 8.18716 67.1883 8.18716C65.0938 8.18716 63.6538 9.52353 63.6538 11.1326Z" fill="#505050"/>
<path d="M82.1288 9.52353H82.0851C81.2997 8.72716 80.3288 8.18716 78.9978 8.18716C76.9415 8.18716 75.4851 9.53989 75.4851 11.1326C75.4851 12.7035 76.8378 14.0726 78.9106 14.0726C80.3288 14.0726 81.3215 13.5653 82.1451 12.7035H82.1888V14.5144C81.2178 15.0381 80.2197 15.3272 79.036 15.3272C76.0306 15.3272 73.7451 13.5326 73.7451 11.1272C73.7451 8.75989 76.1397 6.93262 79.0578 6.93262C80.1378 6.93262 81.2342 7.22171 82.1233 7.72898V9.52353H82.1288Z" fill="#505050"/>
<path d="M86.4214 10.0964L90.0377 7.15642H92.3014L88.0468 10.5382L93.1032 15.1091H90.8614L86.8632 11.4873L86.4214 11.8419V15.1091H84.7305V1.14551H86.4214V10.0964Z" fill="#505050"/>
<path d="M29.6122 0.261719H34.0413V9.29445C34.0413 10.9581 33.5668 12.3108 32.6231 13.3581C32.0777 13.9635 31.3904 14.4381 30.5449 14.7926C29.7049 15.1526 28.8431 15.3272 27.9595 15.3272C26.2031 15.3272 24.7195 14.7817 23.514 13.6963C22.3086 12.6108 21.7031 11.2744 21.7031 9.69263C21.7031 8.16536 22.3031 6.8399 23.5031 5.72172C24.7031 4.60354 26.1213 4.04717 27.7631 4.04717C28.0249 4.04717 28.4177 4.06354 28.9468 4.09081V8.57445C28.5868 8.32899 28.2213 8.20354 27.8559 8.20354C27.3977 8.20354 27.0049 8.35626 26.6777 8.66717C26.3504 8.97263 26.1868 9.34354 26.1868 9.7799C26.1868 10.1999 26.3559 10.5599 26.694 10.8599C27.0322 11.1599 27.4359 11.3126 27.9104 11.3126C29.0449 11.3126 29.6068 10.5872 29.6068 9.13626V0.261719H29.6122Z" fill="#505050"/>
<path d="M42.2343 4.13985V8.49804C41.9234 8.33985 41.6452 8.26349 41.3943 8.26349C40.587 8.26349 40.1889 8.83076 40.1889 9.95985V15.1089H35.7598V9.1744C35.7598 7.60894 36.2234 6.35985 37.1561 5.42713C38.0889 4.4944 39.3325 4.03076 40.8816 4.03076C41.2307 4.03076 41.6834 4.06894 42.2343 4.13985Z" fill="#505050"/>
<path d="M46.2654 19.8599V16.3254C46.8654 16.5654 47.389 16.6854 47.8363 16.6854C49.2708 16.6854 50.1981 15.9381 50.629 14.4436C49.8599 14.869 49.1017 15.0817 48.3599 15.0817C47.2635 15.0817 46.3635 14.7054 45.6545 13.9527C44.9454 13.1999 44.5908 12.2399 44.5908 11.0781V4.24902H49.0254V10.0854C49.0254 10.7399 49.3145 11.0672 49.8926 11.0672C50.449 11.0672 50.7272 10.7072 50.7272 9.98721V4.24902H55.1563V13.9418C55.1563 15.7472 54.5999 17.209 53.4981 18.3217C52.1835 19.6417 50.5854 20.3017 48.7199 20.3017C47.8963 20.3017 47.0781 20.1545 46.2654 19.8599Z" fill="#505050"/>
<path d="M60.2239 17.5747V18.0656H59.3239V20.0129H58.8385V18.0656H57.9385V17.5747H60.2239Z" fill="#505050"/>
<path d="M63.0213 17.5747V18.0656H61.3468V18.5074H62.2359V18.9983H61.3468V19.522H63.0813V20.0129H60.8613V17.5747H63.0213Z" fill="#505050"/>
<path d="M65.9613 18.3871C65.8031 18.2562 65.4704 17.989 64.9904 17.989C64.3904 17.989 64.0358 18.4144 64.0358 18.8071C64.0358 19.1671 64.3467 19.598 65.0449 19.598C65.4758 19.598 65.8631 19.4071 66.0704 19.2544L66.2886 19.7017C65.9449 19.958 65.4158 20.0835 65.0395 20.0835C64.2213 20.0835 63.5449 19.6362 63.5449 18.7908C63.5449 17.929 64.3358 17.498 65.0122 17.498C65.6449 17.498 65.9831 17.7762 66.2449 17.9617L65.9613 18.3871Z" fill="#505050"/>
<path d="M67.6032 17.5747V18.4965H68.9069V17.5747H69.3978V20.0129H68.9069V18.9874H67.6032V20.0129H67.1123V17.5747H67.6032Z" fill="#505050"/>
<path d="M70.5596 17.5747H71.0505L72.3868 19.222H72.3977V17.5747H72.8832V20.0129H72.3977L71.0614 18.3656H71.0505V20.0129H70.5596V17.5747Z" fill="#505050"/>
<path d="M73.7676 18.7908C73.7676 18.109 74.3021 17.498 75.2621 17.498C76.2276 17.498 76.7567 18.1035 76.7567 18.7908C76.7567 19.4726 76.2167 20.0835 75.2621 20.0835C74.313 20.089 73.7676 19.478 73.7676 18.7908ZM76.2712 18.7908C76.2712 18.3653 75.873 17.9835 75.2621 17.9835C74.6567 17.9835 74.253 18.3708 74.253 18.7908C74.253 19.2162 74.6512 19.5926 75.2621 19.5926C75.873 19.598 76.2712 19.2162 76.2712 18.7908Z" fill="#505050"/>
<path d="M77.9401 17.5747V19.522H79.3365V20.0129H77.4492V17.5747H77.9401Z" fill="#505050"/>
<path d="M79.8271 18.7908C79.8271 18.109 80.3617 17.498 81.3217 17.498C82.2872 17.498 82.8217 18.1035 82.8217 18.7908C82.8217 19.4726 82.2817 20.0835 81.3217 20.0835C80.3672 20.089 79.8271 19.478 79.8271 18.7908ZM82.3308 18.7908C82.3308 18.3653 81.9326 17.9835 81.3217 17.9835C80.7162 17.9835 80.3181 18.3708 80.3181 18.7908C80.3181 19.2162 80.7162 19.5926 81.3217 19.5926C81.9272 19.598 82.3308 19.2162 82.3308 18.7908Z" fill="#505050"/>
<path d="M84.8893 18.6271H85.9856V19.6526C85.882 19.7617 85.5275 20.089 84.7693 20.089C83.8638 20.089 83.3184 19.4617 83.3184 18.7744C83.3184 18.158 83.7984 17.498 84.7747 17.498C85.4238 17.498 85.8056 17.7326 85.9365 17.809L85.6474 18.2944C85.4947 18.1908 85.2111 17.989 84.7529 17.989C84.1802 17.989 83.8093 18.3435 83.8093 18.7744C83.8093 19.238 84.1365 19.598 84.7693 19.598C85.0202 19.598 85.3147 19.4999 85.4947 19.3744V19.0799H84.8893V18.6271Z" fill="#505050"/>
<path d="M87.2722 17.5747H86.7812V20.0129H87.2722V17.5747Z" fill="#505050"/>
<path d="M90.4522 17.5747V18.0656H88.7722V18.5074H89.6612V18.9983H88.7722V19.522H90.5067V20.0129H88.2812V17.5747H90.4522Z" fill="#505050"/>
<path d="M91.1176 19.2275C91.5431 19.5002 91.9467 19.5984 92.3721 19.5984C92.6176 19.5984 93.0321 19.5384 93.0321 19.2656C93.0321 19.0693 92.8194 19.0147 92.6667 19.0147L91.9412 18.9929C91.3412 18.9766 91.0521 18.6329 91.0521 18.2565C91.0521 17.8965 91.3194 17.5093 92.1921 17.5093C92.8358 17.5093 93.223 17.7547 93.3703 17.8311L93.1521 18.262C92.9612 18.1638 92.6067 18.0002 92.1212 18.0002C91.8649 18.0002 91.5431 18.0547 91.5431 18.2729C91.5431 18.4638 91.8103 18.5075 91.9794 18.5075L92.6121 18.5293C93.174 18.5456 93.5285 18.7802 93.5285 19.2984C93.5285 19.7347 93.1849 20.1002 92.3831 20.1002C91.7231 20.1002 91.2376 19.9366 90.8994 19.6747L91.1176 19.2275Z" fill="#505050"/>
<path d="M13.2927 18.1147C13.2927 18.851 12.6982 19.4456 11.9618 19.4456H1.33091C0.594545 19.4456 0 18.851 0 18.1147V7.47829C0 6.74738 0.594545 6.15283 1.33091 6.15283H11.9673C12.7036 6.15283 13.2982 6.74738 13.2982 7.47829V18.1147H13.2927Z" fill="#505050"/>
<path d="M19.1619 12.5506C19.1619 13.2869 19.2437 13.516 18.4474 14.5742L15.4746 18.4415C14.771 19.3415 14.2474 19.3742 14.2474 18.6379V7.69058C14.2365 6.58331 14.1765 6.08694 14.8528 5.22513L17.8365 1.24876C18.5183 0.397853 19.1619 0.861489 19.1619 1.59785V12.5506Z" fill="#505050"/>
<path d="M14.3396 4.65824C13.6468 5.54733 12.7905 5.5146 11.9941 5.5146H1.68503C0.948666 5.5146 0.992302 5.00733 1.62503 4.1837L4.24321 0.774605C4.85412 -0.0217583 5.55776 5.88703e-05 6.28866 5.88703e-05H16.8323C17.5687 5.88703e-05 17.6559 0.321876 16.8868 1.33097L14.3396 4.65824Z" fill="#505050"/>
<path d="M8.71068 12.7857C11.9998 17.5148 8.12704 17.9457 6.65977 17.9457C5.1925 17.9457 1.2925 17.8257 3.43613 12.7584C5.25795 9.35478 6.65977 7.5166 6.65977 7.5166C6.65977 7.5166 6.38704 9.94933 8.71068 12.7857Z" fill="white"/>
<path d="M8.55785 13.8437C9.70876 15.3 9.16876 15.6819 8.94512 15.7691C8.71603 15.8564 8.09966 16.0473 7.73966 14.1546C7.55421 12.8564 7.52148 12.1255 7.52148 12.1255C7.52148 12.1255 7.81057 12.9928 8.55785 13.8437Z" fill="#505050"/>
</svg>
