<svg width="94" height="70" viewBox="0 0 94 70" fill="none" xmlns="http://www.w3.org/2000/svg">
<g clip-path="url(#clip0_506_259)">
<path d="M7.89658 20.5617C7.89658 20.5617 7.95868 20.7455 8.08289 21.0826H84.8381C84.9623 20.7455 85.0244 20.5617 85.0244 20.5617C85.3349 19.5812 85.6143 18.6313 85.8317 17.7426C88.6572 6.34383 84.4965 4.26019 73.9085 2.23782C65.7735 0.675086 54.875 0.0622452 46.4605 0.0928871C38.046 0.0622452 27.1475 0.675086 19.0124 2.23782C8.42444 4.26019 4.26377 6.34383 7.08929 17.7426C7.30665 18.6313 7.58609 19.5812 7.89658 20.5617ZM82.1988 19.0296C82.0746 19.5199 81.9505 20.0407 81.7952 20.5617H11.0947C10.9394 20.0407 10.8153 19.5505 10.6911 19.0296C9.54222 14.2495 9.57328 11.3998 10.8153 9.49991C12.2746 7.32438 15.3485 6.43577 20.8754 5.48587C28.3895 4.1989 39.1327 3.61671 46.4294 3.61671C53.7261 3.61671 64.4694 4.1989 71.9835 5.48587C77.5103 6.43577 80.5843 7.32438 82.0436 9.49991C83.3167 11.3998 83.3477 14.2495 82.1988 19.0296ZM19.6023 2.8813C27.5511 1.3492 38.2012 0.736368 46.4294 0.797652C54.6576 0.76701 65.3077 1.3492 73.2565 2.8813C83.6272 4.87302 87.7567 6.80347 84.9934 18.0184C84.7759 18.8457 84.5586 19.7037 84.2792 20.5617H83.6582C83.8755 19.8263 84.0928 19.1215 84.2481 18.4167C86.9495 7.35501 82.913 5.48587 72.7287 3.49414C64.9351 1.99269 54.5024 1.37985 46.4294 1.44114C38.3565 1.41049 27.9237 1.99269 20.0992 3.49414C9.91487 5.45522 5.87835 7.35501 8.57969 18.4167C8.73493 19.1215 8.95228 19.8263 9.16963 20.5617H8.54864C8.26918 19.7037 8.02079 18.8457 7.83449 18.0184C5.1021 6.80347 9.23173 4.87302 19.6023 2.8813Z" fill="#505050"/>
<path d="M16.3105 38.3335C16.4037 38.5173 16.528 38.6706 16.6211 38.8544C20.6265 45.473 25.5014 52.2142 30.6556 58.1894C39.2875 68.24 44.7522 69.1898 46.0873 69.2818C46.1805 69.2818 46.3047 69.2818 46.4289 69.2818C46.5531 69.2818 46.6463 69.2818 46.7704 69.2818C48.1056 69.2205 53.5704 68.24 62.2023 58.1894C67.3565 52.1836 72.2314 45.473 76.2367 38.8544C76.3299 38.6706 76.4541 38.5173 76.5473 38.3335H16.3105ZM67.2944 38.885H70.741V43.4813C69.6231 45.2279 68.4743 46.9438 67.2944 48.6291V38.885ZM59.7803 38.885H63.2269V54.0222C62.3575 55.1252 61.457 56.1977 60.5566 57.2089C60.2772 57.5153 60.0287 57.7911 59.7803 58.0975V38.885ZM52.2353 38.885H55.6818V62.1729C54.4398 63.276 53.291 64.1953 52.2353 64.9001V38.885ZM44.7212 38.885H48.1677V67.045C48.1677 67.045 47.2983 67.3514 46.4289 67.3514C45.5595 67.3514 44.6902 67.045 44.6902 67.045C44.7212 65.6967 44.7212 38.885 44.7212 38.885ZM37.176 38.885H40.6226V64.9001C39.5669 64.1646 38.4181 63.276 37.176 62.1729V38.885ZM29.662 38.885H33.1086V58.0975C32.8601 57.8217 32.5807 57.5153 32.3323 57.2089C31.4319 56.167 30.5314 55.1252 29.662 54.0222V38.885ZM22.1169 38.885H25.5635V48.6291C24.3835 46.9438 23.2037 45.2279 22.1169 43.4813V38.885ZM75.5847 38.885C71.6724 45.3811 66.9219 51.9691 61.8918 57.8524C53.4462 67.6884 48.1056 68.669 46.7704 68.7609C46.6774 68.7609 46.5531 68.7609 46.4289 68.7609C46.3047 68.7609 46.2116 68.7609 46.0873 68.7609C44.7522 68.669 39.4117 67.7191 30.9661 57.8524C25.936 51.9691 21.1854 45.3811 17.2732 38.885H17.7699C21.6201 45.3198 26.3086 51.8465 31.2766 57.6686C39.5669 67.3514 44.7832 68.3319 46.0873 68.3932C46.1805 68.3932 46.3047 68.3932 46.4289 68.3932C46.5531 68.3932 46.6463 68.3932 46.7704 68.3932C48.0745 68.3013 53.322 67.3514 61.5813 57.6686C66.5493 51.8465 71.2378 45.3198 75.0879 38.885H75.5847Z" fill="#505050"/>
<path d="M0.289062 20.5615V38.8854H92.6002V20.5615H0.289062ZM92.0724 38.3338H0.816914V21.0824H92.0724V38.3338Z" fill="#505050"/>
<path d="M10.7207 30.7651H14.012L12.3042 27.1187L10.7207 30.7651Z" fill="#505050"/>
<path d="M46.9568 24.9736H46.7705V29.3555H46.9878C48.3851 29.3555 49.596 28.8345 49.596 27.2105C49.596 26.0155 49.2544 24.9736 46.9568 24.9736Z" fill="#505050"/>
<path d="M1.56152 21.8174V37.6286H91.3266V21.8174H1.56152ZM20.7192 35.2385H13.8573V34.5644L15.6892 34.3193L14.5093 31.8373H10.2555L9.19979 34.2887L11.0938 34.5644V35.2385H5.41171V34.5644L7.24365 34.2887L12.1184 23.9011H13.6399L18.8563 34.2887L20.6882 34.5644V35.2385H20.7192ZM37.1447 24.5752L35.3127 24.8203C35.3127 24.8203 35.3127 30.7955 35.3127 30.8567C35.3437 32.3276 34.9401 33.3388 34.288 34.0435C33.2944 35.0853 31.8351 35.3917 29.941 35.3917C27.7986 35.3917 26.0598 35.1772 24.911 33.7677C24.259 32.9711 24.1037 31.8986 24.1037 30.9487C24.1037 30.8261 24.1037 24.7897 24.1037 24.7897L22.2718 24.5445V23.8704H29.0406V24.5445L27.2087 24.7897C27.2087 24.7897 27.2087 28.4054 27.2087 30.9487C27.2398 33.4001 28.3575 34.1354 30.3447 34.1354C32.2698 34.1354 33.4187 33.3388 33.4808 31.1019C33.5118 28.9569 33.4808 24.7897 33.4808 24.7897L31.6488 24.5445V23.8704H37.1447V24.5752ZM56.023 35.2385H53.8805C52.2038 35.2385 51.3344 34.6564 50.7134 33.8903C50.5271 33.6452 49.3162 31.9905 48.7884 31.2551C48.5399 30.918 48.1983 30.4278 47.4532 30.4278H46.7701V34.3193L48.602 34.5644V35.2385H41.9263V34.5644L43.7583 34.3193V24.851L41.9263 24.6058V23.9316H48.0432C48.2294 23.9316 48.3847 23.9317 48.571 23.9623C51.1481 24.0542 52.6075 25.4025 52.6075 27.1185C52.6075 28.3748 51.9865 29.202 50.5582 29.723C50.7445 29.7537 51.0239 29.8762 51.2413 30.0294C51.3344 30.0907 51.4276 30.1826 51.5517 30.3052C52.3901 31.2551 53.9737 33.4306 54.222 33.7065C54.5015 34.0435 54.9983 34.3806 55.3709 34.4725C55.7435 34.5644 56.023 34.5644 56.023 34.5644V35.2385ZM73.9697 24.5752L72.1378 24.8203C72.1378 24.8203 72.1378 30.7955 72.1378 30.8567C72.1689 32.3276 71.7652 33.3388 71.1131 34.0435C70.1196 35.0853 68.6602 35.3917 66.7662 35.3917C64.6238 35.3917 62.885 35.1772 61.7361 33.7677C61.084 32.9711 60.9599 31.8986 60.9599 30.9487C60.9599 30.8261 60.9599 24.7897 60.9599 24.7897L59.1279 24.5445V23.8704H65.8968V24.5445L64.0648 24.7897C64.0648 24.7897 64.0648 28.4054 64.0648 30.9487C64.0959 33.4001 65.2137 34.1354 67.2009 34.1354C69.126 34.1354 70.2748 33.3388 70.3369 31.1019C70.3679 28.9569 70.3369 24.7897 70.3369 24.7897L68.505 24.5445V23.8704H74.0008V24.5752H73.9697ZM87.0728 33.737C86.7934 34.258 86.3276 34.6257 85.6755 34.9628C85.0235 35.2998 83.8126 35.453 82.881 35.453C81.9495 35.453 78.9067 35.3305 78.9067 35.3305L78.7514 32.1743H79.5277L80.0555 33.9822C80.1797 34.0741 81.3285 34.3193 82.1979 34.3193C83.1916 34.3193 84.1541 34.0435 84.4646 33.5226C84.744 33.063 84.7751 32.1743 83.9988 31.6534C83.3778 31.2244 81.2664 29.9375 80.2728 29.294C79.8692 29.0182 78.8756 28.2828 78.8756 26.7814C78.8756 25.4025 79.9934 24.6364 80.6144 24.33C81.3285 23.9929 82.4153 23.8704 83.2226 23.8704C83.2536 23.8704 83.2536 23.8704 83.2847 23.8704C84.1541 23.8704 86.6691 24.0236 86.6691 24.0236V27.0878H86.0171L85.6134 25.2799C85.2408 25.0961 84.092 24.8816 83.2226 24.9735C82.1669 25.0961 81.6701 25.6476 81.6701 26.1686C81.6701 26.7814 82.0427 27.1798 82.3221 27.3636C83.0673 27.8232 84.9303 28.9569 85.9239 29.6311C86.6691 30.1519 87.3833 31.0713 87.3833 32.2663C87.4764 32.8791 87.3522 33.2468 87.0728 33.737Z" fill="#505050"/>
<path d="M69.5921 11.8595C69.468 11.8595 69.3437 11.8595 69.2196 11.8288C68.909 11.7982 68.5365 11.7982 68.1018 11.7675C66.2388 11.6756 64.4689 11.5836 62.6991 11.5224C61.5192 11.4918 60.3393 11.4305 59.0973 11.3998H58.5695C57.4517 11.3692 56.2718 11.3385 55.0608 11.3385C54.6262 11.3385 54.1604 11.3385 53.7257 11.3079C52.9805 11.3079 52.2353 11.2772 51.4901 11.2772L50.2171 10.5724C49.9997 10.4499 49.8134 10.3273 49.6271 10.2048L50.1549 8.39691L48.323 8.91783C48.1988 8.73398 48.0436 8.51949 47.9504 8.33563L46.6153 5.94556C46.5842 5.91492 46.5532 5.88428 46.4911 5.88428C46.4289 5.88428 46.398 5.91492 46.3669 5.94556L45.0318 8.33563C44.9075 8.55013 44.7833 8.73398 44.6592 8.91783L42.8272 8.39691L43.3551 10.2048C43.1687 10.3273 42.9514 10.4806 42.7651 10.5724L41.492 11.2772C40.7469 11.2772 40.0017 11.3079 39.2565 11.3079C38.7908 11.3079 38.356 11.3079 37.9213 11.3385C36.7104 11.3385 35.5615 11.3692 34.4127 11.3998H33.8848C32.6428 11.4305 31.463 11.4611 30.283 11.5224C28.5133 11.5836 26.7434 11.6449 24.8804 11.7675C24.4457 11.7982 24.0731 11.7982 23.7626 11.8288C23.6073 11.8288 23.4832 11.8595 23.39 11.8595C23.1416 11.8901 22.9863 11.8901 22.9863 12.0433C22.9863 12.1966 23.1106 12.1965 23.39 12.2271L23.7315 12.2578C24.042 12.2884 24.4457 12.3191 24.8804 12.3191C26.6813 12.411 28.4822 12.503 30.283 12.5642C31.4009 12.5948 32.6118 12.6561 33.8848 12.6868L34.63 12.7174C35.6857 12.7481 36.8036 12.7787 37.9213 12.7787C38.356 12.7787 38.8217 12.7787 39.2565 12.8094C40.0017 12.8094 40.7469 12.84 41.492 12.84L42.7961 13.5447C43.0135 13.6673 43.1998 13.7899 43.3861 13.9124L42.8582 15.7204L44.6902 15.1994C44.8144 15.3833 44.9697 15.5978 45.0628 15.7817L46.398 18.1717C46.4289 18.2023 46.46 18.233 46.5221 18.233C46.5842 18.233 46.6153 18.2023 46.6464 18.1717L47.9815 15.7817C48.1056 15.5671 48.2299 15.3833 48.3541 15.1994L50.186 15.7204L49.565 13.8511C49.7513 13.7286 49.9687 13.5754 50.1549 13.4835L51.459 12.7787C52.2042 12.7787 52.9495 12.7481 53.6946 12.7481C54.1604 12.7481 54.5951 12.7481 55.0298 12.7174C56.1476 12.7174 57.2654 12.6868 58.3211 12.6561L59.0662 12.6255C60.3393 12.5948 61.5503 12.5642 62.668 12.503C64.4379 12.4417 66.2699 12.3804 68.0707 12.2578C68.5365 12.2271 68.909 12.1966 69.2196 12.1966L69.5612 12.1659C69.8095 12.1353 69.9647 12.1353 69.9647 11.982C69.9958 11.8901 69.8716 11.8901 69.5921 11.8595ZM46.3669 17.6508L45.2491 15.5978C44.6902 14.5866 43.8518 13.7593 42.8582 13.2383L41.5231 12.5335C41.492 12.5335 41.461 12.5335 41.461 12.503C40.6848 12.503 39.9396 12.4723 39.1943 12.4723C38.7286 12.4723 38.2939 12.4723 37.8592 12.4417C36.7415 12.4417 35.6236 12.411 34.5679 12.3804L33.8228 12.3497C32.5497 12.3191 31.3388 12.2884 30.2209 12.2271C29.0411 12.1965 27.8302 12.1353 26.6192 12.074H44.1623C44.5039 12.2271 45.1559 12.5642 45.5285 12.9319C45.839 13.2383 46.2116 13.8511 46.398 14.2802V17.6508H46.3669ZM46.3669 9.77581C46.1806 10.1742 45.808 10.8177 45.4975 11.1241C45.1248 11.4918 44.4728 11.7982 44.1313 11.982H26.5881C27.8612 11.9207 28.9479 11.8595 30.19 11.8288C31.3698 11.7982 32.5497 11.7369 33.7917 11.7062H34.3195C35.4374 11.6756 36.6172 11.6449 37.8281 11.6449C38.2629 11.6449 38.7286 11.6449 39.1633 11.6143C39.9085 11.6143 40.6848 11.5836 41.43 11.5836C41.461 11.5836 41.492 11.5836 41.492 11.553L42.7961 10.8483C43.8208 10.2967 44.6281 9.46939 45.187 8.48885L46.3048 6.43584V9.77581H46.3669ZM62.668 12.2578C61.5503 12.2884 60.3393 12.3497 59.0662 12.3804L58.3211 12.411C57.2654 12.4417 56.1476 12.4723 55.0298 12.4723C54.5951 12.4723 54.1293 12.4723 53.6946 12.503C52.9495 12.503 52.2042 12.5335 51.428 12.5335C51.3969 12.5335 51.3969 12.5335 51.3659 12.5642L50.0308 13.269C49.0061 13.8206 48.1988 14.6479 47.6399 15.6284L46.5221 17.6814V14.3415C46.7085 13.9431 47.081 13.2996 47.3916 12.9932C47.7641 12.6255 48.4161 12.3191 48.7577 12.1353H66.3008C65.0899 12.1659 63.879 12.2271 62.668 12.2578ZM48.7577 11.982C48.4161 11.8288 47.7641 11.4918 47.3916 11.1241C47.081 10.8177 46.7085 10.2048 46.5221 9.77581V6.43584L47.6399 8.48885C48.1988 9.50005 49.0372 10.3273 50.0308 10.8483L51.3349 11.553C51.3659 11.553 51.3659 11.5836 51.3969 11.5836C52.1732 11.5836 52.9184 11.6143 53.6636 11.6143C54.1293 11.6143 54.5641 11.6143 54.9988 11.6449C56.2097 11.6449 57.3585 11.6756 58.5074 11.7062H59.0352C60.2772 11.7369 61.4571 11.7675 62.637 11.8288C63.879 11.8595 64.9968 11.9207 66.2388 11.982H48.7577Z" fill="#505050"/>
</g>
<defs>
<clipPath id="clip0_506_259">
<rect width="93.2727" height="69.2727" fill="white"/>
</clipPath>
</defs>
</svg>
