<svg width="138" height="97" viewBox="0 0 138 97" fill="none" xmlns="http://www.w3.org/2000/svg">
<path d="M47.1816 36.2727V30H20.1816V66H40.0907L44.4544 60.5455H26.9998V50.7273H45.818V45H26.9998V36.2727H47.1816Z" fill="#505050"/>
<path d="M43.6362 66L45.818 60.5455H48.5453V66H43.6362Z" fill="#505050"/>
<path d="M90.2726 36.2727V30H117.818V45.8182L114.273 47.4545L117.818 50.7273V66H97.6982L93.2726 60.2727H110.454V50.7273H91.6362V44.7273H110.454V36.2727H90.2726Z" fill="#505050"/>
<path fill-rule="evenodd" clip-rule="evenodd" d="M51.818 66L64.9089 30H69.2726H73.6362L86.7271 66H79.6362L76.4329 57H69.2726H62.1122L58.9089 66H51.818ZM64.0907 51.2727L69.2726 36.2727L74.4544 51.2727H69.2726H64.0907Z" fill="#505050"/>
<path d="M94.0907 66L91.9089 60.2727H89.1816V66H94.0907Z" fill="#505050"/>
</svg>
