<svg width="120" height="24" viewBox="0 0 120 24" fill="none" xmlns="http://www.w3.org/2000/svg">
<g clip-path="url(#clip0_506_10101)">
<path fill-rule="evenodd" clip-rule="evenodd" d="M23.7581 8.11131L24.3234 6.53678L23.4188 6.12644C23.3058 6.06918 20.7333 4.92405 16.738 3.93161C16.7568 3.79801 16.7662 3.66441 16.7662 3.52127C16.7662 1.58409 15.2209 0 13.3174 0C11.6684 0 10.2927 1.17376 9.95344 2.75785C8.24787 2.59563 6.58001 2.52883 4.94985 2.567C4.54466 2.89145 4.15832 3.27316 3.82852 3.71212C3.55525 4.05567 3.3291 4.42784 3.14064 4.80954C5.60004 4.61869 8.1725 4.68549 10.8392 5.01948L12.2432 5.19125L11.9982 3.75984C11.9794 3.67396 11.97 3.58807 11.97 3.51173C11.97 2.74831 12.573 2.13757 13.3174 2.13757C14.0619 2.13757 14.6649 2.75785 14.6649 3.51173C14.6649 3.7503 14.599 3.96978 14.4953 4.17972L13.798 5.4489L15.1832 5.75427C18.1514 6.41274 20.4601 7.23341 21.6662 7.69143L20.9595 9.66682L24.6721 10.4684L23.3623 12.9686C22.3729 13.2549 19.9606 14.0469 17.4259 15.526C16.2291 16.2227 15.1549 16.9956 14.222 17.8067C13.5248 17.5205 12.8557 17.1102 12.2432 16.5948C9.97227 14.6768 9.04884 11.6994 9.58595 8.94158C7.99345 11.3654 8.21022 14.5813 10.0665 16.7666C7.09829 14.5336 4.13947 10.6211 8.52117 5.87833C5.57177 5.87833 3.88506 6.0501 2.53757 6.37453C2.1795 7.88229 2.29258 9.47596 2.88622 10.8978C1.79316 9.77179 1.21836 8.28309 1.20894 6.76579C0.837989 6.89103 0.475325 7.03301 0.0899005 7.18389L0.0122188 7.21434C-0.449506 19.3336 12.328 24 12.328 24V23.9905C14.6831 17.5331 23.9898 15.0428 24.3156 14.9556L24.3234 14.9535L24.7757 14.8389L27.8382 8.98926L23.7581 8.11131ZM18.3963 8.69343L18.1607 9.04648L19.6024 9.34232L19.6072 9.32975L19.657 9.33973L19.9524 8.58259L19.8913 8.58733L19.8946 8.57893L18.3963 8.69343Z" fill="#505050"/>
<path d="M98.8894 11.9814L102.123 18.8281H99.7256L99.3078 17.9313H95.8542L95.4365 18.8281H93.083L96.3164 11.9814H98.8894ZM98.4716 16.1376L97.6141 14.3002L96.7561 16.1376H98.4716Z" fill="#505050"/>
<path d="M52.2005 11.9814L55.3693 18.8281H53.0036L52.5912 17.9313H49.2054L48.7931 18.8281H46.4707L49.6612 11.9814H52.2005ZM51.8099 16.1376L50.9634 14.3002L50.117 16.1376H51.8099Z" fill="#505050"/>
<path d="M37.1489 18.8281H33.239C32.3678 18.8281 31.5178 18.4821 30.9016 17.8549C30.2853 17.2277 29.9453 16.3627 29.9453 15.4761C29.9453 14.5894 30.2853 13.7244 30.9016 13.0972C31.5178 12.4701 32.3678 12.124 33.239 12.124H37.1277V14.0488H33.6002C33.4303 14.0488 33.2603 14.092 33.0903 14.1569C32.9202 14.2218 32.7715 14.3299 32.6653 14.4597C32.5378 14.5894 32.4528 14.7408 32.3678 14.8922C32.304 15.0652 32.2615 15.2382 32.2615 15.4112C32.2615 15.8004 32.4103 16.1681 32.6865 16.4493C32.9628 16.7304 33.324 16.8818 33.7065 16.8818H37.1277V18.8281H37.1489Z" fill="#505050"/>
<path d="M104.755 15.1095L107.373 11.9814H109.992L107.287 15.1751L110.313 18.8281H107.695L104.755 15.3063V18.8281H102.545V11.9814H104.755V15.1095Z" fill="#505050"/>
<path d="M40.4836 15.1095L43.0946 11.9814H45.7055L43.0303 15.1751L46.0479 18.8281H43.4155L40.4836 15.3063V18.8281H38.2793V11.9814H40.4836V15.1095Z" fill="#505050"/>
<path d="M63.4205 11.9814V18.8281H61.1821V16.6407H58.0529V18.8281H55.793V11.9814H58.0529V14.3876H61.1821V11.9814H63.4205Z" fill="#505050"/>
<path d="M92.5163 12.0032V18.8281H90.2716V14.2491H87.1333V18.8281H84.8887V11.9814H92.5163V12.0032Z" fill="#505050"/>
<path d="M113.513 15.1095L116.131 11.9814H118.75L116.045 15.1751L119.071 18.8281H116.453L113.513 15.3063V18.8281H111.303V11.9814H113.513V15.1095Z" fill="#505050"/>
<path d="M73.694 16.9802V12.124H66.593L65.6755 16.9802H64.6924V18.9707H74.7209V16.9802H73.694ZM71.5964 16.9802H67.8382L68.3411 14.049H71.5964V16.9802Z" fill="#505050"/>
<path d="M78.0539 15.6782V11.9814H75.8506V18.8281H78.0539L81.1341 15.1314V18.8281H83.3368V11.9814H81.091L78.0539 15.6782Z" fill="#505050"/>
</g>
<defs>
<clipPath id="clip0_506_10101">
<rect width="119.455" height="24" fill="white"/>
</clipPath>
</defs>
</svg>
