<svg width="126" height="37" viewBox="0 0 126 37" fill="none" xmlns="http://www.w3.org/2000/svg">
<path d="M49.6788 32L48.7554 29.2317H45.1175L44.1798 32H43L46.2548 23H47.7752L51 32H49.6788ZM46.9652 23.9449L45.4296 28.3527H48.4565L46.9652 23.9449Z" fill="#505050"/>
<path d="M56.8447 32H52V23H53.1623V31.0952H57L56.8447 32Z" fill="#505050"/>
<path d="M63.6779 32L62.7546 29.2317H59.1172L58.1796 32H57L60.2534 23H61.7737L65 32H63.6779ZM60.9638 23.9449L59.4293 28.3527H62.4559L60.9638 23.9449Z" fill="#505050"/>
<path d="M69.5692 31.7379C69.0759 31.9213 68.7282 32 67.3651 32H65V23H66.3228C68.1403 23 68.5812 23.0392 69.0485 23.1976C69.9841 23.5121 70.6123 24.3386 70.6123 25.2563C70.6123 26.188 70.011 26.8962 68.9688 27.2244C69.5293 27.3295 69.8645 27.4611 70.1715 27.6964C70.7728 28.1429 71 28.878 71 29.5339C71 30.5175 70.4649 31.3965 69.5692 31.7379ZM68.354 23.9841C68.1004 23.9185 67.819 23.9058 67.3516 23.9058H66.0548V26.8708H67.6461C68.6346 26.8708 68.9818 26.7001 69.2488 26.0965C69.3429 25.8867 69.3963 25.65 69.3963 25.401C69.3963 24.6927 68.9818 24.1416 68.354 23.9841ZM68.7407 27.8539C68.4871 27.8016 68.1268 27.7624 67.672 27.7624H66.0548V31.1211H68.0063C69.3564 31.1211 69.8511 30.5175 69.8511 29.4415C69.8511 28.655 69.3963 27.9854 68.7407 27.8539Z" fill="#505050"/>
<path d="M77.3138 31.3169C76.7597 31.7808 76.0341 32 74.9403 32C73.5422 32 72.7512 31.601 72.2635 30.7237C72.0256 30.2983 72 29.7311 72 29.3441V23H73.0678V28.9572C73.0678 29.3956 73.1071 29.9629 73.2256 30.2335C73.3972 30.6204 73.8853 31.0977 74.9933 31.0977C75.7445 31.0977 76.3114 30.9036 76.5891 30.543C76.8911 30.1436 76.9313 29.7566 76.9313 29.1635V23H78V29.2927C78 30.3627 77.8545 30.8651 77.3138 31.3169Z" fill="#505050"/>
<path d="M83.2374 32C82.0064 32 80.961 31.6178 80.2171 30.902C79.3868 30.0977 79 29.013 79 27.5067C79 25.8338 79.5016 24.6468 80.5176 23.8296C81.2193 23.268 82.064 23 83.0795 23C84.1249 23 85.0272 23.2941 85.7711 23.8686L85.2412 24.5188C84.4402 24.0346 83.8671 23.8425 83.1083 23.8425C81.9632 23.8425 81.0609 24.3146 80.6606 25.3235C80.4034 25.9746 80.2742 26.7143 80.2742 27.5448C80.2742 28.6937 80.5176 29.6256 80.961 30.2C81.4045 30.7749 82.4071 31.1324 83.3372 31.1324C83.952 31.1324 84.4829 31.0172 84.898 30.7873V28.1192H82.9221L82.6932 27.2506H86V31.3365C85.2983 31.7449 84.2396 32 83.2374 32Z" fill="#505050"/>
<path d="M92.6782 32L91.7549 29.2317H88.1179L87.1805 32H86L89.254 23H90.7741L94 32H92.6782ZM89.9643 23.9449L88.4299 28.3527H91.4563L89.9643 23.9449Z" fill="#505050"/>
<path d="M72.7685 6.26365L71.5111 8.06872C70.3896 7.42998 69.3608 7.1122 68.4201 7.1122C67.8728 7.1122 67.4264 7.25101 67.0838 7.52726C66.7401 7.79196 66.5676 8.13557 66.5676 8.55618C66.5676 8.88132 66.6773 9.13956 66.8931 9.33237C67.1096 9.51359 67.4912 9.67637 68.0376 9.82073L69.6396 10.2349C71.8795 10.8132 73 12.058 73 13.9724C73 15.2475 72.4951 16.27 71.4902 17.0411C70.9199 17.4833 70.24 17.7997 69.4509 17.9888C69.5494 18.1723 69.5977 18.3794 69.5977 18.6077C69.5977 18.9804 69.4509 19.3064 69.158 19.5831C68.8783 19.8603 68.5342 20 68.1272 20C67.7339 20 67.3884 19.8603 67.095 19.5831C66.8152 19.3064 66.6743 18.9804 66.6743 18.6077C66.6743 18.4519 66.7011 18.3047 66.7504 18.1664C65.4237 18.0635 64.1755 17.696 63 17.0591L63.9928 15.0921C65.3541 15.7659 66.5675 16.1026 67.6369 16.1026C69.1882 16.1026 69.9651 15.5316 69.9651 14.3874C69.9651 13.6048 69.3856 13.0633 68.2281 12.7627L66.7591 12.384C65.4875 12.058 64.6161 11.5294 64.1463 10.7952C63.7778 10.2169 63.5922 9.57909 63.5922 8.88134C63.5922 7.73805 64.0318 6.80504 64.9095 6.08331C65.7995 5.36109 66.9439 5 68.3431 5C70.0592 5 71.5359 5.42059 72.7685 6.26365Z" fill="#505050"/>
<path fill-rule="evenodd" clip-rule="evenodd" d="M74 5H76.6573V10.9296L80.3393 5H83.5342L79.4082 11.0234L84 18H80.58L76.6573 11.2107V18H74V5Z" fill="#505050"/>
<path fill-rule="evenodd" clip-rule="evenodd" d="M85 5H87.5751V13.391C87.5751 14.1256 87.6469 14.6331 87.7903 14.9146C88.0906 15.5028 88.6599 15.7959 89.5014 15.7959C90.6529 15.7959 91.2879 15.3001 91.4092 14.3099C91.4313 14.1129 91.4451 13.7335 91.4451 13.1701V5H94V13.5923C94 14.5233 93.9347 15.1904 93.8018 15.5942C93.5977 16.2181 93.1847 16.7439 92.5603 17.1726C91.7808 17.7233 90.7784 18 89.5552 18C88.5592 18 87.6952 17.8204 86.9636 17.4676C86.2421 17.1121 85.7192 16.6332 85.3977 16.0337C85.1329 15.5576 85 14.8404 85 13.8873V5Z" fill="#505050"/>
<path fill-rule="evenodd" clip-rule="evenodd" d="M96 5H98.8873L101.368 10.1999C101.988 11.5103 102.461 12.7375 102.784 13.8849C102.659 12.5138 102.591 11.3225 102.577 10.3117L102.522 5H105V18H102.279L100.063 13.0252C99.1057 10.868 98.5223 9.44582 98.3109 8.75956C98.3723 9.49602 98.4161 10.7246 98.4423 12.4455L98.5165 18H96V5Z" fill="#505050"/>
<path fill-rule="evenodd" clip-rule="evenodd" d="M111.519 5.04446C113.218 5.04446 114.555 5.61753 115.533 6.7655C116.511 7.90005 117 9.45909 117 11.4408C117 14.3996 116.052 16.3924 114.158 17.4196C113.438 17.8056 112.586 18 111.61 18C109.776 18 108.395 17.407 107.466 16.2225C106.489 14.9792 106 13.4215 106 11.5481C106 10.184 106.25 8.9879 106.751 7.96072C107.251 6.92289 107.961 6.15639 108.879 5.66014C109.635 5.24955 110.517 5.04446 111.519 5.04446ZM111.481 7.00068C110.564 7.00068 109.904 7.36956 109.501 8.1065C109.073 8.89112 108.86 10.0396 108.86 11.5481C108.86 13.7238 109.238 15.0815 109.997 15.6258C110.399 15.9151 110.907 16.0605 111.519 16.0605C112.41 16.0605 113.051 15.7045 113.442 14.9912C113.846 14.2788 114.047 13.1197 114.047 11.513C114.047 10.2682 113.936 9.29618 113.719 8.59534C113.594 8.19679 113.368 7.8524 113.041 7.56309C112.612 7.18767 112.09 7.00068 111.481 7.00068ZM109.666 2C110.044 2 110.37 2.13843 110.638 2.41615C110.907 2.68282 111.04 3.0091 111.04 3.39611C111.04 3.76966 110.9 4.09597 110.619 4.37324C110.35 4.65195 110.019 4.79037 109.63 4.79037C109.25 4.79037 108.921 4.65195 108.64 4.37324C108.372 4.09597 108.236 3.76966 108.236 3.39611C108.236 3.02069 108.376 2.69436 108.657 2.41615C108.939 2.13843 109.276 2 109.666 2ZM114.91 3.39611C114.91 3.76966 114.77 4.09597 114.488 4.37324C114.218 4.65195 113.89 4.79037 113.497 4.79037C113.12 4.79037 112.788 4.6575 112.507 4.39226C112.239 4.11404 112.105 3.78124 112.105 3.39611C112.105 3.0091 112.245 2.68282 112.527 2.41615C112.807 2.13843 113.143 2 113.535 2C113.913 2 114.236 2.13843 114.506 2.41615C114.775 2.68282 114.91 3.0091 114.91 3.39611Z" fill="#505050"/>
<path fill-rule="evenodd" clip-rule="evenodd" d="M117.863 5H125.829V6.89004L120.887 15.0257C120.709 15.3129 120.479 15.6192 120.198 15.9428C120.745 15.8935 121.187 15.8682 121.519 15.8682H126L125.31 18H117V16.1678L121.901 8.25495C122.133 7.88025 122.407 7.48744 122.725 7.07597C122.316 7.13856 121.864 7.17011 121.365 7.17011H117.267L117.863 5Z" fill="#505050"/>
<path fill-rule="evenodd" clip-rule="evenodd" d="M51.731 5.99066L50.6078 7.70108C49.9882 7.23249 49.3271 6.99794 48.6245 6.99794C47.7077 6.99794 47.0113 7.35247 46.5355 8.06052C46.0588 8.76996 45.821 9.84914 45.821 11.3021C45.821 12.8984 45.9934 14.0153 46.3386 14.6515C46.8514 15.5878 47.6493 16.0564 48.7318 16.0564C49.4816 16.0564 50.1899 15.7864 50.8564 15.2459L52 16.8305C51.0582 17.6087 49.9098 18 48.5532 18C46.8625 18 45.5122 17.4307 44.5005 16.2918C43.4994 15.1376 43 13.6375 43 11.7891C43 10.2517 43.2794 8.95593 43.8389 7.89834C44.3156 6.98582 44.9754 6.27868 45.821 5.77414C46.666 5.25787 47.5891 5 48.5879 5C49.9342 5 50.9816 5.32976 51.731 5.99066Z" fill="#505050"/>
<path fill-rule="evenodd" clip-rule="evenodd" d="M57.5181 5C59.2183 5 60.5557 5.57567 61.5336 6.72752C62.512 7.86713 63 9.43038 63 11.4183C63 14.3884 62.0527 16.3881 60.1591 17.4188C59.4378 17.8067 58.5884 18 57.611 18C55.7764 18 54.3959 17.407 53.4678 16.2171C52.4895 14.9704 52 13.4076 52 11.5277C52 10.1576 52.2512 8.95766 52.7529 7.92652C53.2542 6.8845 53.9619 6.11462 54.8794 5.6174C55.6369 5.20549 56.5178 5 57.5181 5ZM57.4834 6.96345C56.5658 6.96345 55.9048 7.33359 55.5027 8.07261C55.0737 8.8606 54.8606 10.0125 54.8606 11.5277C54.8606 13.7097 55.2402 15.0725 55.9968 15.6183C56.4016 15.9091 56.907 16.0552 57.5181 16.0552C58.4114 16.0552 59.0531 15.6972 59.4432 14.9813C59.8481 14.2673 60.048 13.1028 60.048 11.4918C60.048 10.242 59.9382 9.26619 59.7196 8.56348C59.597 8.16376 59.3701 7.81767 59.0404 7.52686C58.6127 7.15126 58.0935 6.96345 57.4834 6.96345Z" fill="#505050"/>
<path d="M2.66169 22.0947C1.22644 23.0702 0.895465 24.3786 1.50756 25.795C4.92858 33.5735 11.7818 35.8485 13.8007 36.3607C19.5567 37.8194 25.0824 36.8151 29.941 33.0045C33.0558 30.5624 29.8521 26.2769 22.5825 23.2906C18.2655 21.5164 13.4595 20.5899 9.49073 20.5899C6.60018 20.5899 4.15384 21.0811 2.66169 22.0947ZM35.4906 11.2104C35.4813 11.188 35.471 11.1657 35.4612 11.1434C35.471 11.1657 35.4808 11.188 35.4906 11.2104ZM3.71185 8.04871C3.11521 8.4534 2.68215 8.90739 2.40293 9.39996C1.55923 10.9094 1.01196 12.271 0.571011 13.9548C0.570515 13.9558 0.570096 13.9562 0.570096 13.9567C0.180862 15.5317 0.00608177 16.9058 0 18.4855V18.6701C0 18.7074 0.00041953 18.7446 0.000915081 18.7822C-0.000481473 17.7198 0.54302 16.756 1.69297 15.975C5.8333 13.1631 16.2624 13.7888 24.9869 17.3728C32.4224 20.428 36.2205 24.6456 34.6184 27.5645C35.4495 26.0723 35.9912 24.7187 36.4299 23.0487C36.4303 23.0455 36.4303 23.0422 36.4312 23.0385C36.8475 21.3537 37.0177 19.8968 36.9986 18.1701C36.9501 15.4173 33.268 12.0203 27.0057 9.44695C21.9569 7.37282 16.3375 6.28943 11.6966 6.28943C8.31695 6.28988 5.45624 6.86393 3.71185 8.04871ZM8.08249 3.25333C7.82192 3.43148 7.56642 3.61754 7.31847 3.81242C10.8584 1.4085 19.7768 1.94297 27.2379 5.00885C31.6243 6.81087 34.5303 9.08555 35.4612 11.1434C32.2639 3.95107 26.2208 1.51827 23.7646 0.806097C21.9313 0.273517 20.1044 0 18.3 0C14.7675 0 11.3222 1.04847 8.08249 3.25333Z" fill="#505050"/>
</svg>
