<svg width="126" height="29" viewBox="0 0 126 29" fill="none" xmlns="http://www.w3.org/2000/svg">
<g clip-path="url(#clip0_506_280)">
<mask id="mask0_506_280" style="mask-type:luminance" maskUnits="userSpaceOnUse" x="0" y="0" width="126" height="29">
<path d="M126 0H0V29H126V0Z" fill="white"/>
</mask>
<g mask="url(#mask0_506_280)">
<path d="M50.5 10.4762C50.5 10.4762 50.5 10.9938 50.5 11.4286C50.6384 11.1677 51.7001 10 53.5 10H54V12.381H53.5C51.8847 12.381 51 13.3705 51 14.7619V20H48V10.4762H50.5Z" fill="#505050"/>
<path d="M79 15.3103C79 13.78 78.0646 12.4138 76.5 12.4138C74.9795 12.4138 73.5 13.8249 73.5 15.3103C73.4552 16.8407 74.8899 18.2069 76.5 18.2069H79V15.3103ZM79.5 11.4483V10.4828H82V24H79V20.6207H76.5C73.5492 20.6207 71 18.1915 71 15.3103C71 12.3392 73.3165 10 76 10C78.2357 9.9998 79.5 11.4483 79.5 11.4483Z" fill="#505050"/>
<path d="M45 10.7143V20H42V10.7143H45ZM45 7V9.32143H42V7H45Z" fill="#505050"/>
<path d="M33.7143 9.32143C32.0475 9.32143 30.8571 10.498 30.8571 12.1071V13.5H35.1429V9.32143H33.7143ZM35.1429 20V15.8214H30.8571V20H28V12.5714C28 9.56498 30.5893 7 33.7143 7H38V20H35.1429Z" fill="#505050"/>
<path d="M69 7V9.32143H66V7H69ZM69 10.7143V20H66V10.7143H69Z" fill="#505050"/>
<path d="M100 7V9.32143H97V7H100ZM100 10.7143V20H97V10.7143H100Z" fill="#505050"/>
<path d="M85 11H88V16.2381C88 17.71 88.8985 18.619 90 18.619C91.0574 18.619 92 17.7966 92 16.2381V11H95V20.5238H92.5V19.5714C91.708 20.481 90.3214 21 89 21C86.8852 21 85 19.1819 85 16.7143V11Z" fill="#505050"/>
<path d="M60.7692 7V17.6786H64V20H58V7H60.7692Z" fill="#505050"/>
<path d="M110 15.6897C110 17.2053 109.065 18.5862 107.5 18.5862C105.979 18.5862 104.545 17.1612 104.5 15.6897C104.455 14.174 105.89 13.2759 107.5 13.2759H110V15.6897ZM110.5 19.5517V20.5172H113V7H110V10.8621H107.5C104.548 10.8621 102 12.8363 102 15.6897C102 18.6324 104.317 21 107 21C109.191 20.9997 110.5 19.5517 110.5 19.5517Z" fill="#505050"/>
<path d="M117.496 14.5H123.485C123.088 13.2058 121.901 12.5 120.49 12.5C119.079 12.5 117.936 13.2519 117.496 14.5ZM120.49 21C117.403 21 115 18.5505 115 15.5C115 12.4495 117.403 10 120.49 10C123.577 10 125.98 12.4495 125.98 15.5C125.98 15.7771 126.025 16.1763 125.98 16.5H117.496C117.892 17.7941 119.079 18.5 120.49 18.5C121.812 18.5 122.824 18.3317 123.485 17.5L125.481 18.5C124.423 19.8866 122.518 21 120.49 21Z" fill="#505050"/>
<path d="M12 0H0V12C0 18.642 5.35798 24 12 24C18.642 24 24 18.6418 24 12C24 5.40213 18.642 0 12 0ZM20.5 20.64H12C7.30635 20.64 3.5 16.6939 3.5 12C3.5 7.30642 7.30615 3.36 12 3.36C16.6939 3.36 20.5 7.30642 20.5 12V20.64ZM12 6.72C14.7896 6.72 17 9.16597 17 12V17.28H12C9.21039 17.28 7 14.834 7 12C7 9.25451 9.21039 6.72 12 6.72Z" fill="#505050"/>
</g>
</g>
<defs>
<clipPath id="clip0_506_280">
<rect width="126" height="29" fill="white"/>
</clipPath>
</defs>
</svg>
