<svg width="175" height="38" viewBox="0 0 175 38" fill="none" xmlns="http://www.w3.org/2000/svg">
<path fill-rule="evenodd" clip-rule="evenodd" d="M77.8684 2.27021V26.8134H72.1037V2.27021H77.8684Z" fill="#2A2929"/>
<path fill-rule="evenodd" clip-rule="evenodd" d="M107.719 14.7731C106.125 14.7731 104.938 15.7572 104.429 16.8089L104.429 20.5389C104.938 21.5898 106.125 22.5739 107.719 22.5739C110.161 22.5731 111.212 20.5723 111.212 18.6734C111.212 16.7745 110.161 14.7734 107.719 14.7731ZM104.429 2.27021V11.8565C105.413 10.8395 107.007 10.0257 109.279 10.0257C114.74 10.0254 117.147 14.4681 117.147 18.6734C117.147 22.879 114.74 27.3216 109.279 27.3216C106.363 27.3216 104.565 25.9654 103.751 24.6087V26.8134H98.6642V2.27021H104.429Z" fill="#2A2929"/>
<path fill-rule="evenodd" clip-rule="evenodd" d="M135.383 10.5336V26.8133H130.296V24.9479C128.939 26.4056 127.277 27.3216 125.107 27.3216C120.63 27.3216 118.595 24.3033 118.595 20.6401V10.5336H124.36V19.8606C124.36 21.5898 125.412 22.4041 126.836 22.4041C128.125 22.4041 129.108 21.6237 129.618 20.9798V10.5336H135.383Z" fill="#2A2929"/>
<path fill-rule="evenodd" clip-rule="evenodd" d="M146.393 14.773C143.951 14.773 142.9 16.7748 142.9 18.6732C142.9 20.5721 143.951 22.5737 146.393 22.5737C147.987 22.573 149.174 21.5899 149.682 20.539V16.8085C149.174 15.7568 147.987 14.7732 146.393 14.773ZM144.833 10.0253C147.75 10.0253 149.547 11.3817 150.361 12.7385L150.361 10.5335H155.448V26.134C155.448 32.646 150.734 34.7822 145.816 34.7822C143.205 34.7822 140.763 34.2066 138.796 33.2562L140.147 29.0366C141.647 29.6819 143.361 30.0347 145.037 30.0347C147.648 30.0342 149.682 29.2545 149.682 26.474V25.4906C148.699 26.5074 147.105 27.3215 144.833 27.3215C139.373 27.3215 136.965 22.8791 136.965 18.6732C136.965 14.4674 139.373 10.0255 144.833 10.0253Z" fill="#2A2929"/>
<path fill-rule="evenodd" clip-rule="evenodd" d="M60.6399 23.4717C61.5896 23.4717 62.4375 23.2688 63.3197 22.6239V20.4199C62.8107 20.2499 62.031 20.1143 61.2508 20.1143C59.8941 20.1141 58.6734 20.5892 58.6734 21.8784C58.6734 22.7259 59.4197 23.4719 60.6399 23.4717ZM70.2039 23.2346L70.8485 26.6934C70.0683 26.9993 69.0169 27.2029 67.9316 27.2029C66.1344 27.2022 64.8118 26.5583 64.0653 25.4057C62.5056 26.6256 60.7081 27.3724 58.402 27.3724C55.2817 27.3719 52.7382 25.5067 52.7382 22.353C52.7382 18.2496 56.6382 16.9947 59.7924 16.9947C61.0135 16.9945 62.2344 17.1304 63.3197 17.3677V16.7906C63.3197 15.638 62.2344 14.7561 59.928 14.7561C58.21 14.7559 56.6019 15.1508 55.209 15.6407L54.2303 11.1607C55.5873 10.7203 58.1647 10.076 60.5721 10.076C65.7615 10.0757 69.0847 11.8731 69.0847 17.6728V22.2171C69.0847 22.997 69.6276 23.2349 70.2039 23.2346Z" fill="#2A2929"/>
<path fill-rule="evenodd" clip-rule="evenodd" d="M87.2357 23.4717C88.1854 23.4717 89.0334 23.2688 89.9153 22.6239L89.9156 20.4199C89.4063 20.2499 88.6266 20.1143 87.8464 20.1143C86.4899 20.1141 85.269 20.5892 85.269 21.8784C85.269 22.7259 86.0153 23.4719 87.2357 23.4717ZM96.7997 23.2346L97.4443 26.6934C96.6642 26.9993 95.6125 27.2029 94.5279 27.2029C92.7302 27.2022 91.4074 26.5583 90.6611 25.4057C89.1014 26.6256 87.304 27.3724 84.9978 27.3724C81.8775 27.3719 79.3338 25.5067 79.3338 22.353C79.3338 18.2496 83.2338 16.9947 86.3882 16.9947C87.6094 16.9945 88.83 17.1304 89.9153 17.3677L89.9156 16.7906C89.9156 15.638 88.83 14.7561 86.5238 14.7561C84.806 14.7559 83.1982 15.1508 81.8046 15.6407L80.8266 11.1607C82.1831 10.7203 84.7605 10.076 87.1677 10.076C92.3573 10.0757 95.6803 11.8731 95.6803 17.6728V22.2171C95.6803 22.997 96.2234 23.2349 96.7997 23.2346Z" fill="#2A2929"/>
<path fill-rule="evenodd" clip-rule="evenodd" d="M164.795 23.4717C165.745 23.4717 166.593 23.2688 167.475 22.6239V20.4199C166.966 20.2499 166.186 20.1143 165.406 20.1143C164.049 20.1141 162.828 20.5892 162.828 21.8784C162.829 22.7259 163.575 23.4719 164.795 23.4717ZM174.359 23.2346L175.004 26.6934C174.224 26.9993 173.172 27.2029 172.087 27.2029C170.289 27.2022 168.967 26.5583 168.221 25.4057C166.661 26.6256 164.864 27.3724 162.557 27.3724C159.437 27.3719 156.893 25.5067 156.893 22.353C156.893 18.2496 160.793 16.9947 163.948 16.9947C165.169 16.9945 166.389 17.1304 167.475 17.3677V16.7906C167.475 15.638 166.389 14.7561 164.083 14.7561C162.365 14.7559 160.757 15.1508 159.364 15.6407L158.386 11.1607C159.743 10.7203 162.32 10.076 164.727 10.076C169.917 10.0757 173.24 11.8731 173.24 17.6728V22.2171C173.24 22.997 173.783 23.2349 174.359 23.2346Z" fill="#2A2929"/>
<path fill-rule="evenodd" clip-rule="evenodd" d="M12.5853 6.02048C12.6889 6.07908 12.7923 6.13769 12.8972 6.19798C12.9577 6.23261 13.0185 6.26819 13.0795 6.3033C13.2885 6.42607 13.4999 6.55055 13.712 6.67816C13.7556 6.70528 13.8001 6.73191 13.8452 6.75879C13.9437 6.8186 14.0435 6.88107 14.1421 6.94258C14.2154 6.98713 14.2888 7.03335 14.3622 7.07888C14.4583 7.13941 14.5556 7.20069 14.6518 7.26219C14.7295 7.31207 14.807 7.36223 14.8852 7.41211C14.9796 7.47313 15.074 7.53438 15.1687 7.59637C15.2552 7.65279 15.3407 7.70995 15.4278 7.76734C15.5722 7.86395 15.7174 7.96129 15.8627 8.06009C15.9639 8.12813 16.0656 8.1976 16.1673 8.26686C16.2543 8.32715 16.3417 8.38891 16.4293 8.44993C16.5199 8.51337 16.6105 8.57634 16.701 8.64124C16.7892 8.70274 16.8768 8.76568 16.9642 8.82791C17.058 8.89522 17.1526 8.96402 17.2471 9.03278C17.3301 9.09284 17.4141 9.15313 17.4972 9.21439C17.6219 9.30544 17.7469 9.39865 17.8716 9.49163C17.9713 9.56621 18.0711 9.64082 18.1709 9.71661C18.2931 9.80887 18.415 9.90134 18.537 9.99602C18.6155 10.0549 18.6937 10.1164 18.7719 10.1769C18.876 10.2583 18.9808 10.3389 19.085 10.422C19.1639 10.4839 19.2433 10.5459 19.3223 10.6089C19.4332 10.6963 19.5441 10.7854 19.655 10.8753C19.7259 10.9314 19.7954 10.9881 19.8663 11.0452C20.0087 11.1607 20.1516 11.2777 20.294 11.3961C20.4359 11.2789 20.5775 11.1632 20.718 11.0486C20.794 10.9874 20.8686 10.9271 20.9437 10.8675C21.05 10.7813 21.1558 10.6966 21.2619 10.6128C21.3444 10.5472 21.4262 10.4823 21.5091 10.4176C21.6093 10.3389 21.7091 10.2609 21.8091 10.1832C21.8909 10.1195 21.9735 10.0548 22.0556 9.99285C22.1689 9.9052 22.2825 9.81951 22.3958 9.73307C22.5123 9.64493 22.6292 9.55752 22.7459 9.47059C22.8593 9.38559 22.9738 9.30058 23.0879 9.21704C23.1748 9.15287 23.2622 9.08993 23.3491 9.02673C23.4397 8.96087 23.5298 8.89644 23.6199 8.83178C23.7109 8.76616 23.8017 8.70177 23.892 8.63736C23.9792 8.5761 24.0654 8.51604 24.1516 8.45575C24.2429 8.39231 24.3342 8.32839 24.4245 8.26567C24.5153 8.20272 24.6052 8.1412 24.6964 8.08042C24.858 7.96976 25.0188 7.86225 25.1798 7.75547C25.2587 7.70292 25.3374 7.65012 25.4164 7.59855C25.5149 7.53413 25.6122 7.47067 25.7098 7.40771C25.7844 7.36025 25.8582 7.31234 25.9321 7.26536C26.0321 7.20216 26.1314 7.13919 26.2304 7.07623C26.3002 7.03289 26.3685 6.99002 26.4375 6.9474C26.5411 6.8842 26.644 6.82005 26.7464 6.75709C26.7736 6.74087 26.8 6.72488 26.8271 6.7089C27.0588 6.56797 27.2898 6.4309 27.5198 6.29772C27.5765 6.26455 27.6332 6.23185 27.6894 6.19916C27.7961 6.1379 27.9019 6.07788 28.0085 6.01807C28.0584 5.98974 28.109 5.96166 28.1601 5.93309C25.4914 3.57338 22.8363 1.58048 20.294 0C17.7524 1.58048 15.098 3.57362 12.4281 5.93309C12.4804 5.9619 12.533 5.99143 12.5853 6.02048Z" fill="#35388A"/>
<path fill-rule="evenodd" clip-rule="evenodd" d="M34.598 12.7215C34.4896 12.7804 34.3798 12.8414 34.2701 12.9024C34.214 12.9334 34.158 12.9651 34.1011 12.9966C33.9934 13.0574 33.8849 13.1184 33.7769 13.1808C33.7234 13.2116 33.6692 13.2431 33.6156 13.2746C33.3747 13.4143 33.1323 13.5579 32.8897 13.7056C32.8722 13.7157 32.8551 13.7262 32.8371 13.7366C32.733 13.8003 32.6282 13.8654 32.524 13.9296C32.4565 13.9714 32.3884 14.0133 32.3213 14.056C32.2209 14.1187 32.1204 14.1824 32.0199 14.247C31.947 14.293 31.8743 14.34 31.8005 14.3877C31.7019 14.4509 31.6034 14.5153 31.5049 14.5797C31.4283 14.6296 31.3511 14.6817 31.2741 14.7325C31.1084 14.842 30.9421 14.9546 30.775 15.0679C30.6888 15.1263 30.6017 15.1851 30.5157 15.2447C30.4232 15.3081 30.3307 15.3732 30.2382 15.4379C30.1532 15.4977 30.0679 15.5575 29.9825 15.6171C29.8912 15.6813 29.7994 15.7471 29.7081 15.8125C29.6188 15.8767 29.5294 15.9413 29.4401 16.0059C29.3527 16.0694 29.2643 16.1331 29.1764 16.198C29.0628 16.2813 28.9488 16.366 28.8347 16.451C28.719 16.5377 28.6025 16.6247 28.4853 16.7133C28.372 16.7997 28.2587 16.8857 28.1446 16.9729C28.0625 17.0356 27.9806 17.1 27.8981 17.1641C27.7983 17.2416 27.6983 17.3186 27.5983 17.3973C27.516 17.462 27.4327 17.5281 27.3501 17.5935C27.2688 17.6584 27.1855 17.7252 27.1036 17.7911C27.2719 17.9688 27.4395 18.1485 27.6083 18.3296C27.6603 18.386 27.7131 18.4429 27.7657 18.4998C27.8962 18.641 28.0274 18.7839 28.1581 18.9274C28.2204 18.995 28.2831 19.064 28.3449 19.1326C28.4725 19.2735 28.6006 19.4161 28.7282 19.559C28.7844 19.6212 28.8396 19.6829 28.8953 19.7452C29.0759 19.9493 29.2563 20.1532 29.4369 20.3597C29.6164 20.5661 29.7948 20.7726 29.9718 20.9792C30.0268 21.0436 30.0815 21.1082 30.1365 21.1724C30.2602 21.3187 30.3837 21.4639 30.5062 21.6094C30.5668 21.6816 30.6263 21.7538 30.6869 21.826C30.8113 21.9739 30.9346 22.1233 31.0571 22.2725C31.1077 22.3337 31.1588 22.3952 31.2087 22.4565C31.3789 22.6638 31.548 22.8715 31.715 23.0802C31.7395 23.11 31.763 23.1401 31.7864 23.1696C31.93 23.3486 32.0729 23.5282 32.2148 23.7079C32.27 23.7776 32.3243 23.8479 32.3792 23.9183C32.4916 24.0612 32.603 24.204 32.7134 24.3476C32.7713 24.4217 32.8284 24.4956 32.8853 24.5702C32.9568 24.6624 33.0277 24.7554 33.0984 24.8481C33.1023 24.845 33.1064 24.8423 33.11 24.8392C33.2224 24.7474 33.3357 24.6578 33.4481 24.5685C33.5256 24.5067 33.6033 24.4452 33.6815 24.3839C33.7875 24.3004 33.8934 24.2179 34.0001 24.135C34.0767 24.076 34.153 24.0164 34.2295 23.9578C34.3564 23.86 34.4827 23.7648 34.6091 23.6694C34.6997 23.6001 34.791 23.5316 34.8813 23.464C35.0121 23.3662 35.1436 23.2694 35.2733 23.174C35.3542 23.1144 35.4349 23.0558 35.5162 22.997C35.6131 22.9265 35.7105 22.857 35.8066 22.7875C35.8935 22.7257 35.979 22.6647 36.0642 22.6035C36.1579 22.5374 36.2502 22.473 36.3441 22.4076C36.4291 22.3485 36.5141 22.2882 36.5991 22.2296C36.7076 22.1548 36.8153 22.0821 36.9233 22.0087C37.0589 21.9167 37.1945 21.8259 37.3294 21.7359C37.4207 21.6751 37.5113 21.615 37.6023 21.556C37.6944 21.4952 37.7861 21.4358 37.8779 21.3765C37.9588 21.3242 38.0396 21.2724 38.1195 21.2213C38.2147 21.1608 38.3087 21.1009 38.4036 21.0421C38.4801 20.9937 38.5559 20.9465 38.6329 20.8988C38.729 20.8389 38.8254 20.7791 38.9215 20.7205C38.9811 20.6845 39.0404 20.6499 39.1002 20.6133C39.293 20.4971 39.486 20.3833 39.6775 20.2721C39.7436 20.2329 39.8095 20.1944 39.8749 20.1571C39.9766 20.098 40.0775 20.0418 40.178 19.9849C40.2429 19.9483 40.3076 19.912 40.373 19.8759C40.4439 19.836 40.5153 19.7963 40.586 19.7575C39.0465 17.6141 37.3558 15.4754 35.5274 13.3792C35.2968 13.1148 35.0659 12.8544 34.8341 12.5949C34.8014 12.6116 34.7692 12.6293 34.7365 12.6469C34.6905 12.6716 34.6443 12.6966 34.598 12.7215Z" fill="#00A0E3"/>
<path fill-rule="evenodd" clip-rule="evenodd" d="M20.3889 11.4739C20.4395 11.516 20.4901 11.5594 20.5409 11.6013C20.6736 11.7115 20.8056 11.8226 20.9376 11.9342C21.009 11.9943 21.0799 12.055 21.1501 12.1153C21.2659 12.2139 21.3812 12.3129 21.4969 12.4129C21.5679 12.4745 21.6393 12.5357 21.7095 12.5977C21.8366 12.7083 21.9635 12.8202 22.0904 12.9326C22.1473 12.9822 22.204 13.0321 22.2606 13.083C22.44 13.2425 22.6192 13.4036 22.7991 13.5668C22.8488 13.6118 22.8972 13.6568 22.9466 13.7016C23.0822 13.8246 23.2178 13.9498 23.3522 14.0748C23.4188 14.1363 23.4854 14.1978 23.5513 14.2593C23.6738 14.3734 23.7958 14.4888 23.9186 14.6048C23.9833 14.6663 24.0494 14.7278 24.1138 14.7893C24.2562 14.9252 24.398 15.0615 24.5409 15.1988C24.5823 15.2388 24.6235 15.2787 24.6649 15.3192C24.8472 15.4954 25.0291 15.6744 25.2117 15.8545C25.2608 15.9042 25.3107 15.9536 25.3608 16.0032C25.4957 16.1381 25.6313 16.273 25.7662 16.4095C25.8291 16.4732 25.8921 16.5367 25.9548 16.6006C26.0817 16.7297 26.2093 16.86 26.3362 16.9912C26.3955 17.0515 26.4546 17.1122 26.5137 17.1742C26.6728 17.3386 26.8319 17.5048 26.9914 17.6728C27.0156 17.6975 27.0389 17.7222 27.0624 17.7474C27.0764 17.7619 27.0902 17.7765 27.1043 17.7912C27.1861 17.7251 27.2689 17.6593 27.3508 17.5936C27.4333 17.5282 27.5166 17.4624 27.599 17.3975C27.699 17.3186 27.799 17.242 27.8987 17.1643C27.9813 17.1001 28.0632 17.036 28.1453 16.973C28.2593 16.8851 28.3726 16.7999 28.4859 16.7134C28.6031 16.6246 28.7196 16.5379 28.8354 16.4512C28.9494 16.3662 29.0635 16.2817 29.177 16.1982C29.2649 16.1333 29.3533 16.0696 29.4407 16.0061C29.5301 15.9415 29.6194 15.8768 29.7088 15.8127C29.8001 15.7473 29.8918 15.6822 29.9831 15.6173C30.0688 15.5572 30.1538 15.4979 30.2388 15.4381C30.3313 15.3732 30.4236 15.3083 30.5164 15.2448C30.6026 15.1853 30.6895 15.1264 30.7757 15.0681C30.9427 14.9548 31.1091 14.8424 31.2747 14.7327C31.3517 14.6818 31.429 14.6298 31.5055 14.5799C31.6041 14.5153 31.7024 14.4511 31.8011 14.3879C31.875 14.3399 31.9477 14.2932 32.0205 14.2472C32.121 14.1825 32.2215 14.1188 32.322 14.0561C32.3893 14.0135 32.4569 13.9718 32.5247 13.9297C32.6288 13.8648 32.7337 13.8004 32.8378 13.7368C32.8557 13.7263 32.8729 13.7159 32.8903 13.7057C33.1337 13.5578 33.3754 13.4145 33.6163 13.2747C33.6698 13.243 33.724 13.212 33.7776 13.181C33.8856 13.1185 33.994 13.0575 34.1018 12.9967C34.1587 12.965 34.2146 12.934 34.2708 12.9025C34.3805 12.8415 34.4898 12.7811 34.598 12.7215C34.6445 12.6963 34.6912 12.6718 34.7372 12.6471C34.7694 12.6294 34.8021 12.612 34.8348 12.595C32.6375 10.136 30.3934 7.90706 28.1601 5.93309C28.1095 5.96142 28.0576 5.9898 28.0077 6.01813C27.9011 6.0777 27.7951 6.1382 27.6886 6.19922C27.6324 6.23167 27.5757 6.26485 27.519 6.29778C27.289 6.43072 27.058 6.56802 26.8263 6.70895C26.7992 6.72493 26.7728 6.74116 26.7456 6.75715C26.6432 6.8201 26.5403 6.88426 26.4367 6.94746C26.3677 6.98983 26.2991 7.03343 26.2296 7.07629C26.1306 7.13924 26.0313 7.20221 25.9313 7.26541C25.8574 7.31215 25.7836 7.36031 25.709 7.40777C25.6117 7.47049 25.5141 7.53443 25.4156 7.5986C25.3366 7.64994 25.2579 7.70322 25.179 7.75552C25.018 7.86231 24.8572 7.96982 24.6956 8.08048C24.6044 8.14102 24.5145 8.20302 24.4237 8.26573C24.3334 8.3282 24.2421 8.39236 24.1508 8.45581C24.0646 8.51586 23.9784 8.57639 23.8912 8.63741C23.8009 8.70158 23.7101 8.76622 23.6191 8.83184C23.529 8.89625 23.4389 8.96092 23.3483 9.02679C23.2614 9.08974 23.174 9.15293 23.0871 9.2171C22.973 9.30064 22.8585 9.38565 22.7451 9.47064C22.6284 9.55757 22.5115 9.64522 22.395 9.73312C22.2817 9.81933 22.1681 9.90525 22.0548 9.99291C21.9729 10.0549 21.8901 10.1196 21.8083 10.1833C21.7083 10.261 21.6085 10.339 21.5083 10.4177C21.4254 10.4821 21.3436 10.5472 21.2611 10.6128C21.155 10.6964 21.0489 10.7816 20.9429 10.8676C20.8678 10.9271 20.7932 10.9877 20.7172 11.0487C20.5767 11.1632 20.4352 11.2792 20.294 11.3961C20.3255 11.4215 20.3574 11.4477 20.3889 11.4739Z" fill="#3769B0"/>
<path fill-rule="evenodd" clip-rule="evenodd" d="M0.408479 19.9849C0.509696 20.0416 0.610186 20.0985 0.711161 20.1571C0.777266 20.1944 0.844352 20.2336 0.910458 20.2721C1.09957 20.383 1.29062 20.4953 1.48168 20.6104C1.5427 20.6472 1.60348 20.6837 1.66522 20.7215C1.7616 20.7789 1.85747 20.8392 1.95239 20.8988C2.0294 20.946 2.10663 20.9939 2.1829 21.0421C2.2771 21.1007 2.37156 21.1608 2.46648 21.2208C2.54663 21.2722 2.62726 21.3242 2.70862 21.3765C2.80064 21.4358 2.89239 21.4956 2.98416 21.5552C3.07472 21.6148 3.16653 21.6753 3.25709 21.7363C3.3927 21.8267 3.5278 21.917 3.6634 22.0087C3.77139 22.0821 3.87913 22.155 3.98689 22.2296C4.07188 22.288 4.15761 22.348 4.24261 22.4076C4.33583 22.473 4.42883 22.5376 4.52254 22.6035C4.60826 22.6647 4.69396 22.7257 4.77944 22.7875C4.8763 22.8565 4.97367 22.9267 5.07101 22.9974C5.15189 23.0558 5.23252 23.1144 5.31316 23.174C5.44464 23.2696 5.57515 23.3674 5.70711 23.4657C5.79647 23.5326 5.88581 23.5999 5.97565 23.6677C6.10278 23.7631 6.23014 23.8602 6.35727 23.9583C6.43378 24.0161 6.50956 24.076 6.58584 24.135C6.6919 24.2179 6.79921 24.3004 6.90503 24.3839C6.983 24.4452 7.06117 24.507 7.13866 24.5685C7.2515 24.6578 7.36364 24.7477 7.47648 24.8392C7.48084 24.8423 7.48399 24.8452 7.48835 24.8481C7.55857 24.7559 7.62928 24.6639 7.70023 24.5714C7.75762 24.4963 7.81548 24.421 7.87408 24.3459C7.98377 24.2035 8.09465 24.0617 8.20604 23.9195C8.26173 23.8491 8.31648 23.7776 8.37265 23.7074C8.51262 23.5292 8.65379 23.3527 8.79617 23.1744C8.82136 23.1425 8.84652 23.111 8.8717 23.0793C9.03951 22.871 9.2071 22.6637 9.37709 22.457C9.42794 22.3952 9.47875 22.3337 9.53008 22.2712C9.65261 22.1233 9.77538 21.9746 9.89912 21.8267C9.95965 21.7538 10.0195 21.6819 10.0803 21.609C10.2033 21.4634 10.3258 21.3186 10.4498 21.1733C10.5038 21.1092 10.5595 21.0436 10.6147 20.9792C10.7917 20.7716 10.9704 20.5653 11.1498 20.3597C11.3297 20.1532 11.5104 19.9493 11.6903 19.7464C11.7469 19.6829 11.8031 19.62 11.8598 19.5573C11.9867 19.4146 12.1138 19.2745 12.2399 19.1343C12.3034 19.065 12.3663 18.995 12.4298 18.9257C12.5586 18.7843 12.6887 18.6434 12.8182 18.503C12.8717 18.4444 12.9255 18.386 12.9795 18.3284C13.1473 18.1472 13.3155 17.9688 13.4831 17.7911C13.3998 17.724 13.3161 17.6574 13.2335 17.5911C13.1529 17.5266 13.072 17.4635 12.9921 17.4005C12.8884 17.3194 12.786 17.2397 12.6831 17.16C12.6037 17.0973 12.524 17.0358 12.4438 16.9745C12.3257 16.8828 12.2061 16.7929 12.0872 16.7031C11.9811 16.6227 11.8758 16.5435 11.7692 16.4641C11.6484 16.3738 11.528 16.2844 11.4079 16.1965C11.3222 16.1336 11.2367 16.0721 11.1515 16.0096C11.0597 15.943 10.9672 15.8767 10.8755 15.8108C10.7861 15.7466 10.6968 15.683 10.6067 15.6195C10.5193 15.557 10.4304 15.4951 10.3425 15.4335C10.2529 15.3708 10.1631 15.3081 10.0737 15.2466C9.98002 15.1819 9.88629 15.1178 9.79185 15.0539C9.63543 14.9476 9.47949 14.8432 9.32355 14.7393C9.24219 14.686 9.16083 14.6316 9.07946 14.578C8.98285 14.5151 8.88601 14.4524 8.78988 14.3899C8.71409 14.3412 8.63951 14.2928 8.56372 14.2443C8.46517 14.1824 8.3666 14.1197 8.2678 14.0579C8.19758 14.0134 8.12782 13.9703 8.05711 13.9267C7.95541 13.8637 7.85302 13.7996 7.7506 13.7381C7.72251 13.7201 7.69342 13.7036 7.66509 13.6855C7.43505 13.546 7.206 13.4111 6.97838 13.2789C6.92196 13.2455 6.8643 13.2121 6.80788 13.1797C6.7011 13.1184 6.59529 13.0583 6.48851 12.9983C6.43063 12.9658 6.37205 12.9332 6.31418 12.9012C6.20643 12.8404 6.0984 12.7811 5.99064 12.7225C5.94246 12.6963 5.89383 12.6704 5.84564 12.6448C5.81489 12.6278 5.78361 12.6116 5.75261 12.5949C5.52088 12.8542 5.2899 13.115 5.05938 13.3792C3.22997 15.4754 1.54029 17.6141 0 19.7575C0.0716751 19.7956 0.142383 19.8365 0.213816 19.8759C0.278711 19.9115 0.344068 19.9486 0.408479 19.9849Z" fill="#00A0E3"/>
<path fill-rule="evenodd" clip-rule="evenodd" d="M26.2904 30.9017C26.235 30.8296 26.1788 30.7586 26.1226 30.6867C25.9834 30.5105 25.8429 30.3339 25.7018 30.1571C25.6754 30.1244 25.6494 30.092 25.6235 30.0593C25.4564 29.8521 25.2877 29.6443 25.1187 29.4377C25.0676 29.3758 25.0165 29.3133 24.9654 29.2518C24.8433 29.1033 24.7206 28.9546 24.5966 28.8067C24.5356 28.7345 24.476 28.6619 24.4155 28.5898C24.293 28.4445 24.1695 28.2992 24.0465 28.1534C23.9915 28.0887 23.936 28.0241 23.8811 27.9594C23.7043 27.7529 23.5256 27.5466 23.3462 27.3403C23.1658 27.133 22.9852 26.9294 22.805 26.726C22.7491 26.6635 22.6928 26.601 22.6369 26.5381C22.5098 26.3962 22.3822 26.2545 22.2548 26.1133C22.1919 26.0443 22.1296 25.9758 22.0674 25.9068C21.9374 25.7646 21.8066 25.6227 21.6761 25.4818C21.6223 25.4237 21.5693 25.3665 21.5163 25.3094C21.3352 25.1133 21.1535 24.9198 20.9717 24.728C20.947 24.7019 20.9216 24.6764 20.8969 24.65C20.74 24.4839 20.5821 24.3195 20.4237 24.1553C20.3799 24.1103 20.3368 24.0657 20.2922 24.0207C20.2486 24.066 20.2043 24.1113 20.1605 24.1568C20.0053 24.3176 19.8493 24.4796 19.6946 24.6435C19.667 24.6718 19.6396 24.7002 19.6125 24.7295C19.4314 24.92 19.2507 25.1132 19.0696 25.3084C19.0154 25.3663 18.9619 25.4251 18.9069 25.4837C18.7774 25.6239 18.648 25.7649 18.5185 25.9068C18.4558 25.9755 18.3928 26.0446 18.3306 26.1143C18.203 26.2543 18.0761 26.3964 17.9485 26.5381C17.8923 26.6008 17.8364 26.6635 17.7802 26.726C17.5998 26.9294 17.4192 27.1337 17.2398 27.3403C17.0598 27.5461 16.8816 27.7531 16.7043 27.9594C16.6487 28.0241 16.5947 28.0887 16.5397 28.1531C16.4157 28.2987 16.2917 28.4449 16.1687 28.5914C16.1094 28.6626 16.0496 28.7333 15.9905 28.8045C15.8649 28.9547 15.7408 29.1048 15.6169 29.2547C15.5672 29.3154 15.5171 29.3757 15.4672 29.4365C15.2972 29.644 15.1282 29.8521 14.9611 30.0613C14.9374 30.0896 14.9137 30.1196 14.8904 30.1487C14.7461 30.3291 14.603 30.5092 14.4614 30.6891C14.4062 30.7584 14.3517 30.8284 14.2977 30.8974C14.2686 30.9352 14.2396 30.9725 14.21 31.0097C14.2512 31.0514 14.2914 31.0935 14.3328 31.1352C14.4909 31.2998 14.65 31.4657 14.8091 31.633C14.8331 31.6585 14.8566 31.6834 14.881 31.7086C15.0624 31.9001 15.2447 32.0945 15.4261 32.2897C15.4791 32.3471 15.5322 32.4043 15.5849 32.4612C15.7157 32.6033 15.8469 32.7452 15.9774 32.8888C16.0399 32.9566 16.1009 33.0251 16.1629 33.0931C16.2913 33.2346 16.4189 33.3767 16.547 33.5201C16.6031 33.5828 16.6579 33.6443 16.714 33.7065C16.8947 33.9099 17.0751 34.1145 17.255 34.3211C17.4344 34.5262 17.6126 34.7332 17.7894 34.9395C17.8456 35.0042 17.901 35.0698 17.9557 35.1352C18.0797 35.28 18.2025 35.4255 18.3253 35.5708C18.3849 35.6422 18.4454 35.7144 18.5057 35.7868C18.6297 35.935 18.7529 36.0844 18.8754 36.2336C18.9268 36.2951 18.9772 36.3568 19.0278 36.4178C19.1973 36.6249 19.366 36.8326 19.5324 37.0401C19.5583 37.0718 19.583 37.1036 19.6089 37.1353C19.7513 37.3131 19.8924 37.4905 20.0321 37.668C20.0883 37.739 20.1438 37.8106 20.1995 37.8809C20.2307 37.9203 20.2615 37.9603 20.2922 38C20.3232 37.96 20.3552 37.9203 20.3867 37.8809C20.4421 37.8097 20.4968 37.7392 20.5525 37.669C20.6937 37.49 20.8354 37.3118 20.9777 37.1331C21.0024 37.1021 21.0269 37.0714 21.0516 37.0406C21.2187 36.8329 21.3882 36.6253 21.557 36.4178C21.6076 36.3568 21.6594 36.2951 21.7093 36.2336C21.8325 36.0842 21.9558 35.935 22.0797 35.7868C22.14 35.7141 22.2003 35.6422 22.2609 35.5708C22.3829 35.4255 22.5055 35.28 22.6294 35.1352C22.6844 35.0698 22.7398 35.0046 22.7953 34.9395C22.9721 34.733 23.1508 34.5264 23.3302 34.3211C23.5101 34.1145 23.69 33.9099 23.8714 33.7065C23.9268 33.6443 23.9823 33.5828 24.0377 33.5201C24.166 33.3767 24.2942 33.2346 24.4216 33.0931C24.4845 33.0249 24.5462 32.9566 24.6085 32.8888C24.739 32.7447 24.8698 32.6035 25.001 32.4612C25.0535 32.4043 25.1066 32.3471 25.1589 32.2897C25.3407 32.0945 25.5231 31.9001 25.7049 31.7086C25.7282 31.6829 25.7524 31.6587 25.7763 31.633C25.9347 31.4655 26.0938 31.3001 26.2533 31.1352C26.2933 31.0935 26.3347 31.0514 26.3747 31.0097C26.3471 30.9737 26.3192 30.9373 26.2904 30.9017Z" fill="#80CFF4"/>
<path fill-rule="evenodd" clip-rule="evenodd" d="M5.99161 12.7219C6.09936 12.7805 6.20667 12.8406 6.31515 12.9014C6.37302 12.9333 6.4316 12.966 6.48947 12.9984C6.59626 13.0583 6.70206 13.1186 6.80885 13.1798C6.86551 13.2123 6.92292 13.2459 6.97934 13.2791C7.20696 13.4113 7.43602 13.5462 7.66605 13.6856C7.69463 13.7038 7.72347 13.7203 7.75156 13.7382C7.85399 13.7995 7.95637 13.8639 8.05807 13.9268C8.12902 13.9704 8.19855 14.0135 8.26877 14.0581C8.36757 14.1198 8.46614 14.1825 8.56469 14.2445C8.64048 14.2927 8.71506 14.3414 8.79085 14.3901C8.88698 14.4525 8.98357 14.5155 9.08043 14.5782C9.16179 14.6315 9.24315 14.6862 9.32452 14.7395C9.48046 14.8431 9.63639 14.948 9.79282 15.054C9.88726 15.118 9.98098 15.1821 10.0747 15.2468C10.164 15.3083 10.2539 15.3712 10.3435 15.4337C10.4314 15.4952 10.5202 15.5577 10.6076 15.6197C10.6977 15.6829 10.7871 15.7468 10.8764 15.811C10.9682 15.8768 11.0607 15.9432 11.1525 16.0098C11.2377 16.0722 11.3232 16.1337 11.4089 16.1967C11.529 16.2844 11.6494 16.3739 11.7702 16.4642C11.8767 16.5437 11.9821 16.6229 12.0881 16.7033C12.207 16.7929 12.3266 16.8834 12.4448 16.9747C12.5249 17.0357 12.6046 17.0975 12.684 17.1602C12.7872 17.2398 12.8894 17.3196 12.993 17.4007C13.0729 17.4634 13.1536 17.5273 13.2345 17.5912C13.3178 17.6568 13.4008 17.7239 13.4848 17.7912C13.4977 17.7767 13.5105 17.7627 13.5243 17.7486C13.5512 17.7208 13.5783 17.6927 13.6054 17.6639C13.7606 17.4999 13.9161 17.3374 14.072 17.1759C14.1338 17.1122 14.1953 17.0488 14.2568 16.9856C14.3815 16.8575 14.5047 16.7311 14.6292 16.6047C14.6953 16.5381 14.76 16.472 14.8251 16.4059C14.9571 16.2737 15.0883 16.142 15.2203 16.011C15.2733 15.958 15.3264 15.9051 15.3791 15.8524C15.5593 15.6739 15.7404 15.4969 15.9203 15.3213C15.9666 15.2765 16.0128 15.2327 16.0591 15.1882C16.1964 15.0557 16.3332 14.924 16.4707 14.7925C16.5393 14.7276 16.607 14.6637 16.6753 14.599C16.7942 14.4864 16.9121 14.3753 17.031 14.2651C17.1008 14.2005 17.1703 14.1358 17.2393 14.0712C17.3693 13.9506 17.4993 13.8312 17.6301 13.713C17.6836 13.6631 17.7379 13.6135 17.7914 13.5636C17.9691 13.4026 18.1466 13.244 18.3241 13.0856C18.3856 13.0304 18.4478 12.9764 18.5101 12.9217C18.6309 12.8139 18.7524 12.7079 18.8738 12.6025C18.9476 12.5367 19.0227 12.4725 19.0975 12.4076C19.2091 12.3117 19.3193 12.2163 19.4302 12.1214C19.5055 12.0579 19.5794 11.9938 19.6544 11.9311C19.7799 11.824 19.9053 11.7199 20.03 11.6158C20.0879 11.5674 20.1453 11.5194 20.2027 11.4712C20.2327 11.446 20.2632 11.4213 20.294 11.3961C20.1518 11.2777 20.0087 11.1615 19.8663 11.0452C19.7954 10.9881 19.7259 10.9314 19.655 10.8753C19.5441 10.7854 19.4332 10.6963 19.3223 10.6089C19.2433 10.5459 19.1639 10.4839 19.085 10.422C18.9808 10.3389 18.876 10.2583 18.7719 10.1769C18.6937 10.1164 18.6155 10.0549 18.537 9.99602C18.415 9.90134 18.2931 9.80887 18.1709 9.71661C18.0711 9.64082 17.9713 9.56621 17.8716 9.49163C17.7469 9.39865 17.6219 9.30544 17.4972 9.21439C17.4141 9.15313 17.3301 9.09284 17.2471 9.03278C17.1526 8.96402 17.058 8.89595 16.9642 8.82791C16.8768 8.76568 16.7892 8.70274 16.701 8.64124C16.6105 8.57634 16.5199 8.51337 16.4293 8.44993C16.3417 8.38891 16.2543 8.32715 16.1673 8.26686C16.0656 8.1976 15.9639 8.12813 15.8627 8.06009C15.7174 7.96129 15.5722 7.86395 15.4278 7.76734C15.3407 7.70995 15.2552 7.65279 15.1687 7.59637C15.074 7.53438 14.9796 7.47313 14.8852 7.41211C14.807 7.36223 14.7295 7.31207 14.6518 7.26219C14.5556 7.20069 14.4583 7.13941 14.3622 7.07888C14.2888 7.03287 14.2154 6.98786 14.1421 6.94258C14.0435 6.88107 13.9437 6.8186 13.8452 6.75879C13.8001 6.73191 13.7556 6.70528 13.712 6.67816C13.4999 6.55055 13.2885 6.42607 13.0795 6.3033C13.0185 6.26819 12.9577 6.23261 12.8972 6.19798C12.7923 6.13769 12.6889 6.07908 12.5853 6.02048C12.533 5.99143 12.4804 5.9619 12.4281 5.93309C10.1946 7.90706 7.95081 10.1365 5.75358 12.595C5.78457 12.6108 5.81585 12.628 5.8466 12.6449C5.89479 12.6703 5.94342 12.6967 5.99161 12.7219Z" fill="#3769B0"/>
</svg>
