<svg width="42" height="58" viewBox="0 0 42 58" fill="none" xmlns="http://www.w3.org/2000/svg">
<circle cx="21" cy="21" r="20" stroke="#141414" stroke-width="2"/>
<path d="M38 21C38 25.301 36.4028 29.229 33.7691 32.2231C33.3881 32.6562 32.7183 32.6349 32.336 32.203L29.5 29M38 21H33M38 21C38 16.295 36.0886 12.0364 33 8.95841M4 21C4 11.6112 11.6112 4 21 4M4 21C4 25.3257 5.61563 29.2741 8.27638 32.2746C8.64173 32.6866 9.27504 32.6871 9.6667 32.3L12.5 29.5M4 21H8.95841M21 4C25.6838 4 29.9253 5.89422 33 8.95841M21 4V8.95841M29.5 12.5L33 8.95841M9 9L12.5 12.5M24.5 17.5L23.142 18.858M15 27L18.6772 23.3228M13.5 40V45.307C13.5 45.7238 13.7586 46.097 14.1489 46.2433L15.5 46.75M17.5 47.5H24.5M17.5 47.5V44M17.5 47.5L15.5 46.75M24.5 47.5L28.3162 46.2279C28.7246 46.0918 29 45.7097 29 45.2792V40M24.5 47.5V44M15.5 46.75V52C15.5 52.5523 15.9477 53 16.5 53H18.6772M26.5 47.5V52C26.5 52.5523 26.0523 53 25.5 53H18.6772M18.6772 53V56C18.6772 56.5523 19.1249 57 19.6772 57H22.142C22.6943 57 23.142 56.5523 23.142 56V53.62" stroke="#141414" stroke-width="2" stroke-linecap="round"/>
<circle cx="21" cy="21" r="3" stroke="#141414" stroke-width="2"/>
</svg>
