<svg width="60" height="60" viewBox="0 0 60 60" fill="none" xmlns="http://www.w3.org/2000/svg">
<path d="M9.94898 58H5C4.44772 58 4 57.5523 4 57V2C4 1.44771 4.44772 1 5 1H56C56.5523 1 57 1.44772 57 2V57C57 57.5523 56.5523 58 56 58H45.102M9.94898 58V14.4857C9.94898 13.9334 10.3967 13.4857 10.949 13.4857H27.5255M9.94898 58H27.5255M45.102 58V14.4857C45.102 13.9334 44.6543 13.4857 44.102 13.4857H27.5255M45.102 58H27.5255M27.5255 13.4857V58M48.8878 38.4571L50.3426 39.9175C50.7334 40.3098 51.3686 40.3098 51.7595 39.9175L53.2143 38.4571M48.8878 33.0286L50.3426 31.5683C50.7334 31.176 51.3686 31.176 51.7595 31.5683L53.2143 33.0286M22.398 10.2286H32.1122C33.6113 10.2286 34.8265 9.01335 34.8265 7.51429C34.8265 6.01523 33.6113 4.8 32.1122 4.8H22.398C20.8989 4.8 19.6837 6.01523 19.6837 7.51429C19.6837 9.01335 20.8989 10.2286 22.398 10.2286Z" stroke="#141414" stroke-width="2" stroke-linecap="round"/>
</svg>
