<svg width="57" height="56" viewBox="0 0 57 56" fill="none" xmlns="http://www.w3.org/2000/svg">
<path d="M5.5 41.25H12M5.5 46.25H12M5.5 50.75H12M25.5 41.25H32M25.5 46.25H32M25.5 50.75H32M45.5 41.25H52M45.5 46.25H52M45.5 50.75H52M8.5 36.75H2C1.44772 36.75 1 37.1977 1 37.75V53.75C1 54.3023 1.44772 54.75 2 54.75H15C15.5523 54.75 16 54.3023 16 53.75V37.75C16 37.1977 15.5523 36.75 15 36.75H8.5ZM8.5 36.75V33.75C8.5 33.1977 8.94771 32.75 9.5 32.75H27.75M47 36.75H42C41.4477 36.75 41 37.1977 41 37.75V53.75C41 54.3023 41.4477 54.75 42 54.75H55C55.5523 54.75 56 54.3023 56 53.75V37.75C56 37.1977 55.5523 36.75 55 36.75H47ZM47 36.75V33.75C47 33.1977 46.5523 32.75 46 32.75H27.75M27.75 32.75V36.75M27.75 32.75V28.25M27.75 36.75H22C21.4477 36.75 21 37.1977 21 37.75V53.75C21 54.3023 21.4477 54.75 22 54.75H35C35.5523 54.75 36 54.3023 36 53.75V37.75C36 37.1977 35.5523 36.75 35 36.75H27.75ZM8 28.75C5.83333 25.9167 3.4 18.95 11 13.75M11 13.75L10.5 18.25M11 13.75L6.5 13.25M48.8345 28.75C51.0011 25.9167 53.4345 18.95 45.8345 13.75M45.8345 13.75L46.3345 18.25M45.8345 13.75L50.3345 13.25" stroke="#141414" stroke-width="2" stroke-linecap="round" stroke-linejoin="round"/>
<path fill-rule="evenodd" clip-rule="evenodd" d="M25.8836 0.342672C25.6124 0.476825 25.5159 0.68179 25.1864 1.82503L25.0358 2.34765C24.9436 2.66766 24.6981 2.92076 24.3811 3.02272L24.2504 3.06475C23.8996 3.17758 23.2667 3.44371 22.8439 3.6562L22.5452 3.80627C22.251 3.95409 21.9029 3.94761 21.6144 3.78892L21.2021 3.56218C20.0848 2.94757 19.9771 2.90864 19.6311 2.99388C19.3894 3.05345 19.2473 3.17495 18.1838 4.23153C16.8975 5.50943 16.726 5.71702 16.6815 6.04976C16.6512 6.27667 16.7072 6.40062 17.5772 8.03127C17.6918 8.24605 17.6961 8.50284 17.5887 8.72132L17.3954 9.11453C17.1951 9.52218 16.9318 10.1508 16.8104 10.5114C16.6889 10.872 16.5844 11.1741 16.5781 11.1827C16.5717 11.1913 16.091 11.3352 15.5097 11.5023C14.9285 11.6696 14.3884 11.8487 14.3096 11.9006C13.9954 12.1071 13.9877 12.1672 14.0055 14.2746L14.0197 15.9582C14.0211 16.1201 14.0859 16.2749 14.2001 16.3895C14.3503 16.5401 14.5509 16.6197 15.4728 16.8946L16.0751 17.0742C16.384 17.1663 16.6296 17.4017 16.7347 17.7065L16.8309 17.9854C16.9759 18.4058 17.2406 19.03 17.4191 19.3725C17.5976 19.7149 17.7436 20.0155 17.7436 20.0403C17.7436 20.0652 17.5259 20.4837 17.2596 20.9704C16.6667 22.0543 16.6463 22.1068 16.6936 22.4273C16.7295 22.6701 16.8045 22.7574 18.1007 24.0655C19.5247 25.5026 19.6693 25.6127 20.0352 25.5393C20.1337 25.5196 20.6419 25.273 21.1646 24.9916C21.6873 24.7101 22.1453 24.4798 22.1825 24.4798C22.2196 24.4798 22.4059 24.5667 22.5964 24.673C23.0357 24.9181 23.9466 25.3079 24.5291 25.5001C24.8108 25.593 25.0285 25.8188 25.1112 26.1036L25.2854 26.7033C25.4539 27.2834 25.63 27.817 25.6767 27.8891C25.851 28.158 26.0831 28.2422 26.6504 28.2424H27.1781H28.767H29.2975C29.2975 28.2424 29.8237 28.2595 29.8594 28.2424C30.0634 28.1454 30.3523 27.547 30.3523 27.547L30.6134 26.7318C30.7575 26.2301 30.9006 25.7393 30.9313 25.6412C30.9832 25.4758 31.0294 25.4496 31.5675 25.2802C31.8867 25.1797 32.5154 24.9173 32.9647 24.6971C33.6855 24.3439 33.7981 24.3045 33.9223 24.3613C33.9998 24.3967 34.4355 24.6326 34.8906 24.8855C35.3457 25.1383 35.8005 25.3586 35.9013 25.375C36.3134 25.4421 36.4519 25.3394 37.8243 23.947C38.5399 23.2209 39.16 22.5442 39.2022 22.4433C39.3493 22.0914 39.3036 21.938 38.736 20.8792L38.4365 20.3206C38.2838 20.0357 38.2782 19.6944 38.4216 19.4046L38.5399 19.1656C38.7307 18.7802 38.9969 18.1461 39.1317 17.7566L39.2075 17.5371C39.3135 17.2305 39.5617 16.9944 39.8731 16.9037L40.4216 16.7441C41.4838 16.4348 41.6525 16.3565 41.8607 16.0769C41.9721 15.9274 41.9787 15.8335 41.9952 14.1879C42.014 12.293 41.9885 12.0722 41.7208 11.8214C41.5738 11.6836 41.0037 11.4885 39.5381 11.0743C39.3752 11.0282 39.3506 10.9829 39.1523 10.3622C39.0357 9.99756 38.771 9.3597 38.564 8.94458L38.4208 8.65752C38.2746 8.36456 38.2811 8.0186 38.4382 7.73135L38.7048 7.24385C38.9893 6.72355 39.2215 6.23887 39.2208 6.1668C39.2177 5.84713 38.979 5.5514 37.68 4.2585C35.9735 2.56006 36.1678 2.61234 34.6564 3.44548L34.1735 3.71169C33.8811 3.87289 33.5275 3.87751 33.231 3.724L33.0972 3.65472C32.5732 3.3835 31.644 3.00539 31.0682 2.82911C30.9032 2.77854 30.8882 2.74329 30.5972 1.72668C30.4318 1.14907 30.276 0.638005 30.2509 0.590969C30.2258 0.543933 30.1208 0.447693 30.0175 0.377167C29.832 0.250426 29.807 0.248886 27.9488 0.250198C26.3417 0.251281 26.0411 0.264734 25.8836 0.342672ZM26.5197 3.09958C26.6343 2.67625 26.7543 2.24597 26.7863 2.14335C26.8209 2.03269 26.9242 1.95796 27.0401 1.95966L27.9012 1.9723L28.2036 1.97674C28.65 1.98329 29.0379 2.28489 29.1543 2.71584L29.2195 2.95704C29.4651 3.86607 29.4957 3.94092 29.7131 4.16225C29.8833 4.33546 30.0092 4.40918 30.1866 4.43923C30.8784 4.5565 32.4868 5.23348 33.1354 5.68042C33.602 6.00197 33.7322 5.97895 34.7977 5.38657C35.3116 5.10082 35.7575 4.867 35.7885 4.867C35.8522 4.867 37.2521 6.09582 37.2793 6.1757C37.289 6.20403 37.0652 6.64863 36.7822 7.16375C36.197 8.22826 36.1772 8.32233 36.4386 8.80096C37.1121 10.0341 37.4219 10.7465 37.6537 11.5955C37.8718 12.3941 37.9282 12.4383 39.1656 12.7806L39.4373 12.8558C39.8654 12.9743 40.1641 13.3609 40.1705 13.805L40.1751 14.1169C40.1892 15.0907 40.1822 15.1806 40.0898 15.2089C40.0344 15.2259 39.612 15.3412 39.151 15.4651C37.9272 15.794 37.8709 15.8428 37.5977 16.8113C37.3885 17.5526 37.046 18.3967 36.7416 18.9209C36.2691 19.7344 36.2582 19.7605 36.2863 20.0042C36.303 20.1486 36.4919 20.5559 36.8014 21.1156C37.0702 21.6014 37.2901 22.0251 37.2901 22.0572C37.2901 22.1424 35.9662 23.4535 35.8801 23.4535C35.8399 23.4535 35.4057 23.2301 34.915 22.957C33.778 22.3243 33.7789 22.3243 32.8297 22.8486C31.8558 23.3865 31.1777 23.6603 30.2043 23.9087C30.0729 23.9422 29.888 24.0349 29.7936 24.1147C29.6128 24.2673 29.58 24.3572 29.2185 25.6913C29.1113 26.0867 28.7525 26.3612 28.3428 26.3612H27.9746H27.6445C27.2085 26.3612 26.8228 26.0788 26.6912 25.6633L26.5909 25.3469C26.2077 24.1376 26.1732 24.0931 25.4997 23.9406C24.6125 23.7397 23.5855 23.3075 22.662 22.7464C22.1384 22.4282 22.0365 22.4466 20.9294 23.0585L20.6584 23.2084C20.2665 23.425 19.7783 23.3547 19.4635 23.0362L19.2736 22.8442L19.0781 22.6464C18.766 22.3307 18.6994 21.8469 18.9147 21.4585L19.0566 21.2027C19.3344 20.7017 19.5773 20.2081 19.5964 20.1058C19.6339 19.905 19.6486 19.94 19.0633 18.8354C18.6778 18.1077 18.3684 17.336 18.2038 16.6913C18.0083 15.9255 17.9288 15.8666 16.6336 15.5281L16.4452 15.4788C16.0051 15.3638 15.6981 14.9662 15.6981 14.5113V14.211V13.3883C15.6981 13.2409 15.7972 13.112 15.9396 13.074C16.962 12.8013 17.577 12.6229 17.674 12.5708C17.8655 12.4679 18.0782 12.1726 18.143 11.9199C18.3866 10.9687 18.7833 10.0208 19.4245 8.85797C19.5785 8.57877 19.6218 8.44308 19.5999 8.30784C19.584 8.20909 19.3397 7.7088 19.0571 7.19607L18.9048 6.91964C18.6905 6.5309 18.7581 6.04743 19.0708 5.73241L19.2615 5.54039L19.7912 5.00664C19.9022 4.8948 20.0746 4.87177 20.2111 4.95053C22.0693 6.02291 22.0816 6.02633 22.728 5.64604C23.5023 5.19062 24.4745 4.75924 25.1975 4.55046C25.5825 4.43928 25.9545 4.31084 26.0241 4.26506C26.2084 4.1439 26.2873 3.95832 26.5197 3.09958Z" fill="#141414"/>
<path fill-rule="evenodd" clip-rule="evenodd" d="M27.3981 8.06463C26.7612 8.11856 25.9172 8.34707 25.3237 8.62609C21.5015 10.4233 20.5861 15.5167 23.5394 18.5547C24.3902 19.4298 25.2925 19.9542 26.4924 20.2706C27.0492 20.4175 28.1933 20.4703 28.8293 20.3785C31.1139 20.0488 33.1298 18.3044 33.825 16.0553C34.3856 14.2419 34.0885 12.3161 32.9962 10.6825C31.7875 8.87467 29.6475 7.87397 27.3981 8.06463ZM23.775 12.4104C24.3138 11.1108 25.6738 9.98536 27.0333 9.71409C27.4288 9.63524 28.4869 9.65217 28.8806 9.74374C30.5542 10.133 31.8596 11.38 32.3023 13.0122C32.4675 13.6215 32.4659 14.6926 32.2987 15.3169C31.7276 17.4499 29.5883 18.9144 27.4079 18.6649C26.7689 18.5918 26.3912 18.4754 25.7996 18.1695C24.7332 17.6181 23.8756 16.5497 23.5654 15.3861C23.3317 14.5092 23.4191 13.2689 23.775 12.4104Z" fill="#141414"/>
<path d="M26.6504 28.2424C26.0831 28.2422 25.851 28.158 25.6767 27.8891C25.63 27.817 25.4539 27.2834 25.2854 26.7033L25.1112 26.1036C25.0285 25.8188 24.8108 25.593 24.5291 25.5001C23.9466 25.3079 23.0357 24.9181 22.5964 24.673C22.4059 24.5667 22.2196 24.4798 22.1825 24.4798C22.1453 24.4798 21.6873 24.7101 21.1646 24.9916C20.6419 25.273 20.1337 25.5196 20.0352 25.5393C19.6693 25.6127 19.5247 25.5026 18.1007 24.0655C16.8045 22.7574 16.7295 22.6701 16.6936 22.4273C16.6463 22.1068 16.6667 22.0543 17.2596 20.9704C17.5259 20.4837 17.7436 20.0652 17.7436 20.0403C17.7436 20.0155 17.5976 19.7149 17.4191 19.3725C17.2406 19.03 16.9759 18.4058 16.8309 17.9854L16.7347 17.7065C16.6296 17.4017 16.384 17.1663 16.0751 17.0742L15.4728 16.8946C14.5509 16.6197 14.3503 16.5401 14.2001 16.3895C14.0859 16.2749 14.0211 16.1201 14.0197 15.9582L14.0055 14.2746C13.9877 12.1672 13.9954 12.1071 14.3096 11.9006C14.3884 11.8487 14.9285 11.6696 15.5097 11.5023C16.091 11.3352 16.5717 11.1913 16.5781 11.1827C16.5844 11.1741 16.6889 10.872 16.8104 10.5114C16.9318 10.1508 17.1951 9.52218 17.3954 9.11453L17.5887 8.72132C17.6961 8.50284 17.6918 8.24605 17.5772 8.03127C16.7072 6.40062 16.6512 6.27667 16.6815 6.04976C16.726 5.71702 16.8975 5.50943 18.1838 4.23153C19.2473 3.17495 19.3894 3.05345 19.6311 2.99388C19.9771 2.90864 20.0848 2.94757 21.2021 3.56218L21.6144 3.78892C21.9029 3.94761 22.251 3.95409 22.5452 3.80627L22.8439 3.6562C23.2667 3.44371 23.8996 3.17758 24.2504 3.06475L24.3811 3.02272C24.6981 2.92076 24.9436 2.66766 25.0358 2.34765L25.1864 1.82503C25.5159 0.68179 25.6124 0.476825 25.8836 0.342672C26.0411 0.264734 26.3417 0.251281 27.9488 0.250198C29.807 0.248886 29.832 0.250426 30.0175 0.377167C30.1208 0.447693 30.2258 0.543933 30.2509 0.590969C30.276 0.638005 30.4318 1.14907 30.5972 1.72668C30.8882 2.74329 30.9032 2.77854 31.0682 2.82911C31.644 3.00539 32.5732 3.3835 33.0972 3.65472L33.231 3.724C33.5275 3.87751 33.8811 3.87289 34.1735 3.71169L34.6564 3.44548C36.1678 2.61234 35.9735 2.56006 37.68 4.2585C38.979 5.5514 39.2177 5.84713 39.2208 6.1668C39.2215 6.23887 38.9893 6.72355 38.7048 7.24385L38.4382 7.73135C38.2811 8.0186 38.2746 8.36456 38.4208 8.65752L38.564 8.94458C38.771 9.3597 39.0357 9.99756 39.1523 10.3622C39.3506 10.9829 39.3752 11.0282 39.5381 11.0743C41.0037 11.4885 41.5738 11.6836 41.7208 11.8214C41.9885 12.0722 42.014 12.293 41.9952 14.1879C41.9787 15.8335 41.9721 15.9274 41.8607 16.0769C41.6525 16.3565 41.4838 16.4348 40.4216 16.7441L39.8731 16.9037C39.5617 16.9944 39.3135 17.2305 39.2075 17.5371L39.1317 17.7566C38.9969 18.1461 38.7307 18.7802 38.5399 19.1656L38.4216 19.4046C38.2782 19.6944 38.2838 20.0357 38.4365 20.3206L38.736 20.8792C39.3036 21.938 39.3493 22.0914 39.2022 22.4433C39.16 22.5442 38.5399 23.2209 37.8243 23.947C36.4519 25.3394 36.3134 25.4421 35.9013 25.375C35.8005 25.3586 35.3457 25.1383 34.8906 24.8855C34.4355 24.6326 33.9998 24.3967 33.9223 24.3613C33.7981 24.3045 33.6855 24.3439 32.9647 24.6971C32.5154 24.9173 31.8867 25.1797 31.5675 25.2802C31.0294 25.4496 30.9832 25.4758 30.9313 25.6412C30.9006 25.7393 30.7575 26.2301 30.6134 26.7318M26.6504 28.2424L27.176 28.2427L27.1781 28.2424M26.6504 28.2424H27.1781M30.6134 26.7318L30.3523 27.547M30.6134 26.7318C30.4901 27.1609 30.4194 27.3946 30.3523 27.547M27.1781 28.2424H28.767H29.2975C29.2975 28.2424 29.8237 28.2595 29.8594 28.2424C30.0634 28.1454 30.3523 27.547 30.3523 27.547M26.7863 2.14335C26.7543 2.24597 26.6343 2.67625 26.5197 3.09958C26.2873 3.95832 26.2084 4.1439 26.0241 4.26506C25.9545 4.31084 25.5825 4.43928 25.1975 4.55046C24.4745 4.75924 23.5023 5.19062 22.728 5.64604C22.0816 6.02633 22.0693 6.02291 20.2111 4.95053C20.0746 4.87177 19.9022 4.89481 19.7912 5.00664L19.2615 5.54039L19.0708 5.73241C18.7581 6.04743 18.6905 6.5309 18.9048 6.91964L19.0571 7.19607C19.3397 7.7088 19.584 8.20909 19.5999 8.30784C19.6218 8.44308 19.5785 8.57877 19.4245 8.85797C18.7833 10.0208 18.3866 10.9687 18.143 11.9199C18.0782 12.1726 17.8655 12.4679 17.674 12.5708C17.577 12.6229 16.962 12.8013 15.9396 13.074C15.7972 13.112 15.6981 13.2409 15.6981 13.3883V14.211V14.5113C15.6981 14.9662 16.0051 15.3638 16.4452 15.4788L16.6336 15.5281C17.9288 15.8666 18.0083 15.9255 18.2038 16.6913C18.3684 17.336 18.6778 18.1077 19.0633 18.8354C19.6486 19.94 19.6339 19.905 19.5964 20.1058C19.5773 20.2081 19.3344 20.7017 19.0566 21.2027L18.9147 21.4585C18.6994 21.8469 18.766 22.3307 19.0781 22.6464L19.2736 22.8442L19.4635 23.0362C19.7783 23.3547 20.2665 23.425 20.6584 23.2084L20.9294 23.0585C22.0365 22.4466 22.1384 22.4282 22.662 22.7464C23.5855 23.3075 24.6125 23.7397 25.4997 23.9406C26.1732 24.0931 26.2077 24.1376 26.5909 25.3469L26.6912 25.6633C26.8228 26.0788 27.2085 26.3612 27.6445 26.3612H27.9746H28.3428C28.7525 26.3612 29.1113 26.0867 29.2185 25.6913C29.58 24.3572 29.6128 24.2673 29.7936 24.1147C29.888 24.0349 30.0729 23.9422 30.2043 23.9087C31.1777 23.6603 31.8558 23.3865 32.8297 22.8486C33.7789 22.3243 33.778 22.3243 34.915 22.957C35.4057 23.2301 35.8399 23.4535 35.8801 23.4535C35.9662 23.4535 37.2901 22.1424 37.2901 22.0572C37.2901 22.0251 37.0702 21.6014 36.8014 21.1156C36.4919 20.5559 36.303 20.1486 36.2863 20.0042C36.2582 19.7605 36.2691 19.7344 36.7416 18.9209C37.046 18.3967 37.3885 17.5526 37.5977 16.8113C37.8709 15.8428 37.9272 15.794 39.151 15.4651C39.612 15.3412 40.0344 15.2259 40.0898 15.2089C40.1822 15.1806 40.1892 15.0907 40.1751 14.1169L40.1705 13.805C40.1641 13.3609 39.8654 12.9743 39.4373 12.8558L39.1656 12.7806C37.9282 12.4383 37.8718 12.3941 37.6537 11.5955C37.4219 10.7465 37.1121 10.0341 36.4386 8.80096C36.1772 8.32233 36.197 8.22826 36.7822 7.16375C37.0652 6.64863 37.289 6.20403 37.2793 6.1757C37.2521 6.09582 35.8522 4.867 35.7885 4.867C35.7575 4.867 35.3116 5.10082 34.7977 5.38657C33.7322 5.97895 33.602 6.00197 33.1354 5.68042C32.4868 5.23348 30.8784 4.5565 30.1866 4.43923C30.0092 4.40918 29.8833 4.33546 29.7131 4.16225C29.4957 3.94092 29.4651 3.86607 29.2195 2.95704L29.1543 2.71584C29.0379 2.28489 28.65 1.98329 28.2036 1.97674L27.9012 1.9723L27.0401 1.95966C26.9242 1.95796 26.8209 2.03269 26.7863 2.14335ZM27.3981 8.06463C26.7612 8.11856 25.9172 8.34707 25.3237 8.62609C21.5015 10.4233 20.5861 15.5167 23.5394 18.5547C24.3902 19.4298 25.2925 19.9542 26.4924 20.2706C27.0492 20.4175 28.1933 20.4703 28.8293 20.3785C31.1139 20.0488 33.1298 18.3044 33.825 16.0553C34.3856 14.2419 34.0885 12.3161 32.9962 10.6825C31.7875 8.87467 29.6475 7.87397 27.3981 8.06463ZM27.0333 9.71409C25.6738 9.98536 24.3138 11.1108 23.775 12.4104C23.4191 13.2689 23.3317 14.5092 23.5654 15.3861C23.8756 16.5497 24.7332 17.6181 25.7996 18.1695C26.3912 18.4754 26.7689 18.5918 27.4079 18.6649C29.5883 18.9144 31.7276 17.4499 32.2987 15.3169C32.4659 14.6926 32.4675 13.6215 32.3023 13.0122C31.8596 11.38 30.5542 10.133 28.8806 9.74374C28.4869 9.65217 27.4288 9.63524 27.0333 9.71409Z" stroke="#141414" stroke-width="0.5" stroke-linecap="round"/>
</svg>
