<svg width="60" height="60" viewBox="0 0 60 60" fill="none" xmlns="http://www.w3.org/2000/svg">
<path d="M30 13.0002L28.5 11.0717M30 13.0002H42M30 13.0002V20.5002M25.5 8.50024H26.0109C26.3195 8.50024 26.6108 8.64272 26.8003 8.8863L28.5 11.0717M25.5 8.50024H20.5C19.9477 8.50024 19.5 8.05253 19.5 7.50024V3.50024C19.5 2.94796 19.9477 2.50024 20.5 2.50024H40.9854C41.3083 2.50024 41.6114 2.65621 41.7991 2.91901L47.8705 11.419C48.3433 12.0809 47.8702 13.0002 47.0568 13.0002H42M25.5 8.50024L19.7529 16.642C19.5923 16.8695 19.5388 17.1556 19.6064 17.4257C19.7831 18.1327 20.6539 18.3903 21.1869 17.8932L28.5 11.0717M42 20.5002L48.2858 48.2318C49.4203 53.2367 45.6156 58.0002 40.4837 58.0002H26.6029C21.9561 58.0002 18.287 54.0546 18.624 49.42L19.6502 35.3102C19.8653 32.3519 21.7009 29.7561 24.4183 28.5672C26.6923 27.5724 28.4198 25.6359 29.1497 23.2636L30 20.5002M42 20.5002V13.0002M42 20.5002H30M10 1.00024L15.5 4.00024M15.5 6.50024H10M15.5 9.00024L10 12.0002M28 44.5002V48.0002M28 44.5002L24.5 43.5002M28 44.5002L30 42.0002M33 47.5002L33.4565 46.5872C34.1338 45.2325 35.2323 44.1341 36.587 43.4567L37.5 43.0002M33 47.5002L34.5 49.0002M33 47.5002L30.9167 50.0002M33.5 38.9548L32.7522 39.2267C32.2602 39.4056 31.827 39.7165 31.5 40.1252L30 42.0002M33.5 38.9548L32.5 36.0002M33.5 38.9548L37 37.6821M37 37.6821V34.5002M37 37.6821C37.305 37.5711 37.6467 37.6469 37.8762 37.8764L39.5 39.5002M39.5 39.5002L41.5 37.6821M39.5 39.5002C40.0523 40.0525 40.0523 40.948 39.5 41.5002M39.5 41.5002L39.2906 41.7097C38.7669 42.2333 38.1623 42.6691 37.5 43.0002M39.5 41.5002L42.5 42.0002M37.5 43.0002L39 44.5002M30.9167 50.0002L32 53.0002M30.9167 50.0002C30.6769 50.288 30.2631 50.3581 29.9419 50.1654L28.8575 49.5147C28.3255 49.1955 28 48.6206 28 48.0002M28 48.0002L24.5 49.5002M30 42.0002L27 40.0002M26 35.0002L40.5 50.0002" stroke="#141414" stroke-width="2" stroke-linecap="round"/>
<circle cx="36" cy="41.0002" r="1" fill="#141414"/>
</svg>
