<svg width="60" height="60" viewBox="0 0 60 60" fill="none" xmlns="http://www.w3.org/2000/svg">
<path d="M58.792 55.4854C58.792 57.1422 57.4488 58.4854 55.792 58.4854H3.9668C2.30994 58.4854 0.966797 57.1422 0.966797 55.4854V3.96094C0.966797 2.30409 2.30994 0.960938 3.9668 0.960938H55.792C57.4488 0.960938 58.792 2.30408 58.792 3.96094V55.4854ZM2.9668 53.4854C2.9668 55.1422 4.30994 56.4854 5.9668 56.4854H53.792C55.4488 56.4854 56.792 55.1422 56.792 53.4854V5.96094C56.792 4.30408 55.4488 2.96094 53.792 2.96094H5.9668C4.30994 2.96094 2.9668 4.30408 2.9668 5.96094V53.4854ZM8.81445 48.4951C10.0252 48.6181 10.9697 49.6406 10.9697 50.8838L10.958 51.1289C10.8349 52.3394 9.81229 53.284 8.56934 53.2842L8.32324 53.2725C7.19358 53.1575 6.29553 52.2586 6.18066 51.1289L6.16797 50.8838C6.16797 49.5578 7.24343 48.4826 8.56934 48.4824L8.81445 48.4951ZM51.4336 48.4951C52.6444 48.6181 53.5889 49.6406 53.5889 50.8838L53.5771 51.1289C53.4541 52.3394 52.4314 53.284 51.1885 53.2842L50.9424 53.2725C49.8126 53.1575 48.9147 52.2587 48.7998 51.1289L48.7871 50.8838C48.7871 49.5578 49.8625 48.4825 51.1885 48.4824L51.4336 48.4951ZM52.2102 18.0754C52.7728 18.638 53.0889 19.4011 53.0889 20.1967V40.0779C53.0889 40.3432 52.9835 40.5976 52.7959 40.7852L48.5947 44.9873L41.0908 52.4902C40.9032 52.6778 40.6488 52.7832 40.3835 52.7832H20.2026C19.407 52.7832 18.6439 52.4671 18.0813 51.9045L7.54762 41.3709C6.98502 40.8083 6.66895 40.0452 6.66895 39.2495V19.3684C6.66895 19.1031 6.77433 18.8487 6.96191 18.6611L12.0645 13.5596L18.667 6.95605C18.8546 6.76847 19.109 6.66309 19.3743 6.66309H39.5552C40.3509 6.66309 41.1139 6.97916 41.6765 7.54177L52.2102 18.0754ZM51.1885 50.4824C50.967 50.4825 50.7871 50.6623 50.7871 50.8838C50.7875 51.1049 50.9673 51.2841 51.1885 51.2842C51.4096 51.284 51.5885 51.1049 51.5889 50.8838C51.5889 50.6624 51.4098 50.4826 51.1885 50.4824ZM8.56934 50.4824C8.348 50.4826 8.16797 50.6624 8.16797 50.8838C8.16834 51.1049 8.34822 51.284 8.56934 51.2842C8.79047 51.284 8.96936 51.1049 8.96973 50.8838C8.96973 50.6624 8.7907 50.4826 8.56934 50.4824ZM18.983 49.9772C19.4991 50.4933 20.1991 50.7832 20.929 50.7832H26.127C27.6468 50.7832 28.8789 49.5511 28.8789 48.0312C28.8789 46.5114 27.6468 45.2793 26.127 45.2793H20.929C18.4772 45.2793 17.2494 48.2435 18.983 49.9772ZM30.8789 48.0312C30.8789 49.5511 32.111 50.7832 33.6309 50.7832H38.8297C39.5596 50.7832 40.2597 50.4932 40.7758 49.977C42.5092 48.2433 41.2813 45.2793 38.8297 45.2793H33.6309C32.111 45.2793 30.8789 46.5114 30.8789 48.0312ZM8.66895 38.9346C8.66895 39.401 8.85425 39.8484 9.18408 40.1782L11.4065 42.4006C11.9691 42.9632 12.7321 43.2793 13.5278 43.2793H25.8789C27.5358 43.2793 28.8789 41.9361 28.8789 40.2793V40.1758C28.8789 38.5189 27.5358 37.1758 25.8789 37.1758H10.4277C9.45638 37.1758 8.66895 37.9632 8.66895 38.9346ZM30.8789 40.2793C30.8789 41.9361 32.2221 43.2793 33.8789 43.2793H46.23C47.0257 43.2793 47.7887 42.9632 48.3513 42.4006L50.5737 40.1782C50.9036 39.8484 51.0889 39.401 51.0889 38.9346C51.0889 37.9632 50.3014 37.1758 49.3301 37.1758H33.8789C32.2221 37.1758 30.8789 38.5189 30.8789 40.1758V40.2793ZM8.66895 32.5742C8.66895 34.011 9.8337 35.1758 11.2705 35.1758H26.2773C27.7141 35.1758 28.8789 34.011 28.8789 32.5742C28.8789 31.1374 27.7141 29.9727 26.2773 29.9727H11.2705C9.8337 29.9727 8.66895 31.1374 8.66895 32.5742ZM30.8789 32.5742C30.8789 34.011 32.0437 35.1758 33.4805 35.1758H48.4873C49.9241 35.1758 51.0889 34.011 51.0889 32.5742C51.0889 31.1374 49.9241 29.9727 48.4873 29.9727H33.4805C32.0437 29.9727 30.8789 31.1374 30.8789 32.5742ZM8.66895 25.0713C8.66895 26.6737 9.96793 27.9727 11.5703 27.9727H25.9775C27.5799 27.9727 28.8789 26.6737 28.8789 25.0713C28.8789 23.4689 27.5799 22.1699 25.9775 22.1699H11.5703C9.96793 22.1699 8.66895 23.4689 8.66895 25.0713ZM30.8789 25.0713C30.8789 26.6737 32.1779 27.9727 33.7803 27.9727H48.1875C49.7899 27.9727 51.0889 26.6737 51.0889 25.0713C51.0889 23.4689 49.7899 22.1699 48.1875 22.1699H33.7803C32.1779 22.1699 30.8789 23.4689 30.8789 25.0713ZM8.74904 19.7031C8.69776 19.7544 8.66895 19.8239 8.66895 19.8965C8.66895 20.0475 8.79137 20.1699 8.9424 20.1699H26.4272C27.7813 20.1699 28.8789 19.0723 28.8789 17.7183C28.8789 16.3642 27.7813 15.2666 26.4272 15.2666H14.4282C13.6325 15.2666 12.8695 15.5827 12.3069 16.1453L8.74904 19.7031ZM30.8789 17.7183C30.8789 19.0723 31.9766 20.1699 33.3306 20.1699H50.8154C50.9664 20.1699 51.0889 20.0475 51.0889 19.8965C51.0889 19.8239 51.0601 19.7544 51.0088 19.7031L47.4509 16.1453C46.8883 15.5827 46.1253 15.2666 45.3296 15.2666H33.3306C31.9766 15.2666 30.8789 16.3642 30.8789 17.7183ZM19.1149 9.33726C17.6649 10.7873 18.6918 13.2666 20.7425 13.2666H26.5771C27.8484 13.2666 28.8789 12.2361 28.8789 10.9648C28.8789 9.69362 27.8484 8.66309 26.5771 8.66309H20.7425C20.132 8.66309 19.5466 8.90559 19.1149 9.33726ZM30.8789 10.9648C30.8789 12.2361 31.9094 13.2666 33.1807 13.2666H39.0162C41.0667 13.2666 42.0937 10.7875 40.6439 9.33743C40.2122 8.90566 39.6267 8.66309 39.0162 8.66309H33.1807C31.9094 8.66309 30.8789 9.69362 30.8789 10.9648ZM8.81445 6.47656C10.0252 6.5995 10.9697 7.62202 10.9697 8.86523L10.958 9.11035C10.8349 10.3208 9.81226 11.2655 8.56934 11.2656L8.32324 11.2539C7.1936 11.1389 6.29557 10.24 6.18066 9.11035L6.16797 8.86523C6.16797 7.53928 7.24343 6.46406 8.56934 6.46387L8.81445 6.47656ZM51.4336 6.47656C52.6444 6.5995 53.5889 7.62202 53.5889 8.86523L53.5771 9.11035C53.454 10.3208 52.4314 11.2655 51.1885 11.2656L50.9424 11.2539C49.8127 11.139 48.9147 10.2401 48.7998 9.11035L48.7871 8.86523C48.7871 7.53921 49.8625 6.46395 51.1885 6.46387L51.4336 6.47656ZM8.56934 8.46387C8.348 8.46406 8.16797 8.64385 8.16797 8.86523C8.16838 9.08627 8.34825 9.26543 8.56934 9.26562C8.79045 9.26546 8.96931 9.08628 8.96973 8.86523C8.96973 8.64383 8.7907 8.46403 8.56934 8.46387ZM51.1885 8.46387C50.967 8.46395 50.7871 8.64378 50.7871 8.86523C50.7875 9.08633 50.9673 9.26554 51.1885 9.26562C51.4096 9.26546 51.5885 9.08628 51.5889 8.86523C51.5889 8.64383 51.4098 8.46403 51.1885 8.46387Z" fill="white"/>
</svg>
