<svg width="60" height="60" viewBox="0 0 60 60" fill="none" xmlns="http://www.w3.org/2000/svg">
<path d="M13 58.5V57.5C13 56.9477 13.4477 56.5 14 56.5H17M25 10L29.1056 1.78885C29.4741 1.05181 30.5259 1.05181 30.8944 1.78885L35 10M25 10V22M25 10H31M17 56.5H30H43M17 56.5L21 42.25M22 23L7.87824 27.1535C7.38499 27.2985 7.48588 28.0249 8 28.03M31 16H8M22 11L7.8781 15.1535C7.39935 15.2943 7.50098 16 8 16M8 16V19.5C8 20.0523 7.55228 20.5 7 20.5H5H11.5M8 28.03L30 28.25L35.056 28.1994M8 28.03V31C8 31.5523 7.55228 32 7 32H5H11.5M47 58.5V57.5C47 56.9477 46.5523 56.5 46 56.5H43M35 10V16M35 10L52.1265 15.138C52.6123 15.2837 52.5072 16 52 16M35 16V27.8623C35 27.9537 35.0125 28.0446 35.0372 28.1326L35.056 28.1994M35 16H52M43 56.5L29.5 47.7557M43 56.5L38.897 41.883M35.056 28.1994L52 28.03M35.056 28.1994L36.1228 32M35 22L52.1264 27.1379C52.6266 27.288 52.5222 28.0248 52 28.03M52 16V20.5M52 20.5H55M52 20.5H48.5M52 28.03V32M52 32H55M52 32H48.5M21 42.25L29.5 47.7557M21 42.25L23.8772 32M29.5 47.7557L21.5 53M38.897 41.883L32.5 46M38.897 41.883L36.1228 32M38.897 41.883L29.9403 35.9895M23.8772 32L24.9628 28.1326C24.9875 28.0446 25 27.9537 25 27.8623V22M23.8772 32L29.9403 35.9895M36.1228 32L33.0315 33.9947M24.5 39.5L29.9403 35.9895M25 22H31" stroke="white" stroke-width="2" stroke-linecap="round" stroke-linejoin="round"/>
</svg>
