<svg width="60" height="60" viewBox="0 0 60 60" fill="none" xmlns="http://www.w3.org/2000/svg">
<path d="M6.3 50.3557H4C3.44772 50.3557 3 50.8034 3 51.3557V56C3 56.5523 3.44771 57 4 57H57C57.5523 57 58 56.5523 58 56V51.3557C58 50.8034 57.5523 50.3557 57 50.3557H48.4667H41.8667H25.7333M6.3 50.3557L13.8182 24.1477M6.3 50.3557H25.7333M25.7333 26.428V50.3557M41.8667 20.3936L42.1842 26.5215C42.2117 27.053 42.6507 27.4698 43.1829 27.4698H44.9833M48.1 17.4623L47.7686 26.5064C47.7489 27.0441 47.3073 27.4698 46.7693 27.4698H44.9833M44.9833 27.4698V34.1141M16.5667 11.306C13.9363 12.8378 12.1667 15.7008 12.1667 18.9799C12.1667 23.8726 16.1066 27.8389 20.9667 27.8389C21.8431 27.8389 22.6896 27.7099 23.4885 27.4698M16.5667 11.306C17.861 10.5522 19.3638 10.1208 20.9667 10.1208C25.8268 10.1208 29.7667 14.0871 29.7667 18.9799C29.7667 22.9903 27.1196 26.3783 23.4885 27.4698M16.5667 11.306L40.3274 2.22027C40.3757 2.2018 40.4254 2.187 40.476 2.17666C41.0439 2.06081 41.6315 2 42.2333 2C47.0934 2 51.0333 5.96634 51.0333 10.8591C51.0333 17.1296 43.56 19.7416 37.7083 21.9947L23.4885 27.4698M48.1 10.4899C48.1 12.9363 46.1301 14.9195 43.7 14.9195C41.2699 14.9195 39.3 12.9363 39.3 10.4899C39.3 8.04357 41.2699 6.0604 43.7 6.0604C46.1301 6.0604 48.1 8.04357 48.1 10.4899ZM25.3667 19.349C25.3667 21.7954 23.3967 23.7785 20.9667 23.7785C18.5366 23.7785 16.5667 21.7954 16.5667 19.349C16.5667 16.9026 18.5366 14.9195 20.9667 14.9195C23.3967 14.9195 25.3667 16.9026 25.3667 19.349Z" stroke="white" stroke-width="2" stroke-linecap="round" stroke-linejoin="round"/>
</svg>
