<svg width="60" height="60" viewBox="0 0 60 60" fill="none" xmlns="http://www.w3.org/2000/svg">
<rect x="10" y="26" width="19" height="3" rx="1.5" stroke="white" stroke-width="2"/>
<path d="M14 29L9.25704 51.2919C9.12468 51.914 9.5991 52.5 10.2352 52.5H30.5M30.5 52.5L28.6809 43M30.5 52.5H38M26 29L28.6809 43M28.6809 43L30.3445 34.3119C30.4348 33.8407 30.8469 33.5 31.3267 33.5H37.1886C37.6615 33.5 38.0697 33.8312 38.1672 34.294L40 43M40 43L38 52.5M40 43L40.8392 38.8039C40.9327 38.3365 41.3431 38 41.8198 38H47.6857C48.1599 38 48.5689 38.333 48.665 38.7974L51.2512 51.2974C51.3796 51.918 50.9057 52.5 50.2719 52.5H38" stroke="white" stroke-width="2" stroke-linecap="round" stroke-linejoin="round"/>
<mask id="path-3-inside-1_258_4418" fill="white">
<path d="M27.5 8C29.433 8 31 9.567 31 11.5C31 12.2388 30.7698 12.9233 30.379 13.488C30.3538 13.5244 30.3545 13.5728 30.3806 13.6085C30.7686 14.1394 31 14.792 31 15.5C31 17.2751 29.5611 18.7136 27.7861 18.7139C27.6911 18.7139 27.5968 18.7095 27.5038 18.7014C27.4612 18.6976 27.4205 18.7205 27.4017 18.7589C26.7909 20.0013 25.514 20.8573 24.0361 20.8574C23.7084 20.8574 23.3906 20.8138 23.0877 20.7346C23.037 20.7213 22.9842 20.7481 22.9647 20.7968C22.4494 22.0876 21.1885 23 19.7139 23C17.781 22.9998 16.2139 21.4329 16.2139 19.5C16.2139 18.9839 16.3258 18.4937 16.5264 18.0526C16.5479 18.0054 16.5312 17.9494 16.4875 17.9215C15.5941 17.3507 15 16.3527 15 15.2139C15.0002 13.439 16.439 12.0002 18.2139 12C18.5175 12 18.8115 12.0426 19.09 12.1214C19.1539 12.1395 19.2193 12.0939 19.2246 12.0277C19.356 10.3731 20.7404 9.07129 22.4287 9.07129C23.1515 9.07132 23.8181 9.31061 24.3549 9.7134C24.4044 9.75054 24.4759 9.73688 24.508 9.684C25.122 8.67448 26.2321 8 27.5 8Z"/>
</mask>
<path d="M31 15.5H33H31ZM27.7861 18.7139V20.7139H27.7864L27.7861 18.7139ZM24.0361 20.8574V22.8574H24.0364L24.0361 20.8574ZM19.7139 23L19.7137 25H19.7139V23ZM15 15.2139L13 15.2136V15.2139H15ZM18.2139 12V10H18.2136L18.2139 12ZM22.4287 9.07129L22.4288 7.07129H22.4287V9.07129ZM24.3549 9.7134L23.1546 11.3132L24.3549 9.7134ZM24.508 9.684L22.7993 8.64471L24.508 9.684ZM30.379 13.488L32.0235 14.6262L30.379 13.488ZM30.3806 13.6085L31.9953 12.4284L30.3806 13.6085ZM19.09 12.1214L19.6346 10.197L19.09 12.1214ZM19.2246 12.0277L21.2183 12.186L19.2246 12.0277ZM16.5264 18.0526L18.347 18.8806L16.5264 18.0526ZM16.4875 17.9215L15.4107 19.6069L16.4875 17.9215ZM27.4017 18.7589L29.1965 19.6412L27.4017 18.7589ZM23.0877 20.7346L22.5815 22.6695L23.0877 20.7346ZM22.9647 20.7968L24.8222 21.5384L22.9647 20.7968ZM27.5 8V10C28.3284 10 29 10.6716 29 11.5H31H33C33 8.46243 30.5376 6 27.5 6V8ZM31 11.5H29C29 11.8165 28.9029 12.1064 28.7344 12.3499L30.379 13.488L32.0235 14.6262C32.6368 13.7401 33 12.6612 33 11.5H31ZM30.3806 13.6085L28.7658 14.7885C28.9155 14.9934 29 15.2362 29 15.5H31H33C33 14.3478 32.6216 13.2854 31.9953 12.4284L30.3806 13.6085ZM31 15.5H29C29 16.1702 28.4568 16.7138 27.7859 16.7139L27.7861 18.7139L27.7864 20.7139C30.6655 20.7135 33 18.3799 33 15.5H31ZM27.7861 18.7139V16.7139C27.752 16.7139 27.7161 16.7123 27.6788 16.709L27.5038 18.7014L27.3288 20.6937C27.4775 20.7067 27.6302 20.7139 27.7861 20.7139V18.7139ZM27.4017 18.7589L25.6068 17.8765C25.3187 18.4626 24.721 18.8573 24.0359 18.8574L24.0361 20.8574L24.0364 22.8574C26.307 22.8572 28.2631 21.54 29.1965 19.6412L27.4017 18.7589ZM24.0361 20.8574V18.8574C23.8867 18.8574 23.7388 18.8376 23.5938 18.7997L23.0877 20.7346L22.5815 22.6695C23.0424 22.79 23.5302 22.8574 24.0361 22.8574V20.8574ZM22.9647 20.7968L21.1073 20.0552C20.8846 20.6128 20.3418 21 19.7139 21V23V25C22.0353 25 24.0141 23.5623 24.8222 21.5384L22.9647 20.7968ZM19.7139 23L19.7141 21C18.8854 20.9999 18.2139 20.3281 18.2139 19.5H16.2139H14.2139C14.2139 22.5376 16.6766 24.9997 19.7137 25L19.7139 23ZM16.2139 19.5H18.2139C18.2139 19.2756 18.262 19.0673 18.347 18.8806L16.5264 18.0526L14.7058 17.2247C14.3895 17.9202 14.2139 18.6921 14.2139 19.5H16.2139ZM16.4875 17.9215L17.5643 16.2361C17.2184 16.0151 17 15.638 17 15.2139H15H13C13 17.0674 13.9698 18.6862 15.4107 19.6069L16.4875 17.9215ZM15 15.2139L17 15.2141C17.0001 14.5436 17.5436 14.0001 18.2141 14L18.2139 12L18.2136 10C15.3344 10.0004 13.0004 12.3344 13 15.2136L15 15.2139ZM18.2139 12V14C18.3297 14 18.4405 14.0162 18.5453 14.0458L19.09 12.1214L19.6346 10.197C19.1825 10.0691 18.7054 10 18.2139 10V12ZM19.2246 12.0277L21.2183 12.186C21.2678 11.563 21.7919 11.0713 22.4287 11.0713V9.07129V7.07129C19.6888 7.07129 17.4443 9.18327 17.2309 11.8693L19.2246 12.0277ZM22.4287 9.07129L22.4286 11.0713C22.7023 11.0713 22.9508 11.1602 23.1546 11.3132L24.3549 9.7134L25.5552 8.11363C24.6854 7.46098 23.6006 7.07134 22.4288 7.07129L22.4287 9.07129ZM24.508 9.684L26.2168 10.7233C26.4834 10.285 26.9595 10 27.5 10V8V6C25.5046 6 23.7607 7.06399 22.7993 8.64471L24.508 9.684ZM24.3549 9.7134L23.1546 11.3132C24.1463 12.0572 25.569 11.7884 26.2168 10.7233L24.508 9.684L22.7993 8.64471C23.3827 7.68537 24.6625 7.44385 25.5552 8.11363L24.3549 9.7134ZM30.379 13.488L28.7344 12.3499C28.2235 13.0881 28.2384 14.0668 28.7658 14.7885L30.3806 13.6085L31.9953 12.4284C32.4706 13.0787 32.4841 13.9607 32.0235 14.6262L30.379 13.488ZM19.09 12.1214L18.5453 14.0458C19.826 14.4083 21.1134 13.5065 21.2183 12.186L19.2246 12.0277L17.2309 11.8693C17.3253 10.6812 18.4818 9.87074 19.6346 10.197L19.09 12.1214ZM16.5264 18.0526L18.347 18.8806C18.7817 17.9247 18.4445 16.7984 17.5643 16.2361L16.4875 17.9215L15.4107 19.6069C14.6179 19.1004 14.314 18.0862 14.7058 17.2247L16.5264 18.0526ZM27.5038 18.7014L27.6788 16.709C26.8148 16.6332 25.9907 17.0955 25.6068 17.8765L27.4017 18.7589L29.1965 19.6412C28.8503 20.3454 28.1075 20.7621 27.3288 20.6937L27.5038 18.7014ZM23.0877 20.7346L23.5938 18.7997C22.5626 18.5299 21.4991 19.0738 21.1073 20.0552L22.9647 20.7968L24.8222 21.5384C24.4692 22.4224 23.5114 22.9127 22.5815 22.6695L23.0877 20.7346Z" fill="white" mask="url(#path-3-inside-1_258_4418)"/>
</svg>
