<svg width="60" height="60" viewBox="0 0 60 60" fill="none" xmlns="http://www.w3.org/2000/svg">
<path d="M36 2H4C3.44772 2 3 2.44772 3 3V57.5C3 58.0523 3.44772 58.5 4 58.5H28H44.5C45.0523 58.5 45.5 58.0523 45.5 57.5V35.8661M36 2L45.5 12M36 2V11C36 11.5523 36.4477 12 37 12H45.5M45.5 12V19.8661M7.5 22H32.5M7.5 28H22.5M7.5 34.5H32.5M7.5 40.5H22.5M40.8923 43.8468L35.4641 46.9808C34.7975 47.3657 33.9641 46.8845 33.9641 46.1147V39.8468M40.8923 43.8468L33.9641 39.8468M40.8923 43.8468L45.5 35.8661M33.9641 39.8468L42.7141 24.6913L45.5 19.8661M52.8923 23.0622L55.8923 17.866C56.1685 17.3877 56.0046 16.7761 55.5263 16.5L50.3302 13.5C49.8519 13.2239 49.2403 13.3877 48.9641 13.866L45.9641 19.0622M52.8923 23.0622L45.9641 19.0622M52.8923 23.0622L49.6423 28.6913L45.5 35.8661M45.9641 19.0622L45.5 19.8661M32.5 7.5V13.5C32.5 14.0523 32.0523 14.5 31.5 14.5H8.5C7.94772 14.5 7.5 14.0523 7.5 13.5V7.5C7.5 6.94772 7.94772 6.5 8.5 6.5H31.5C32.0523 6.5 32.5 6.94772 32.5 7.5Z" stroke="white" stroke-width="2" stroke-linecap="round" stroke-linejoin="round"/>
</svg>
