<svg width="60" height="60" viewBox="0 0 60 60" fill="none" xmlns="http://www.w3.org/2000/svg">
<path d="M22 11V23.6977C22 24.2257 21.8805 24.7469 21.6506 25.2222L16.6774 35.5M45 40.5L50.5389 50.2745C51.861 52.6077 50.1756 55.5 47.4938 55.5H12.5817C9.99974 55.5 8.30657 52.7998 9.4312 50.4755L16.6774 35.5M38 11V13.5M16.6774 35.5C19.2849 33.3333 25.8 30.3 31 35.5C36.2 40.7 35 39.5 34 38.5M37.5 41H40M37.5 34.5H39.5M37.5 24H41.5" stroke="white" stroke-width="2" stroke-linecap="round"/>
<rect x="32" y="14" width="15" height="4" rx="2" stroke="white" stroke-width="2"/>
<rect x="19" y="5" width="22" height="5" rx="2.5" stroke="white" stroke-width="2"/>
<path d="M34 18V50C34 53.0376 36.4624 55.5 39.5 55.5C42.5376 55.5 45 53.0376 45 50V18" stroke="white" stroke-width="2"/>
</svg>
