<svg width="55" height="44" viewBox="0 0 55 44" fill="none" xmlns="http://www.w3.org/2000/svg">
<path d="M35 11.7695V35.7695H1V11.7695H35Z" stroke="#141414" stroke-width="2"/>
<path d="M18.1728 36.8271V42.5387M18.1728 42.5387H12.9805M18.1728 42.5387H23.3651" stroke="#141414" stroke-width="2" stroke-linecap="round" stroke-linejoin="round"/>
<path d="M44.6533 9.78809C46.9686 9.78813 48.8457 11.6651 48.8457 13.9805C48.8457 15.207 48.3197 16.3091 47.4785 17.0771C47.078 17.4429 46.7687 17.9895 46.7686 18.6338V30.6338H42.5381V18.6338C42.538 17.9895 42.2277 17.4429 41.8271 17.0771C40.9862 16.3092 40.461 15.2068 40.4609 13.9805C40.4609 11.6651 42.338 9.78809 44.6533 9.78809Z" stroke="#141414" stroke-width="2"/>
<path d="M23.8848 36.8271C25.0963 38.904 28.8694 42.954 34.2694 42.5386C41.0194 42.0194 44.654 35.7886 44.654 31.6348" stroke="#141414" stroke-width="2" stroke-linecap="round" stroke-linejoin="round"/>
<path d="M35.3086 5.67308C35.3086 5.67308 38.9432 1 44.6547 1C50.3663 1 54.0009 5.67308 54.0009 5.67308" stroke="#141414" stroke-width="2" stroke-linecap="round" stroke-linejoin="round"/>
<path d="M37.9043 8.78824C37.9043 8.78824 40.5005 5.67285 44.6543 5.67285C48.8081 5.67285 50.8851 8.78824 50.8851 8.78824" stroke="#141414" stroke-width="2" stroke-linecap="round" stroke-linejoin="round"/>
</svg>
