<svg width="60" height="60" viewBox="0 0 60 60" fill="none" xmlns="http://www.w3.org/2000/svg">
<mask id="path-1-outside-1_465_3144" maskUnits="userSpaceOnUse" x="1" y="5.09521" width="59" height="50" fill="black">
<rect fill="white" x="1" y="5.09521" width="59" height="50"/>
<path fill-rule="evenodd" clip-rule="evenodd" d="M30.3308 6.13068C29.7545 6.34417 20.6782 9.88203 20.6013 9.92319C20.3215 10.073 20.3187 10.1099 20.3197 13.6095C20.3202 15.417 20.3467 17.2139 20.3785 17.6026C20.5458 19.6459 21.0608 21.5069 21.9504 23.2828C22.1848 23.7507 22.3635 24.1466 22.3475 24.1626C22.3315 24.1786 21.9547 24.2125 21.51 24.238C20.3668 24.3034 19.0304 24.4437 17.9368 24.6129C17.4203 24.6929 16.9929 24.7583 16.987 24.7583C16.981 24.7583 16.9641 24.5264 16.9494 24.2429C16.9301 23.8735 16.8854 23.6501 16.7913 23.4538C16.6242 23.1056 16.2119 22.6859 15.888 22.5345C15.7498 22.4699 14.179 22.0107 12.3974 21.5143C8.70892 20.4864 8.63902 20.4749 7.9632 20.7807C7.52715 20.9781 7.07949 21.4308 6.93414 21.8214C6.88154 21.9628 5.75041 25.8576 4.42052 30.4765C1.76702 39.6923 1.86508 39.2867 2.12351 39.9775C2.27057 40.3705 2.68254 40.8435 3.01977 41.0064C3.1567 41.0726 4.75292 41.5385 6.56687 42.0417C10.1758 43.0429 10.3038 43.0663 10.9168 42.837C11.5188 42.6117 11.9436 42.1045 12.1609 41.3518C12.2146 41.1655 12.2773 41.0132 12.3001 41.0132C12.323 41.0132 12.5207 41.1936 12.7395 41.414L13.1373 41.8149L13.07 42.1286C12.8447 43.1788 13.5883 44.4421 14.6129 44.75C14.8097 44.8092 14.8673 44.8537 14.8555 44.9375C14.847 44.998 14.8142 45.1937 14.7828 45.3726C14.6135 46.3347 15.2838 47.5398 16.1724 47.8707C16.3312 47.9298 16.4812 47.9961 16.5058 48.018C16.5304 48.0399 16.5061 48.2375 16.4519 48.457C16.1004 49.8817 17.2605 51.3155 18.7675 51.319C19.0277 51.3196 19.5078 51.2045 19.8571 51.0578C19.9344 51.0252 19.9884 51.0913 20.1147 51.3727C20.4541 52.129 21.3935 52.7318 22.2328 52.7318C22.5338 52.7318 23.0019 52.6072 23.3455 52.4355L23.6144 52.3013L24.1675 52.8363C24.9701 53.6128 25.6338 53.9111 26.5589 53.9111C27.4244 53.9111 28.1914 53.636 28.7871 53.1119C29.2956 52.6645 29.7438 51.903 29.8353 51.3309L29.8739 51.0893L30.3676 51.5432C31.226 52.3323 31.8845 52.6159 32.8548 52.6146C33.9753 52.613 34.9332 52.1017 35.5819 51.1587C35.7897 50.8567 36.0171 50.271 36.0741 49.8905C36.0971 49.7372 36.1295 49.6118 36.1463 49.6118C36.1629 49.6118 36.3651 49.6798 36.5955 49.7629C38.3697 50.4029 40.3048 49.383 40.8455 47.5228C40.9709 47.0914 40.9401 46.0136 40.7908 45.6111C40.684 45.3233 40.7205 45.2562 40.9844 45.2545C41.4757 45.2513 42.3624 44.8115 42.8396 44.3344C43.1124 44.0615 43.492 43.4948 43.5795 43.2297C43.6419 43.0406 43.6445 43.0395 44.2959 42.9366C45.8486 42.6914 47.2113 42.2656 48.4662 41.6336L48.8642 41.4333L48.9954 41.7496C49.2853 42.4493 49.9121 42.8936 50.6792 42.9435C51.0696 42.9689 51.2712 42.9206 54.4149 42.0485C56.4492 41.4843 57.8498 41.0659 58.026 40.97C58.6018 40.6566 58.9589 40.0658 58.9967 39.3641C59.0201 38.9287 58.9858 38.8023 56.6009 30.5299C55.2702 25.9141 54.1259 21.9988 54.058 21.8292C53.8805 21.3856 53.5394 21.0274 53.0786 20.8006C52.3922 20.4627 52.3268 20.4733 48.502 21.543C46.4943 22.1045 45.1094 22.5216 44.9585 22.6099C44.3691 22.9554 44.0319 23.5995 44.0343 24.3755L44.0357 24.8466L42.2223 25.628L40.4089 26.4093L39.9138 26.0866C39.6415 25.9091 39.1099 25.6017 38.7324 25.4034C38.3549 25.2051 38.046 25.0347 38.046 25.0247C38.046 25.0148 38.1942 24.7718 38.3753 24.4849C39.262 23.08 39.9943 21.2558 40.3343 19.605C40.6235 18.2008 40.6463 17.8425 40.6793 14.1749C40.6965 12.2574 40.6927 10.5692 40.6708 10.4236C40.6465 10.2614 40.5774 10.1071 40.4926 10.0254C40.3555 9.89345 30.691 6.08945 30.5075 6.09522C30.4589 6.09675 30.3794 6.11271 30.3308 6.13068ZM26.7677 8.85885C24.7918 9.63113 22.8222 10.3998 22.3908 10.567L21.6064 10.8711L21.6311 14.4724C21.6583 18.4394 21.6606 18.4681 22.0816 20.0794C22.3969 21.2861 23.0703 22.86 23.6763 23.807L23.9156 24.1809L24.4288 24.1543C24.9036 24.1297 24.9803 24.1072 25.4547 23.8522L25.9675 23.5766L25.5842 22.9915C24.9025 21.9512 24.2618 20.4618 23.9699 19.2389C23.6899 18.0663 23.661 17.7134 23.6326 15.1206C23.6022 12.3534 23.607 12.3135 23.9895 12.1362C24.2869 11.9983 30.2365 9.69239 30.4019 9.65092C30.5135 9.62289 31.359 9.92702 33.7538 10.8567C35.5153 11.5406 37.0227 12.148 37.1037 12.2066C37.3648 12.3955 37.3914 12.5951 37.3944 14.3928C37.3991 17.2822 37.2628 18.5832 36.8031 20.033C36.4412 21.1745 35.7883 22.4938 35.1564 23.3608C34.9965 23.5801 34.8657 23.7701 34.8657 23.7829C34.8657 23.7958 35.0842 23.879 35.3512 23.968C35.6183 24.0569 36.062 24.2181 36.3374 24.3262L36.8381 24.5228L36.9391 24.3902C37.1653 24.0933 37.7742 23.0198 38.0719 22.3931C38.617 21.2456 39.0211 19.9193 39.2631 18.4835C39.3457 17.9932 39.3657 17.3221 39.3853 14.3886L39.4087 10.8803L34.9966 9.16175C32.5698 8.2166 30.534 7.44585 30.4723 7.44903C30.4107 7.45215 28.7436 8.08662 26.7677 8.85885ZM27.6315 12.0575L24.9026 13.1266L24.9284 15.4824C24.9532 17.7526 24.9598 17.8639 25.1083 18.549C25.4118 19.9486 25.969 21.2734 26.7374 22.4225C26.9665 22.7652 27.1799 23.0615 27.2114 23.081C27.243 23.1006 27.5536 23.0567 27.9017 22.9835C28.4262 22.8733 28.716 22.8508 29.5947 22.8522C30.7453 22.854 31.311 22.9233 32.6726 23.2292L33.4817 23.4111L33.7079 23.1583C34.0939 22.7266 34.624 21.883 35.0132 21.0807C35.4045 20.2743 35.5499 19.8866 35.749 19.1186C36.0358 18.0121 36.0536 17.8151 36.0832 15.4235L36.1115 13.1266L33.3466 12.0518C31.8259 11.4606 30.5319 10.9795 30.471 10.9826C30.4101 10.9858 29.1323 11.4695 27.6315 12.0575ZM31.2751 17.0711L29.2413 19.1015L28.4712 18.3373C27.7271 17.5989 27.6927 17.5731 27.4514 17.5731C27.1406 17.5731 27.0001 17.646 26.8861 17.8664C26.7661 18.0984 26.7742 18.3171 26.9108 18.5379C27.0906 18.8286 28.9277 20.5524 29.1047 20.5965C29.1915 20.6182 29.3373 20.6081 29.4286 20.5741C29.6213 20.5025 34.0048 16.1545 34.1386 15.9022C34.2562 15.6806 34.2007 15.393 34.0023 15.1945C33.8812 15.0734 33.791 15.0407 33.5787 15.0407H33.3089L31.2751 17.0711ZM8.40809 21.9646C8.3194 22.0127 8.20779 22.1276 8.16009 22.2199C8.0698 22.3944 3.31082 38.8416 3.25699 39.1649C3.21765 39.4013 3.36984 39.7237 3.57891 39.8471C3.66749 39.8992 5.18238 40.3424 6.94544 40.8317C9.3305 41.4936 10.1995 41.7122 10.3408 41.6857C10.4453 41.6661 10.6025 41.5751 10.6903 41.4835C10.8545 41.3121 10.8624 41.2853 14.9911 26.9515C15.3948 25.5502 15.7249 24.3443 15.7247 24.2718C15.7244 24.0676 15.5105 23.7648 15.2984 23.6681C14.9916 23.5283 8.94091 21.8724 8.74597 21.8749C8.64879 21.8761 8.49673 21.9165 8.40809 21.9646ZM48.8532 22.761C45.7775 23.6141 45.6666 23.6498 45.4815 23.8465C45.3425 23.9941 45.2901 24.1049 45.2901 24.2511C45.2901 24.3618 46.2861 27.9069 47.5036 32.1291C48.7211 36.3513 49.8106 40.1371 49.9247 40.542C50.1533 41.3526 50.3283 41.6208 50.6707 41.685C50.8058 41.7104 51.7351 41.4758 54.1101 40.8168C57.61 39.8456 57.5976 39.8504 57.7208 39.4266C57.7764 39.2356 57.564 38.4619 55.3363 30.7361C52.9204 22.3578 52.8883 22.253 52.6839 22.0638C52.5242 21.9161 52.4263 21.8732 52.2552 21.8757C52.1333 21.8775 50.6024 22.2759 48.8532 22.761ZM29.0057 24.1181C27.0826 24.2393 25.1834 25.1896 23.5192 26.8633C23.2215 27.1628 22.8013 27.6266 22.5854 27.894C22.0144 28.6014 21.1785 29.8797 20.8353 30.57C20.5787 31.0862 20.5332 31.2304 20.5092 31.6054C20.4288 32.8578 21.2724 33.8817 22.5316 34.06C23.0244 34.1298 23.4055 34.0643 23.8931 33.8257C24.2196 33.666 24.4267 33.4641 25.8767 31.8917C26.7672 30.926 27.6333 30.0123 27.8014 29.8611C28.1597 29.5389 28.9054 29.1576 29.4474 29.0195C29.9219 28.8986 30.8415 28.8854 31.2689 28.9935C31.7322 29.1106 32.2553 29.334 32.6271 29.5734C32.8281 29.7029 34.9142 31.7457 38.1087 34.9414C42.9797 39.8142 43.2763 40.1229 43.4583 40.5067C43.5642 40.7302 43.6867 41.0841 43.7304 41.293C43.7741 41.5018 43.8218 41.6847 43.8363 41.6992C43.918 41.7809 45.7245 41.3633 46.5563 41.0704C47.1717 40.8537 48.4136 40.2502 48.4529 40.1487C48.474 40.0942 44.4904 26.1399 44.4323 26.0643C44.4241 26.0538 43.5253 26.4315 42.4347 26.9036C41.3441 27.3757 40.3923 27.7619 40.3194 27.7619C40.2465 27.7619 39.8228 27.5361 39.3778 27.2601C37.8554 26.3159 36.2254 25.5784 34.4535 25.0321C33.4935 24.7361 32.0909 24.3838 31.4972 24.2896C31.2803 24.2551 31.064 24.212 31.0163 24.1938C30.8475 24.129 29.5861 24.0815 29.0057 24.1181ZM10.204 24.4675C9.76485 24.641 9.29057 25.0961 9.05923 25.5661C8.89044 25.9089 8.86876 26.0096 8.86676 26.4596C8.86482 26.9086 8.88579 27.0118 9.04975 27.3585C9.28497 27.8561 9.62432 28.1952 10.1211 28.4292C10.4631 28.5903 10.5764 28.6139 11.0134 28.6148C11.4544 28.6157 11.5596 28.594 11.8968 28.4318C12.3675 28.2055 12.7477 27.8363 12.9506 27.4085C13.0859 27.1231 13.1041 27.0112 13.1037 26.4662C13.1033 25.9296 13.0841 25.8089 12.9588 25.5533C12.7703 25.1693 12.271 24.6718 11.9146 24.5128C11.4938 24.3252 10.6227 24.3021 10.204 24.4675ZM49.2406 24.4401C48.3504 24.761 47.8115 25.5233 47.8083 26.4662C47.8053 27.3162 48.2592 28.0348 49.0426 28.4204C49.3854 28.5892 49.4861 28.6109 49.9361 28.6129C50.3838 28.6148 50.4883 28.5937 50.8261 28.4331C51.3241 28.1962 51.6766 27.8455 51.9032 27.3613C52.1424 26.85 52.1584 26.2169 51.9458 25.6715C51.7799 25.246 51.2947 24.7346 50.8556 24.5225C50.4748 24.3385 49.6404 24.2959 49.2406 24.4401ZM21.9678 25.4691C20.4186 25.545 18.4704 25.7683 17.0671 26.0306C16.5757 26.1225 16.5516 26.1343 16.4957 26.3111C16.4637 26.4126 15.6524 29.2254 14.693 32.5618C13.7336 35.8982 12.8848 38.8381 12.807 39.095L12.6655 39.562L13.2502 40.1545L13.8349 40.7471L15.0008 39.5929C16.318 38.2888 16.4653 38.1967 17.3228 38.1418C18.5456 38.0635 19.6416 38.9738 19.7668 40.1716L19.804 40.5273L20.216 40.5953C20.7607 40.6853 21.1818 40.892 21.5413 41.2459C21.91 41.6087 22.1182 42.0214 22.2108 42.5725L22.2828 43.0011L22.6321 43.0328C23.6309 43.1233 24.5514 44.0544 24.6656 45.0895L24.7064 45.4597L25.0863 45.5016C26.3871 45.6451 27.3282 46.9079 27.0999 48.2039C26.9803 48.8828 26.8135 49.1237 25.6257 50.3342L24.5312 51.4494L24.9912 51.8904C25.6099 52.4836 25.9523 52.6418 26.6205 52.6436C27.0503 52.6447 27.1683 52.6217 27.4547 52.4811C28.154 52.1376 28.5712 51.5138 28.6125 50.75C28.642 50.2044 28.5265 49.8545 28.148 49.3417C27.8194 48.8966 27.7902 48.7274 27.9908 48.4298C28.1405 48.2077 28.4085 48.1025 28.6631 48.166C28.7715 48.193 29.319 48.6943 30.2432 49.6131C31.8983 51.2585 32.0335 51.3491 32.8351 51.3491C33.2494 51.3492 33.3555 51.3256 33.6974 51.1572C34.1513 50.9337 34.4628 50.6145 34.681 50.1489C34.8081 49.8777 34.8362 49.7327 34.8362 49.3468C34.8362 48.4862 34.8806 48.5434 31.8623 45.5186C30.4078 44.061 29.1899 42.7936 29.1558 42.7023C29.0748 42.4852 29.132 42.2593 29.3188 42.0585C29.4444 41.9236 29.5185 41.8966 29.7639 41.8966H30.0582L33.3012 45.1294C35.4424 47.2638 36.6286 48.4044 36.7926 48.4866C37.118 48.6496 37.5846 48.7151 37.9871 48.6543C38.6552 48.5535 39.1711 48.1746 39.4717 47.564C39.645 47.212 39.6656 47.1168 39.6656 46.6683C39.6656 45.7649 39.7885 45.9186 36.1456 42.2668C34.3897 40.5067 32.9313 39.0076 32.9045 38.9356C32.7641 38.557 33.0949 38.1273 33.5267 38.1273C33.7674 38.1273 33.7854 38.1438 36.57 40.9144C38.7915 43.1247 39.4321 43.7298 39.6656 43.8383C40.0599 44.0215 40.6852 44.0635 41.1132 43.9356C42.291 43.5835 42.8926 42.1422 42.3093 41.0705C42.2088 40.8857 40.5145 39.154 37.0557 35.7008C31.6032 30.2573 31.7715 30.4097 31.031 30.2391C30.6204 30.1444 30.0228 30.1657 29.6259 30.2892C28.9235 30.5079 28.723 30.6811 26.9625 32.5895C26.0502 33.5784 25.1694 34.4908 25.0051 34.6169C23.6213 35.6795 21.67 35.5867 20.3945 34.3977C19.6226 33.6782 19.2482 32.842 19.2428 31.8256C19.2379 30.9075 19.4631 30.2964 20.3062 28.9398C21.0175 27.7952 21.7094 26.9062 22.6095 25.9803C23.0761 25.5003 23.1442 25.4076 23.0242 25.4152C22.9453 25.4202 22.4699 25.4444 21.9678 25.4691ZM10.6011 25.6882C10.0371 25.9965 9.96267 26.7148 10.4478 27.1681C10.6467 27.3538 11.146 27.4059 11.4114 27.2687C11.9622 26.9838 12.0425 26.2735 11.5751 25.8205C11.3167 25.57 10.9168 25.5157 10.6011 25.6882ZM49.5427 25.6811C49.305 25.7982 49.0593 26.2001 49.0594 26.4714C49.0598 27.3561 50.2465 27.6812 50.7087 26.9232C51.1527 26.1949 50.3136 25.3011 49.5427 25.6811ZM17.0803 39.4336C16.9301 39.4767 16.5607 39.8037 15.7058 40.6504C15.0629 41.2872 14.4861 41.9066 14.4242 42.0267C14.2182 42.4263 14.3213 43.0289 14.646 43.3225C14.943 43.5911 15.4455 43.6737 15.823 43.516C16.0686 43.4134 18.2532 41.2588 18.3906 40.9837C18.688 40.3882 18.4686 39.7435 17.877 39.4748C17.6149 39.3558 17.3922 39.3442 17.0803 39.4336ZM19.3764 41.9596C19.0294 42.1756 16.2656 44.9636 16.1364 45.228C15.8124 45.8913 16.2494 46.6867 16.9831 46.7694C17.4925 46.8268 17.5903 46.7563 19.1634 45.2009C19.9693 44.4038 20.7047 43.6339 20.7977 43.4899C21.0973 43.0254 20.9765 42.3843 20.5242 42.0393C20.2212 41.8082 19.6801 41.7706 19.3764 41.9596ZM21.9717 44.321C21.6981 44.3997 17.9619 48.1068 17.7786 48.4817C17.329 49.4013 18.337 50.3827 19.2463 49.9106C19.3664 49.8482 20.3304 48.9272 21.3884 47.864C23.002 46.2425 23.3223 45.8929 23.3758 45.6953C23.4547 45.4038 23.455 45.3386 23.3787 45.064C23.2973 44.7711 23.0558 44.495 22.7653 44.3631C22.5039 44.2443 22.2802 44.2325 21.9717 44.321ZM24.3433 46.829C24.0985 46.9657 23.9795 47.0785 22.4888 48.5866C21.2573 49.8326 21.2121 49.8866 21.1709 50.1624C21.0949 50.6705 21.3049 51.1018 21.7355 51.3214C21.9854 51.4489 22.3966 51.4728 22.656 51.375C22.8813 51.2899 25.5982 48.5803 25.7479 48.2913C25.9205 47.9581 25.8784 47.4635 25.6522 47.167C25.3485 46.7688 24.7349 46.6103 24.3433 46.829Z"/>
</mask>
<path fill-rule="evenodd" clip-rule="evenodd" d="M30.3308 6.13068C29.7545 6.34417 20.6782 9.88203 20.6013 9.92319C20.3215 10.073 20.3187 10.1099 20.3197 13.6095C20.3202 15.417 20.3467 17.2139 20.3785 17.6026C20.5458 19.6459 21.0608 21.5069 21.9504 23.2828C22.1848 23.7507 22.3635 24.1466 22.3475 24.1626C22.3315 24.1786 21.9547 24.2125 21.51 24.238C20.3668 24.3034 19.0304 24.4437 17.9368 24.6129C17.4203 24.6929 16.9929 24.7583 16.987 24.7583C16.981 24.7583 16.9641 24.5264 16.9494 24.2429C16.9301 23.8735 16.8854 23.6501 16.7913 23.4538C16.6242 23.1056 16.2119 22.6859 15.888 22.5345C15.7498 22.4699 14.179 22.0107 12.3974 21.5143C8.70892 20.4864 8.63902 20.4749 7.9632 20.7807C7.52715 20.9781 7.07949 21.4308 6.93414 21.8214C6.88154 21.9628 5.75041 25.8576 4.42052 30.4765C1.76702 39.6923 1.86508 39.2867 2.12351 39.9775C2.27057 40.3705 2.68254 40.8435 3.01977 41.0064C3.1567 41.0726 4.75292 41.5385 6.56687 42.0417C10.1758 43.0429 10.3038 43.0663 10.9168 42.837C11.5188 42.6117 11.9436 42.1045 12.1609 41.3518C12.2146 41.1655 12.2773 41.0132 12.3001 41.0132C12.323 41.0132 12.5207 41.1936 12.7395 41.414L13.1373 41.8149L13.07 42.1286C12.8447 43.1788 13.5883 44.4421 14.6129 44.75C14.8097 44.8092 14.8673 44.8537 14.8555 44.9375C14.847 44.998 14.8142 45.1937 14.7828 45.3726C14.6135 46.3347 15.2838 47.5398 16.1724 47.8707C16.3312 47.9298 16.4812 47.9961 16.5058 48.018C16.5304 48.0399 16.5061 48.2375 16.4519 48.457C16.1004 49.8817 17.2605 51.3155 18.7675 51.319C19.0277 51.3196 19.5078 51.2045 19.8571 51.0578C19.9344 51.0252 19.9884 51.0913 20.1147 51.3727C20.4541 52.129 21.3935 52.7318 22.2328 52.7318C22.5338 52.7318 23.0019 52.6072 23.3455 52.4355L23.6144 52.3013L24.1675 52.8363C24.9701 53.6128 25.6338 53.9111 26.5589 53.9111C27.4244 53.9111 28.1914 53.636 28.7871 53.1119C29.2956 52.6645 29.7438 51.903 29.8353 51.3309L29.8739 51.0893L30.3676 51.5432C31.226 52.3323 31.8845 52.6159 32.8548 52.6146C33.9753 52.613 34.9332 52.1017 35.5819 51.1587C35.7897 50.8567 36.0171 50.271 36.0741 49.8905C36.0971 49.7372 36.1295 49.6118 36.1463 49.6118C36.1629 49.6118 36.3651 49.6798 36.5955 49.7629C38.3697 50.4029 40.3048 49.383 40.8455 47.5228C40.9709 47.0914 40.9401 46.0136 40.7908 45.6111C40.684 45.3233 40.7205 45.2562 40.9844 45.2545C41.4757 45.2513 42.3624 44.8115 42.8396 44.3344C43.1124 44.0615 43.492 43.4948 43.5795 43.2297C43.6419 43.0406 43.6445 43.0395 44.2959 42.9366C45.8486 42.6914 47.2113 42.2656 48.4662 41.6336L48.8642 41.4333L48.9954 41.7496C49.2853 42.4493 49.9121 42.8936 50.6792 42.9435C51.0696 42.9689 51.2712 42.9206 54.4149 42.0485C56.4492 41.4843 57.8498 41.0659 58.026 40.97C58.6018 40.6566 58.9589 40.0658 58.9967 39.3641C59.0201 38.9287 58.9858 38.8023 56.6009 30.5299C55.2702 25.9141 54.1259 21.9988 54.058 21.8292C53.8805 21.3856 53.5394 21.0274 53.0786 20.8006C52.3922 20.4627 52.3268 20.4733 48.502 21.543C46.4943 22.1045 45.1094 22.5216 44.9585 22.6099C44.3691 22.9554 44.0319 23.5995 44.0343 24.3755L44.0357 24.8466L42.2223 25.628L40.4089 26.4093L39.9138 26.0866C39.6415 25.9091 39.1099 25.6017 38.7324 25.4034C38.3549 25.2051 38.046 25.0347 38.046 25.0247C38.046 25.0148 38.1942 24.7718 38.3753 24.4849C39.262 23.08 39.9943 21.2558 40.3343 19.605C40.6235 18.2008 40.6463 17.8425 40.6793 14.1749C40.6965 12.2574 40.6927 10.5692 40.6708 10.4236C40.6465 10.2614 40.5774 10.1071 40.4926 10.0254C40.3555 9.89345 30.691 6.08945 30.5075 6.09522C30.4589 6.09675 30.3794 6.11271 30.3308 6.13068ZM26.7677 8.85885C24.7918 9.63113 22.8222 10.3998 22.3908 10.567L21.6064 10.8711L21.6311 14.4724C21.6583 18.4394 21.6606 18.4681 22.0816 20.0794C22.3969 21.2861 23.0703 22.86 23.6763 23.807L23.9156 24.1809L24.4288 24.1543C24.9036 24.1297 24.9803 24.1072 25.4547 23.8522L25.9675 23.5766L25.5842 22.9915C24.9025 21.9512 24.2618 20.4618 23.9699 19.2389C23.6899 18.0663 23.661 17.7134 23.6326 15.1206C23.6022 12.3534 23.607 12.3135 23.9895 12.1362C24.2869 11.9983 30.2365 9.69239 30.4019 9.65092C30.5135 9.62289 31.359 9.92702 33.7538 10.8567C35.5153 11.5406 37.0227 12.148 37.1037 12.2066C37.3648 12.3955 37.3914 12.5951 37.3944 14.3928C37.3991 17.2822 37.2628 18.5832 36.8031 20.033C36.4412 21.1745 35.7883 22.4938 35.1564 23.3608C34.9965 23.5801 34.8657 23.7701 34.8657 23.7829C34.8657 23.7958 35.0842 23.879 35.3512 23.968C35.6183 24.0569 36.062 24.2181 36.3374 24.3262L36.8381 24.5228L36.9391 24.3902C37.1653 24.0933 37.7742 23.0198 38.0719 22.3931C38.617 21.2456 39.0211 19.9193 39.2631 18.4835C39.3457 17.9932 39.3657 17.3221 39.3853 14.3886L39.4087 10.8803L34.9966 9.16175C32.5698 8.2166 30.534 7.44585 30.4723 7.44903C30.4107 7.45215 28.7436 8.08662 26.7677 8.85885ZM27.6315 12.0575L24.9026 13.1266L24.9284 15.4824C24.9532 17.7526 24.9598 17.8639 25.1083 18.549C25.4118 19.9486 25.969 21.2734 26.7374 22.4225C26.9665 22.7652 27.1799 23.0615 27.2114 23.081C27.243 23.1006 27.5536 23.0567 27.9017 22.9835C28.4262 22.8733 28.716 22.8508 29.5947 22.8522C30.7453 22.854 31.311 22.9233 32.6726 23.2292L33.4817 23.4111L33.7079 23.1583C34.0939 22.7266 34.624 21.883 35.0132 21.0807C35.4045 20.2743 35.5499 19.8866 35.749 19.1186C36.0358 18.0121 36.0536 17.8151 36.0832 15.4235L36.1115 13.1266L33.3466 12.0518C31.8259 11.4606 30.5319 10.9795 30.471 10.9826C30.4101 10.9858 29.1323 11.4695 27.6315 12.0575ZM31.2751 17.0711L29.2413 19.1015L28.4712 18.3373C27.7271 17.5989 27.6927 17.5731 27.4514 17.5731C27.1406 17.5731 27.0001 17.646 26.8861 17.8664C26.7661 18.0984 26.7742 18.3171 26.9108 18.5379C27.0906 18.8286 28.9277 20.5524 29.1047 20.5965C29.1915 20.6182 29.3373 20.6081 29.4286 20.5741C29.6213 20.5025 34.0048 16.1545 34.1386 15.9022C34.2562 15.6806 34.2007 15.393 34.0023 15.1945C33.8812 15.0734 33.791 15.0407 33.5787 15.0407H33.3089L31.2751 17.0711ZM8.40809 21.9646C8.3194 22.0127 8.20779 22.1276 8.16009 22.2199C8.0698 22.3944 3.31082 38.8416 3.25699 39.1649C3.21765 39.4013 3.36984 39.7237 3.57891 39.8471C3.66749 39.8992 5.18238 40.3424 6.94544 40.8317C9.3305 41.4936 10.1995 41.7122 10.3408 41.6857C10.4453 41.6661 10.6025 41.5751 10.6903 41.4835C10.8545 41.3121 10.8624 41.2853 14.9911 26.9515C15.3948 25.5502 15.7249 24.3443 15.7247 24.2718C15.7244 24.0676 15.5105 23.7648 15.2984 23.6681C14.9916 23.5283 8.94091 21.8724 8.74597 21.8749C8.64879 21.8761 8.49673 21.9165 8.40809 21.9646ZM48.8532 22.761C45.7775 23.6141 45.6666 23.6498 45.4815 23.8465C45.3425 23.9941 45.2901 24.1049 45.2901 24.2511C45.2901 24.3618 46.2861 27.9069 47.5036 32.1291C48.7211 36.3513 49.8106 40.1371 49.9247 40.542C50.1533 41.3526 50.3283 41.6208 50.6707 41.685C50.8058 41.7104 51.7351 41.4758 54.1101 40.8168C57.61 39.8456 57.5976 39.8504 57.7208 39.4266C57.7764 39.2356 57.564 38.4619 55.3363 30.7361C52.9204 22.3578 52.8883 22.253 52.6839 22.0638C52.5242 21.9161 52.4263 21.8732 52.2552 21.8757C52.1333 21.8775 50.6024 22.2759 48.8532 22.761ZM29.0057 24.1181C27.0826 24.2393 25.1834 25.1896 23.5192 26.8633C23.2215 27.1628 22.8013 27.6266 22.5854 27.894C22.0144 28.6014 21.1785 29.8797 20.8353 30.57C20.5787 31.0862 20.5332 31.2304 20.5092 31.6054C20.4288 32.8578 21.2724 33.8817 22.5316 34.06C23.0244 34.1298 23.4055 34.0643 23.8931 33.8257C24.2196 33.666 24.4267 33.4641 25.8767 31.8917C26.7672 30.926 27.6333 30.0123 27.8014 29.8611C28.1597 29.5389 28.9054 29.1576 29.4474 29.0195C29.9219 28.8986 30.8415 28.8854 31.2689 28.9935C31.7322 29.1106 32.2553 29.334 32.6271 29.5734C32.8281 29.7029 34.9142 31.7457 38.1087 34.9414C42.9797 39.8142 43.2763 40.1229 43.4583 40.5067C43.5642 40.7302 43.6867 41.0841 43.7304 41.293C43.7741 41.5018 43.8218 41.6847 43.8363 41.6992C43.918 41.7809 45.7245 41.3633 46.5563 41.0704C47.1717 40.8537 48.4136 40.2502 48.4529 40.1487C48.474 40.0942 44.4904 26.1399 44.4323 26.0643C44.4241 26.0538 43.5253 26.4315 42.4347 26.9036C41.3441 27.3757 40.3923 27.7619 40.3194 27.7619C40.2465 27.7619 39.8228 27.5361 39.3778 27.2601C37.8554 26.3159 36.2254 25.5784 34.4535 25.0321C33.4935 24.7361 32.0909 24.3838 31.4972 24.2896C31.2803 24.2551 31.064 24.212 31.0163 24.1938C30.8475 24.129 29.5861 24.0815 29.0057 24.1181ZM10.204 24.4675C9.76485 24.641 9.29057 25.0961 9.05923 25.5661C8.89044 25.9089 8.86876 26.0096 8.86676 26.4596C8.86482 26.9086 8.88579 27.0118 9.04975 27.3585C9.28497 27.8561 9.62432 28.1952 10.1211 28.4292C10.4631 28.5903 10.5764 28.6139 11.0134 28.6148C11.4544 28.6157 11.5596 28.594 11.8968 28.4318C12.3675 28.2055 12.7477 27.8363 12.9506 27.4085C13.0859 27.1231 13.1041 27.0112 13.1037 26.4662C13.1033 25.9296 13.0841 25.8089 12.9588 25.5533C12.7703 25.1693 12.271 24.6718 11.9146 24.5128C11.4938 24.3252 10.6227 24.3021 10.204 24.4675ZM49.2406 24.4401C48.3504 24.761 47.8115 25.5233 47.8083 26.4662C47.8053 27.3162 48.2592 28.0348 49.0426 28.4204C49.3854 28.5892 49.4861 28.6109 49.9361 28.6129C50.3838 28.6148 50.4883 28.5937 50.8261 28.4331C51.3241 28.1962 51.6766 27.8455 51.9032 27.3613C52.1424 26.85 52.1584 26.2169 51.9458 25.6715C51.7799 25.246 51.2947 24.7346 50.8556 24.5225C50.4748 24.3385 49.6404 24.2959 49.2406 24.4401ZM21.9678 25.4691C20.4186 25.545 18.4704 25.7683 17.0671 26.0306C16.5757 26.1225 16.5516 26.1343 16.4957 26.3111C16.4637 26.4126 15.6524 29.2254 14.693 32.5618C13.7336 35.8982 12.8848 38.8381 12.807 39.095L12.6655 39.562L13.2502 40.1545L13.8349 40.7471L15.0008 39.5929C16.318 38.2888 16.4653 38.1967 17.3228 38.1418C18.5456 38.0635 19.6416 38.9738 19.7668 40.1716L19.804 40.5273L20.216 40.5953C20.7607 40.6853 21.1818 40.892 21.5413 41.2459C21.91 41.6087 22.1182 42.0214 22.2108 42.5725L22.2828 43.0011L22.6321 43.0328C23.6309 43.1233 24.5514 44.0544 24.6656 45.0895L24.7064 45.4597L25.0863 45.5016C26.3871 45.6451 27.3282 46.9079 27.0999 48.2039C26.9803 48.8828 26.8135 49.1237 25.6257 50.3342L24.5312 51.4494L24.9912 51.8904C25.6099 52.4836 25.9523 52.6418 26.6205 52.6436C27.0503 52.6447 27.1683 52.6217 27.4547 52.4811C28.154 52.1376 28.5712 51.5138 28.6125 50.75C28.642 50.2044 28.5265 49.8545 28.148 49.3417C27.8194 48.8966 27.7902 48.7274 27.9908 48.4298C28.1405 48.2077 28.4085 48.1025 28.6631 48.166C28.7715 48.193 29.319 48.6943 30.2432 49.6131C31.8983 51.2585 32.0335 51.3491 32.8351 51.3491C33.2494 51.3492 33.3555 51.3256 33.6974 51.1572C34.1513 50.9337 34.4628 50.6145 34.681 50.1489C34.8081 49.8777 34.8362 49.7327 34.8362 49.3468C34.8362 48.4862 34.8806 48.5434 31.8623 45.5186C30.4078 44.061 29.1899 42.7936 29.1558 42.7023C29.0748 42.4852 29.132 42.2593 29.3188 42.0585C29.4444 41.9236 29.5185 41.8966 29.7639 41.8966H30.0582L33.3012 45.1294C35.4424 47.2638 36.6286 48.4044 36.7926 48.4866C37.118 48.6496 37.5846 48.7151 37.9871 48.6543C38.6552 48.5535 39.1711 48.1746 39.4717 47.564C39.645 47.212 39.6656 47.1168 39.6656 46.6683C39.6656 45.7649 39.7885 45.9186 36.1456 42.2668C34.3897 40.5067 32.9313 39.0076 32.9045 38.9356C32.7641 38.557 33.0949 38.1273 33.5267 38.1273C33.7674 38.1273 33.7854 38.1438 36.57 40.9144C38.7915 43.1247 39.4321 43.7298 39.6656 43.8383C40.0599 44.0215 40.6852 44.0635 41.1132 43.9356C42.291 43.5835 42.8926 42.1422 42.3093 41.0705C42.2088 40.8857 40.5145 39.154 37.0557 35.7008C31.6032 30.2573 31.7715 30.4097 31.031 30.2391C30.6204 30.1444 30.0228 30.1657 29.6259 30.2892C28.9235 30.5079 28.723 30.6811 26.9625 32.5895C26.0502 33.5784 25.1694 34.4908 25.0051 34.6169C23.6213 35.6795 21.67 35.5867 20.3945 34.3977C19.6226 33.6782 19.2482 32.842 19.2428 31.8256C19.2379 30.9075 19.4631 30.2964 20.3062 28.9398C21.0175 27.7952 21.7094 26.9062 22.6095 25.9803C23.0761 25.5003 23.1442 25.4076 23.0242 25.4152C22.9453 25.4202 22.4699 25.4444 21.9678 25.4691ZM10.6011 25.6882C10.0371 25.9965 9.96267 26.7148 10.4478 27.1681C10.6467 27.3538 11.146 27.4059 11.4114 27.2687C11.9622 26.9838 12.0425 26.2735 11.5751 25.8205C11.3167 25.57 10.9168 25.5157 10.6011 25.6882ZM49.5427 25.6811C49.305 25.7982 49.0593 26.2001 49.0594 26.4714C49.0598 27.3561 50.2465 27.6812 50.7087 26.9232C51.1527 26.1949 50.3136 25.3011 49.5427 25.6811ZM17.0803 39.4336C16.9301 39.4767 16.5607 39.8037 15.7058 40.6504C15.0629 41.2872 14.4861 41.9066 14.4242 42.0267C14.2182 42.4263 14.3213 43.0289 14.646 43.3225C14.943 43.5911 15.4455 43.6737 15.823 43.516C16.0686 43.4134 18.2532 41.2588 18.3906 40.9837C18.688 40.3882 18.4686 39.7435 17.877 39.4748C17.6149 39.3558 17.3922 39.3442 17.0803 39.4336ZM19.3764 41.9596C19.0294 42.1756 16.2656 44.9636 16.1364 45.228C15.8124 45.8913 16.2494 46.6867 16.9831 46.7694C17.4925 46.8268 17.5903 46.7563 19.1634 45.2009C19.9693 44.4038 20.7047 43.6339 20.7977 43.4899C21.0973 43.0254 20.9765 42.3843 20.5242 42.0393C20.2212 41.8082 19.6801 41.7706 19.3764 41.9596ZM21.9717 44.321C21.6981 44.3997 17.9619 48.1068 17.7786 48.4817C17.329 49.4013 18.337 50.3827 19.2463 49.9106C19.3664 49.8482 20.3304 48.9272 21.3884 47.864C23.002 46.2425 23.3223 45.8929 23.3758 45.6953C23.4547 45.4038 23.455 45.3386 23.3787 45.064C23.2973 44.7711 23.0558 44.495 22.7653 44.3631C22.5039 44.2443 22.2802 44.2325 21.9717 44.321ZM24.3433 46.829C24.0985 46.9657 23.9795 47.0785 22.4888 48.5866C21.2573 49.8326 21.2121 49.8866 21.1709 50.1624C21.0949 50.6705 21.3049 51.1018 21.7355 51.3214C21.9854 51.4489 22.3966 51.4728 22.656 51.375C22.8813 51.2899 25.5982 48.5803 25.7479 48.2913C25.9205 47.9581 25.8784 47.4635 25.6522 47.167C25.3485 46.7688 24.7349 46.6103 24.3433 46.829Z" fill="white"/>
<path fill-rule="evenodd" clip-rule="evenodd" d="M30.3308 6.13068C29.7545 6.34417 20.6782 9.88203 20.6013 9.92319C20.3215 10.073 20.3187 10.1099 20.3197 13.6095C20.3202 15.417 20.3467 17.2139 20.3785 17.6026C20.5458 19.6459 21.0608 21.5069 21.9504 23.2828C22.1848 23.7507 22.3635 24.1466 22.3475 24.1626C22.3315 24.1786 21.9547 24.2125 21.51 24.238C20.3668 24.3034 19.0304 24.4437 17.9368 24.6129C17.4203 24.6929 16.9929 24.7583 16.987 24.7583C16.981 24.7583 16.9641 24.5264 16.9494 24.2429C16.9301 23.8735 16.8854 23.6501 16.7913 23.4538C16.6242 23.1056 16.2119 22.6859 15.888 22.5345C15.7498 22.4699 14.179 22.0107 12.3974 21.5143C8.70892 20.4864 8.63902 20.4749 7.9632 20.7807C7.52715 20.9781 7.07949 21.4308 6.93414 21.8214C6.88154 21.9628 5.75041 25.8576 4.42052 30.4765C1.76702 39.6923 1.86508 39.2867 2.12351 39.9775C2.27057 40.3705 2.68254 40.8435 3.01977 41.0064C3.1567 41.0726 4.75292 41.5385 6.56687 42.0417C10.1758 43.0429 10.3038 43.0663 10.9168 42.837C11.5188 42.6117 11.9436 42.1045 12.1609 41.3518C12.2146 41.1655 12.2773 41.0132 12.3001 41.0132C12.323 41.0132 12.5207 41.1936 12.7395 41.414L13.1373 41.8149L13.07 42.1286C12.8447 43.1788 13.5883 44.4421 14.6129 44.75C14.8097 44.8092 14.8673 44.8537 14.8555 44.9375C14.847 44.998 14.8142 45.1937 14.7828 45.3726C14.6135 46.3347 15.2838 47.5398 16.1724 47.8707C16.3312 47.9298 16.4812 47.9961 16.5058 48.018C16.5304 48.0399 16.5061 48.2375 16.4519 48.457C16.1004 49.8817 17.2605 51.3155 18.7675 51.319C19.0277 51.3196 19.5078 51.2045 19.8571 51.0578C19.9344 51.0252 19.9884 51.0913 20.1147 51.3727C20.4541 52.129 21.3935 52.7318 22.2328 52.7318C22.5338 52.7318 23.0019 52.6072 23.3455 52.4355L23.6144 52.3013L24.1675 52.8363C24.9701 53.6128 25.6338 53.9111 26.5589 53.9111C27.4244 53.9111 28.1914 53.636 28.7871 53.1119C29.2956 52.6645 29.7438 51.903 29.8353 51.3309L29.8739 51.0893L30.3676 51.5432C31.226 52.3323 31.8845 52.6159 32.8548 52.6146C33.9753 52.613 34.9332 52.1017 35.5819 51.1587C35.7897 50.8567 36.0171 50.271 36.0741 49.8905C36.0971 49.7372 36.1295 49.6118 36.1463 49.6118C36.1629 49.6118 36.3651 49.6798 36.5955 49.7629C38.3697 50.4029 40.3048 49.383 40.8455 47.5228C40.9709 47.0914 40.9401 46.0136 40.7908 45.6111C40.684 45.3233 40.7205 45.2562 40.9844 45.2545C41.4757 45.2513 42.3624 44.8115 42.8396 44.3344C43.1124 44.0615 43.492 43.4948 43.5795 43.2297C43.6419 43.0406 43.6445 43.0395 44.2959 42.9366C45.8486 42.6914 47.2113 42.2656 48.4662 41.6336L48.8642 41.4333L48.9954 41.7496C49.2853 42.4493 49.9121 42.8936 50.6792 42.9435C51.0696 42.9689 51.2712 42.9206 54.4149 42.0485C56.4492 41.4843 57.8498 41.0659 58.026 40.97C58.6018 40.6566 58.9589 40.0658 58.9967 39.3641C59.0201 38.9287 58.9858 38.8023 56.6009 30.5299C55.2702 25.9141 54.1259 21.9988 54.058 21.8292C53.8805 21.3856 53.5394 21.0274 53.0786 20.8006C52.3922 20.4627 52.3268 20.4733 48.502 21.543C46.4943 22.1045 45.1094 22.5216 44.9585 22.6099C44.3691 22.9554 44.0319 23.5995 44.0343 24.3755L44.0357 24.8466L42.2223 25.628L40.4089 26.4093L39.9138 26.0866C39.6415 25.9091 39.1099 25.6017 38.7324 25.4034C38.3549 25.2051 38.046 25.0347 38.046 25.0247C38.046 25.0148 38.1942 24.7718 38.3753 24.4849C39.262 23.08 39.9943 21.2558 40.3343 19.605C40.6235 18.2008 40.6463 17.8425 40.6793 14.1749C40.6965 12.2574 40.6927 10.5692 40.6708 10.4236C40.6465 10.2614 40.5774 10.1071 40.4926 10.0254C40.3555 9.89345 30.691 6.08945 30.5075 6.09522C30.4589 6.09675 30.3794 6.11271 30.3308 6.13068ZM26.7677 8.85885C24.7918 9.63113 22.8222 10.3998 22.3908 10.567L21.6064 10.8711L21.6311 14.4724C21.6583 18.4394 21.6606 18.4681 22.0816 20.0794C22.3969 21.2861 23.0703 22.86 23.6763 23.807L23.9156 24.1809L24.4288 24.1543C24.9036 24.1297 24.9803 24.1072 25.4547 23.8522L25.9675 23.5766L25.5842 22.9915C24.9025 21.9512 24.2618 20.4618 23.9699 19.2389C23.6899 18.0663 23.661 17.7134 23.6326 15.1206C23.6022 12.3534 23.607 12.3135 23.9895 12.1362C24.2869 11.9983 30.2365 9.69239 30.4019 9.65092C30.5135 9.62289 31.359 9.92702 33.7538 10.8567C35.5153 11.5406 37.0227 12.148 37.1037 12.2066C37.3648 12.3955 37.3914 12.5951 37.3944 14.3928C37.3991 17.2822 37.2628 18.5832 36.8031 20.033C36.4412 21.1745 35.7883 22.4938 35.1564 23.3608C34.9965 23.5801 34.8657 23.7701 34.8657 23.7829C34.8657 23.7958 35.0842 23.879 35.3512 23.968C35.6183 24.0569 36.062 24.2181 36.3374 24.3262L36.8381 24.5228L36.9391 24.3902C37.1653 24.0933 37.7742 23.0198 38.0719 22.3931C38.617 21.2456 39.0211 19.9193 39.2631 18.4835C39.3457 17.9932 39.3657 17.3221 39.3853 14.3886L39.4087 10.8803L34.9966 9.16175C32.5698 8.2166 30.534 7.44585 30.4723 7.44903C30.4107 7.45215 28.7436 8.08662 26.7677 8.85885ZM27.6315 12.0575L24.9026 13.1266L24.9284 15.4824C24.9532 17.7526 24.9598 17.8639 25.1083 18.549C25.4118 19.9486 25.969 21.2734 26.7374 22.4225C26.9665 22.7652 27.1799 23.0615 27.2114 23.081C27.243 23.1006 27.5536 23.0567 27.9017 22.9835C28.4262 22.8733 28.716 22.8508 29.5947 22.8522C30.7453 22.854 31.311 22.9233 32.6726 23.2292L33.4817 23.4111L33.7079 23.1583C34.0939 22.7266 34.624 21.883 35.0132 21.0807C35.4045 20.2743 35.5499 19.8866 35.749 19.1186C36.0358 18.0121 36.0536 17.8151 36.0832 15.4235L36.1115 13.1266L33.3466 12.0518C31.8259 11.4606 30.5319 10.9795 30.471 10.9826C30.4101 10.9858 29.1323 11.4695 27.6315 12.0575ZM31.2751 17.0711L29.2413 19.1015L28.4712 18.3373C27.7271 17.5989 27.6927 17.5731 27.4514 17.5731C27.1406 17.5731 27.0001 17.646 26.8861 17.8664C26.7661 18.0984 26.7742 18.3171 26.9108 18.5379C27.0906 18.8286 28.9277 20.5524 29.1047 20.5965C29.1915 20.6182 29.3373 20.6081 29.4286 20.5741C29.6213 20.5025 34.0048 16.1545 34.1386 15.9022C34.2562 15.6806 34.2007 15.393 34.0023 15.1945C33.8812 15.0734 33.791 15.0407 33.5787 15.0407H33.3089L31.2751 17.0711ZM8.40809 21.9646C8.3194 22.0127 8.20779 22.1276 8.16009 22.2199C8.0698 22.3944 3.31082 38.8416 3.25699 39.1649C3.21765 39.4013 3.36984 39.7237 3.57891 39.8471C3.66749 39.8992 5.18238 40.3424 6.94544 40.8317C9.3305 41.4936 10.1995 41.7122 10.3408 41.6857C10.4453 41.6661 10.6025 41.5751 10.6903 41.4835C10.8545 41.3121 10.8624 41.2853 14.9911 26.9515C15.3948 25.5502 15.7249 24.3443 15.7247 24.2718C15.7244 24.0676 15.5105 23.7648 15.2984 23.6681C14.9916 23.5283 8.94091 21.8724 8.74597 21.8749C8.64879 21.8761 8.49673 21.9165 8.40809 21.9646ZM48.8532 22.761C45.7775 23.6141 45.6666 23.6498 45.4815 23.8465C45.3425 23.9941 45.2901 24.1049 45.2901 24.2511C45.2901 24.3618 46.2861 27.9069 47.5036 32.1291C48.7211 36.3513 49.8106 40.1371 49.9247 40.542C50.1533 41.3526 50.3283 41.6208 50.6707 41.685C50.8058 41.7104 51.7351 41.4758 54.1101 40.8168C57.61 39.8456 57.5976 39.8504 57.7208 39.4266C57.7764 39.2356 57.564 38.4619 55.3363 30.7361C52.9204 22.3578 52.8883 22.253 52.6839 22.0638C52.5242 21.9161 52.4263 21.8732 52.2552 21.8757C52.1333 21.8775 50.6024 22.2759 48.8532 22.761ZM29.0057 24.1181C27.0826 24.2393 25.1834 25.1896 23.5192 26.8633C23.2215 27.1628 22.8013 27.6266 22.5854 27.894C22.0144 28.6014 21.1785 29.8797 20.8353 30.57C20.5787 31.0862 20.5332 31.2304 20.5092 31.6054C20.4288 32.8578 21.2724 33.8817 22.5316 34.06C23.0244 34.1298 23.4055 34.0643 23.8931 33.8257C24.2196 33.666 24.4267 33.4641 25.8767 31.8917C26.7672 30.926 27.6333 30.0123 27.8014 29.8611C28.1597 29.5389 28.9054 29.1576 29.4474 29.0195C29.9219 28.8986 30.8415 28.8854 31.2689 28.9935C31.7322 29.1106 32.2553 29.334 32.6271 29.5734C32.8281 29.7029 34.9142 31.7457 38.1087 34.9414C42.9797 39.8142 43.2763 40.1229 43.4583 40.5067C43.5642 40.7302 43.6867 41.0841 43.7304 41.293C43.7741 41.5018 43.8218 41.6847 43.8363 41.6992C43.918 41.7809 45.7245 41.3633 46.5563 41.0704C47.1717 40.8537 48.4136 40.2502 48.4529 40.1487C48.474 40.0942 44.4904 26.1399 44.4323 26.0643C44.4241 26.0538 43.5253 26.4315 42.4347 26.9036C41.3441 27.3757 40.3923 27.7619 40.3194 27.7619C40.2465 27.7619 39.8228 27.5361 39.3778 27.2601C37.8554 26.3159 36.2254 25.5784 34.4535 25.0321C33.4935 24.7361 32.0909 24.3838 31.4972 24.2896C31.2803 24.2551 31.064 24.212 31.0163 24.1938C30.8475 24.129 29.5861 24.0815 29.0057 24.1181ZM10.204 24.4675C9.76485 24.641 9.29057 25.0961 9.05923 25.5661C8.89044 25.9089 8.86876 26.0096 8.86676 26.4596C8.86482 26.9086 8.88579 27.0118 9.04975 27.3585C9.28497 27.8561 9.62432 28.1952 10.1211 28.4292C10.4631 28.5903 10.5764 28.6139 11.0134 28.6148C11.4544 28.6157 11.5596 28.594 11.8968 28.4318C12.3675 28.2055 12.7477 27.8363 12.9506 27.4085C13.0859 27.1231 13.1041 27.0112 13.1037 26.4662C13.1033 25.9296 13.0841 25.8089 12.9588 25.5533C12.7703 25.1693 12.271 24.6718 11.9146 24.5128C11.4938 24.3252 10.6227 24.3021 10.204 24.4675ZM49.2406 24.4401C48.3504 24.761 47.8115 25.5233 47.8083 26.4662C47.8053 27.3162 48.2592 28.0348 49.0426 28.4204C49.3854 28.5892 49.4861 28.6109 49.9361 28.6129C50.3838 28.6148 50.4883 28.5937 50.8261 28.4331C51.3241 28.1962 51.6766 27.8455 51.9032 27.3613C52.1424 26.85 52.1584 26.2169 51.9458 25.6715C51.7799 25.246 51.2947 24.7346 50.8556 24.5225C50.4748 24.3385 49.6404 24.2959 49.2406 24.4401ZM21.9678 25.4691C20.4186 25.545 18.4704 25.7683 17.0671 26.0306C16.5757 26.1225 16.5516 26.1343 16.4957 26.3111C16.4637 26.4126 15.6524 29.2254 14.693 32.5618C13.7336 35.8982 12.8848 38.8381 12.807 39.095L12.6655 39.562L13.2502 40.1545L13.8349 40.7471L15.0008 39.5929C16.318 38.2888 16.4653 38.1967 17.3228 38.1418C18.5456 38.0635 19.6416 38.9738 19.7668 40.1716L19.804 40.5273L20.216 40.5953C20.7607 40.6853 21.1818 40.892 21.5413 41.2459C21.91 41.6087 22.1182 42.0214 22.2108 42.5725L22.2828 43.0011L22.6321 43.0328C23.6309 43.1233 24.5514 44.0544 24.6656 45.0895L24.7064 45.4597L25.0863 45.5016C26.3871 45.6451 27.3282 46.9079 27.0999 48.2039C26.9803 48.8828 26.8135 49.1237 25.6257 50.3342L24.5312 51.4494L24.9912 51.8904C25.6099 52.4836 25.9523 52.6418 26.6205 52.6436C27.0503 52.6447 27.1683 52.6217 27.4547 52.4811C28.154 52.1376 28.5712 51.5138 28.6125 50.75C28.642 50.2044 28.5265 49.8545 28.148 49.3417C27.8194 48.8966 27.7902 48.7274 27.9908 48.4298C28.1405 48.2077 28.4085 48.1025 28.6631 48.166C28.7715 48.193 29.319 48.6943 30.2432 49.6131C31.8983 51.2585 32.0335 51.3491 32.8351 51.3491C33.2494 51.3492 33.3555 51.3256 33.6974 51.1572C34.1513 50.9337 34.4628 50.6145 34.681 50.1489C34.8081 49.8777 34.8362 49.7327 34.8362 49.3468C34.8362 48.4862 34.8806 48.5434 31.8623 45.5186C30.4078 44.061 29.1899 42.7936 29.1558 42.7023C29.0748 42.4852 29.132 42.2593 29.3188 42.0585C29.4444 41.9236 29.5185 41.8966 29.7639 41.8966H30.0582L33.3012 45.1294C35.4424 47.2638 36.6286 48.4044 36.7926 48.4866C37.118 48.6496 37.5846 48.7151 37.9871 48.6543C38.6552 48.5535 39.1711 48.1746 39.4717 47.564C39.645 47.212 39.6656 47.1168 39.6656 46.6683C39.6656 45.7649 39.7885 45.9186 36.1456 42.2668C34.3897 40.5067 32.9313 39.0076 32.9045 38.9356C32.7641 38.557 33.0949 38.1273 33.5267 38.1273C33.7674 38.1273 33.7854 38.1438 36.57 40.9144C38.7915 43.1247 39.4321 43.7298 39.6656 43.8383C40.0599 44.0215 40.6852 44.0635 41.1132 43.9356C42.291 43.5835 42.8926 42.1422 42.3093 41.0705C42.2088 40.8857 40.5145 39.154 37.0557 35.7008C31.6032 30.2573 31.7715 30.4097 31.031 30.2391C30.6204 30.1444 30.0228 30.1657 29.6259 30.2892C28.9235 30.5079 28.723 30.6811 26.9625 32.5895C26.0502 33.5784 25.1694 34.4908 25.0051 34.6169C23.6213 35.6795 21.67 35.5867 20.3945 34.3977C19.6226 33.6782 19.2482 32.842 19.2428 31.8256C19.2379 30.9075 19.4631 30.2964 20.3062 28.9398C21.0175 27.7952 21.7094 26.9062 22.6095 25.9803C23.0761 25.5003 23.1442 25.4076 23.0242 25.4152C22.9453 25.4202 22.4699 25.4444 21.9678 25.4691ZM10.6011 25.6882C10.0371 25.9965 9.96267 26.7148 10.4478 27.1681C10.6467 27.3538 11.146 27.4059 11.4114 27.2687C11.9622 26.9838 12.0425 26.2735 11.5751 25.8205C11.3167 25.57 10.9168 25.5157 10.6011 25.6882ZM49.5427 25.6811C49.305 25.7982 49.0593 26.2001 49.0594 26.4714C49.0598 27.3561 50.2465 27.6812 50.7087 26.9232C51.1527 26.1949 50.3136 25.3011 49.5427 25.6811ZM17.0803 39.4336C16.9301 39.4767 16.5607 39.8037 15.7058 40.6504C15.0629 41.2872 14.4861 41.9066 14.4242 42.0267C14.2182 42.4263 14.3213 43.0289 14.646 43.3225C14.943 43.5911 15.4455 43.6737 15.823 43.516C16.0686 43.4134 18.2532 41.2588 18.3906 40.9837C18.688 40.3882 18.4686 39.7435 17.877 39.4748C17.6149 39.3558 17.3922 39.3442 17.0803 39.4336ZM19.3764 41.9596C19.0294 42.1756 16.2656 44.9636 16.1364 45.228C15.8124 45.8913 16.2494 46.6867 16.9831 46.7694C17.4925 46.8268 17.5903 46.7563 19.1634 45.2009C19.9693 44.4038 20.7047 43.6339 20.7977 43.4899C21.0973 43.0254 20.9765 42.3843 20.5242 42.0393C20.2212 41.8082 19.6801 41.7706 19.3764 41.9596ZM21.9717 44.321C21.6981 44.3997 17.9619 48.1068 17.7786 48.4817C17.329 49.4013 18.337 50.3827 19.2463 49.9106C19.3664 49.8482 20.3304 48.9272 21.3884 47.864C23.002 46.2425 23.3223 45.8929 23.3758 45.6953C23.4547 45.4038 23.455 45.3386 23.3787 45.064C23.2973 44.7711 23.0558 44.495 22.7653 44.3631C22.5039 44.2443 22.2802 44.2325 21.9717 44.321ZM24.3433 46.829C24.0985 46.9657 23.9795 47.0785 22.4888 48.5866C21.2573 49.8326 21.2121 49.8866 21.1709 50.1624C21.0949 50.6705 21.3049 51.1018 21.7355 51.3214C21.9854 51.4489 22.3966 51.4728 22.656 51.375C22.8813 51.2899 25.5982 48.5803 25.7479 48.2913C25.9205 47.9581 25.8784 47.4635 25.6522 47.167C25.3485 46.7688 24.7349 46.6103 24.3433 46.829Z" stroke="white" stroke-width="0.4" mask="url(#path-1-outside-1_465_3144)"/>
</svg>
