<svg width="60" height="60" viewBox="0 0 60 60" fill="none" xmlns="http://www.w3.org/2000/svg">
<path d="M40.5 58.5H3C2.44772 58.5 2 58.0523 2 57.5V21.9364C2 21.0424 3.08358 20.5977 3.71166 21.2339L9.5 27.0974M40.5 58.5H57C57.5523 58.5 58 58.0523 58 57.5V12M40.5 58.5L33 50.9026M15.5 33.1753L13.3526 31M15.5 33.1753L17.3013 35M15.5 33.1753V15M48.5 2H16.5C15.9477 2 15.5 2.44772 15.5 3V7M48.5 2L58 12M48.5 2V11C48.5 11.5523 48.9477 12 49.5 12H58M33 7L38.4282 10.134C39.0949 10.5189 39.0949 11.4811 38.4282 11.866L33 15M33 7V15M33 7H15.5M33 15H15.5M9 7H3C2.44772 7 2 7.44772 2 8V14C2 14.5523 2.44772 15 3 15H9M9 7V15M9 7H15.5M9 15H15.5M9.5 27.0974L7 29.5M9.5 27.0974L13.3526 31M30.5 53L33 50.9026M33 50.9026L29 46.8506M10.7148 33.1753L13.3526 31M17.3013 35L21.25 39M17.3013 35L14.7358 37.2358M18.5 41.5L21.25 39M21.25 39L29 46.8506M22.5 45L25 42.7987M26.5 49L29 46.8506M19.5112 50.5H11C10.4477 50.5 10 50.0523 10 49.5V41.3434C10 40.4627 11.0561 40.0121 11.6919 40.6214L20.2031 48.778C20.8538 49.4016 20.4124 50.5 19.5112 50.5Z" stroke="white" stroke-width="2" stroke-linecap="round" stroke-linejoin="round"/>
</svg>
