<svg width="131" height="69" viewBox="0 0 131 69" fill="none" xmlns="http://www.w3.org/2000/svg">
<path d="M4.43469 59.1602C4.54519 59.1621 4.62874 59.2311 4.62421 59.3166C4.61986 59.3982 4.53568 59.459 4.4298 59.4571C4.31938 59.4552 4.23584 59.3862 4.24041 59.3007C4.24472 59.2192 4.32889 59.1583 4.43469 59.1602Z" fill="#2B2B2B"/>
<path d="M14.6724 59.3096C14.773 59.3101 14.8622 59.3806 14.8607 59.4587C14.8592 59.5366 14.7675 59.6037 14.6669 59.6004C14.5707 59.5973 14.4865 59.5307 14.4844 59.456C14.4823 59.3784 14.5713 59.309 14.6724 59.3096Z" fill="#2B2B2B"/>
<path d="M14.0946 59.2617C14.0912 59.3372 14.0025 59.401 13.9053 59.3977C13.8077 59.3943 13.7243 59.325 13.7276 59.2499C13.7309 59.1745 13.8198 59.1106 13.9169 59.1139C14.0146 59.1172 14.0979 59.1867 14.0946 59.2617Z" fill="#2B2B2B"/>
<path d="M12.1108 59.5515C12.0194 59.5476 11.9486 59.4879 11.9512 59.417C11.9541 59.3427 12.0364 59.2864 12.1326 59.293C12.2234 59.2993 12.2918 59.3612 12.286 59.4319C12.2803 59.5023 12.2023 59.5556 12.1108 59.5515Z" fill="#2B2B2B"/>
<path d="M6.98857 59.2417C7.08059 59.2503 7.13297 59.2886 7.13483 59.3611C7.13655 59.4303 7.0638 59.4821 6.97455 59.4748C6.88167 59.4671 6.83131 59.4237 6.83517 59.3521C6.83916 59.2798 6.89701 59.245 6.98857 59.2417Z" fill="#2B2B2B"/>
<path d="M9.68721 59.3939C9.68476 59.4603 9.61829 59.5073 9.53203 59.5034C9.44673 59.4998 9.38427 59.4465 9.3923 59.3802C9.4005 59.3119 9.45209 59.2758 9.54089 59.2754C9.62728 59.2751 9.68961 59.3271 9.68721 59.3939Z" fill="#2B2B2B"/>
<path d="M11.348 59.3349C11.2466 59.333 11.1822 59.281 11.189 59.215C11.196 59.1467 11.247 59.1102 11.3357 59.1099C11.4212 59.1095 11.4852 59.163 11.4788 59.2291C11.4722 59.2981 11.4189 59.331 11.348 59.3349Z" fill="#2B2B2B"/>
<path d="M3.64256 59.2228C3.55711 59.2195 3.49628 59.1667 3.50126 59.1003C3.50607 59.0345 3.57549 58.9873 3.66111 58.995C3.74937 59.003 3.79597 59.0437 3.79625 59.1124C3.79652 59.179 3.72891 59.2262 3.64256 59.2228Z" fill="#2B2B2B"/>
<path d="M13.2704 59.0335C13.2591 59.1025 13.2139 59.1457 13.1254 59.1441C13.0435 59.1425 12.9911 59.1013 12.9903 59.0383C12.9892 58.9706 13.0437 58.9294 13.1314 58.9302C13.2146 58.931 13.2557 58.9753 13.2704 59.0335Z" fill="#2B2B2B"/>
<path d="M2.89608 58.7812C2.98007 58.7949 3.03433 58.8329 3.0264 58.9012C3.01905 58.9635 2.96384 59.0019 2.88184 58.9972C2.79491 58.992 2.74342 58.9473 2.75068 58.8796C2.75734 58.8168 2.81395 58.7854 2.89608 58.7812Z" fill="#2B2B2B"/>
<path d="M8.90494 59.1713C8.89881 59.2322 8.85846 59.2679 8.77748 59.266C8.69682 59.264 8.65394 59.2275 8.65635 59.1656C8.65857 59.1082 8.70177 59.0756 8.77621 59.0752C8.8565 59.0747 8.89867 59.1096 8.90494 59.1713Z" fill="#2B2B2B"/>
<path d="M1.98307 59.2745C1.97812 59.3349 1.93877 59.3731 1.8581 59.3739C1.77853 59.3746 1.72955 59.3397 1.7276 59.2776C1.72565 59.2162 1.77057 59.1787 1.85087 59.1778C1.93076 59.1767 1.97449 59.2125 1.98307 59.2745Z" fill="#2B2B2B"/>
<path d="M4.68526 58.6274C4.75925 58.6335 4.80505 58.6629 4.80491 58.7218C4.80477 58.7847 4.75836 58.8186 4.67724 58.8152C4.6018 58.8121 4.56142 58.7761 4.56356 58.7182C4.56565 58.6594 4.61128 58.6311 4.68526 58.6274Z" fill="#2B2B2B"/>
<path d="M6.22803 59.0454C6.30746 59.0521 6.35218 59.0853 6.34845 59.1475C6.34482 59.2099 6.29584 59.2411 6.21632 59.2372C6.14206 59.2334 6.10107 59.1985 6.10157 59.1411C6.1022 59.0785 6.14873 59.0482 6.22803 59.0454Z" fill="#2B2B2B"/>
<path d="M41.4377 59.444C41.4291 59.5001 41.3919 59.5357 41.3171 59.535C41.2431 59.5343 41.1986 59.5001 41.1982 59.4429C41.1979 59.3857 41.2424 59.352 41.3165 59.3521C41.3911 59.3521 41.4287 59.3882 41.4377 59.444Z" fill="#2B2B2B"/>
<path d="M14.9244 58.9625C14.8459 58.9524 14.8008 58.9219 14.8039 58.8642C14.8068 58.807 14.8523 58.7744 14.9263 58.777C15.0003 58.7796 15.0424 58.8152 15.0405 58.8725C15.0386 58.9307 14.9885 58.9557 14.9244 58.9625Z" fill="#2B2B2B"/>
<path d="M10.6963 59.0069C10.6865 59.0627 10.6485 59.0977 10.5736 59.0961C10.4995 59.0943 10.4559 59.0596 10.4571 59.0023C10.4581 58.9451 10.503 58.912 10.5771 58.9131C10.652 58.9142 10.6886 58.9508 10.6963 59.0069Z" fill="#2B2B2B"/>
<path d="M8.01742 58.8794C8.08899 58.8867 8.13692 58.9162 8.13628 58.9738C8.13574 59.0265 8.09151 59.0602 8.02401 59.0608C7.95008 59.0615 7.90439 59.0258 7.9043 58.9687C7.90416 58.9156 7.95047 58.8882 8.01742 58.8794Z" fill="#2B2B2B"/>
<path d="M5.44105 58.8452C5.50876 58.8519 5.5548 58.8804 5.55821 58.9326C5.5618 58.9897 5.51657 59.0264 5.44318 59.0264C5.36937 59.0264 5.32441 58.9894 5.32622 58.9323C5.328 58.8794 5.3746 58.8524 5.44105 58.8452Z" fill="#2B2B2B"/>
<path d="M12.3639 58.9286C12.2935 58.9182 12.2464 58.8873 12.2513 58.8297C12.2557 58.7778 12.301 58.7448 12.3693 58.7472C12.4429 58.7498 12.4872 58.7868 12.483 58.8439C12.4793 58.8962 12.4324 58.9231 12.3639 58.9286Z" fill="#2B2B2B"/>
<path d="M38.8735 59.3959C38.8615 59.4513 38.8212 59.4825 38.7517 59.4769C38.6887 59.4719 38.6505 59.4376 38.6546 59.3886C38.6591 59.3352 38.7048 59.3049 38.774 59.3102C38.8378 59.3149 38.8688 59.35 38.8735 59.3959Z" fill="#2B2B2B"/>
<path d="M14.2626 58.6689C14.2561 58.7157 14.2241 58.7426 14.1622 58.7415C14.101 58.7406 14.0649 58.714 14.0645 58.6665C14.064 58.6143 14.1021 58.5867 14.1693 58.5896C14.2313 58.5922 14.2601 58.6223 14.2626 58.6689Z" fill="#2B2B2B"/>
<path d="M43.2158 59.2571C43.2117 59.3069 43.1786 59.3372 43.1114 59.3361C43.0447 59.335 43.0084 59.3045 43.0098 59.2532C43.0112 59.2064 43.0467 59.1787 43.1073 59.1778C43.1731 59.1766 43.2103 59.2047 43.2158 59.2571Z" fill="#2B2B2B"/>
<path d="M40.5575 59.1436C40.6226 59.1477 40.6614 59.1742 40.6601 59.226C40.6587 59.2776 40.6191 59.3049 40.5526 59.3028C40.492 59.3008 40.4566 59.2728 40.4551 59.2259C40.4535 59.1748 40.49 59.1471 40.5575 59.1436Z" fill="#2B2B2B"/>
<path d="M37.9744 59.2732C37.9065 59.2658 37.8721 59.2355 37.8775 59.1849C37.8834 59.1331 37.9274 59.1091 37.9925 59.1145C38.0529 59.1196 38.0849 59.1504 38.0825 59.197C38.0794 59.2489 38.0387 59.2725 37.9744 59.2732Z" fill="#2B2B2B"/>
<path d="M1.19334 59.0764C1.18821 59.1229 1.15743 59.1513 1.09548 59.1508C1.02785 59.1503 0.991853 59.1204 0.99535 59.0685C0.99862 59.0211 1.03648 58.9966 1.09761 58.9987C1.15951 59.0009 1.18957 59.0296 1.19334 59.0764Z" fill="#2B2B2B"/>
<path d="M9.8196 58.883C9.75801 58.8809 9.71876 58.8583 9.71599 58.8105C9.71304 58.7591 9.7483 58.729 9.81634 58.73C9.8777 58.7309 9.91233 58.7584 9.91292 58.806C9.91346 58.8535 9.87901 58.8785 9.8196 58.883Z" fill="#2B2B2B"/>
<path d="M45.7613 59.3051C45.752 59.3542 45.7207 59.383 45.6604 59.3802C45.6067 59.3778 45.5726 59.3502 45.5733 59.3085C45.5739 59.2623 45.6112 59.2355 45.671 59.2374C45.7262 59.2392 45.751 59.2697 45.7613 59.3051Z" fill="#2B2B2B"/>
<path d="M11.7039 58.6165C11.6981 58.6615 11.6677 58.6906 11.6074 58.6899C11.5533 58.6893 11.5183 58.6621 11.5167 58.6208C11.5148 58.5746 11.5512 58.5466 11.611 58.5469C11.6655 58.5472 11.6943 58.5754 11.7039 58.6165Z" fill="#2B2B2B"/>
<path d="M4.01948 58.5194C4.00795 58.568 3.97565 58.5963 3.91538 58.5917C3.86233 58.5877 3.82844 58.5597 3.83121 58.5177C3.8343 58.4717 3.87234 58.4454 3.9322 58.4491C3.98665 58.4526 4.01131 58.4832 4.01948 58.5194Z" fill="#2B2B2B"/>
<path d="M45.0033 59.0945C44.994 59.1394 44.9616 59.1662 44.901 59.163C44.8411 59.1599 44.8077 59.1311 44.8107 59.0847C44.8139 59.0383 44.8511 59.0131 44.9113 59.0158C44.972 59.0186 45.0001 59.0484 45.0033 59.0945Z" fill="#2B2B2B"/>
<path d="M42.3552 58.9858C42.412 58.9948 42.4488 59.0203 42.4429 59.0666C42.4378 59.1075 42.4016 59.1333 42.3472 59.1303C42.2876 59.127 42.2532 59.0971 42.2583 59.051C42.2631 59.0098 42.3004 58.9886 42.3552 58.9858Z" fill="#2B2B2B"/>
<path d="M7.33413 58.7582C7.32491 58.8029 7.29255 58.8297 7.23201 58.8266C7.17192 58.8235 7.13863 58.7947 7.14181 58.7484C7.14494 58.7019 7.18214 58.6767 7.24223 58.6794C7.30281 58.6821 7.33122 58.7119 7.33413 58.7582Z" fill="#2B2B2B"/>
<path d="M48.2374 59.4117C48.1806 59.4033 48.1434 59.378 48.149 59.3315C48.1535 59.2905 48.1896 59.2646 48.2437 59.2673C48.3032 59.27 48.3383 59.2998 48.3335 59.3459C48.3294 59.3872 48.2922 59.4085 48.2374 59.4117Z" fill="#2B2B2B"/>
<path d="M2.12365 58.7579C2.06942 58.7484 2.0338 58.7236 2.0397 58.681C2.04547 58.6397 2.08341 58.6142 2.13905 58.62C2.18715 58.6251 2.21907 58.6519 2.21676 58.6904C2.21421 58.7331 2.17734 58.7544 2.12365 58.7579Z" fill="#2B2B2B"/>
<path d="M39.8632 59.03C39.8501 59.0716 39.8181 59.0988 39.763 59.0929C39.71 59.0872 39.6766 59.0576 39.6848 59.0145C39.6918 58.9773 39.7265 58.9535 39.7765 58.9563C39.8315 58.9595 39.8591 58.9886 39.8632 59.03Z" fill="#2B2B2B"/>
<path d="M47.5505 59.1239C47.5415 59.1654 47.5112 59.1933 47.4558 59.1906C47.4013 59.188 47.3676 59.1589 47.3714 59.1162C47.3748 59.0786 47.4086 59.0536 47.4582 59.0537C47.5139 59.0539 47.5425 59.0821 47.5505 59.1239Z" fill="#2B2B2B"/>
<path d="M3.2473 58.3058C3.24071 58.3448 3.21225 58.3686 3.16143 58.3671C3.11065 58.3657 3.07978 58.3404 3.0811 58.3012C3.08241 58.2621 3.11482 58.2384 3.16569 58.2398C3.21655 58.2412 3.24321 58.2667 3.2473 58.3058Z" fill="#2B2B2B"/>
<path d="M6.55253 58.5564C6.54817 58.5931 6.52306 58.6135 6.4761 58.6126C6.42237 58.6115 6.39643 58.5867 6.40088 58.5468C6.40488 58.5105 6.43578 58.4931 6.48206 58.4959C6.52925 58.4988 6.5514 58.5213 6.55253 58.5564Z" fill="#2B2B2B"/>
<path d="M9.05303 58.6433C9.00639 58.6402 8.97861 58.6215 8.97852 58.5851C8.97842 58.5439 9.00899 58.523 9.06126 58.5262C9.10831 58.529 9.13192 58.5523 9.12974 58.5882C9.12747 58.6247 9.09931 58.6422 9.05303 58.6433Z" fill="#2B2B2B"/>
<path d="M8.26952 58.334C8.31009 58.338 8.33775 58.3551 8.33912 58.3868C8.34059 58.4189 8.31387 58.4395 8.27317 58.4403C8.23168 58.4413 8.20499 58.4203 8.20321 58.3888C8.20142 58.3564 8.22959 58.3399 8.26952 58.334Z" fill="#2B2B2B"/>
<path d="M10.8468 58.4751C10.8 58.4707 10.7736 58.451 10.7766 58.4147C10.7795 58.3784 10.8093 58.3604 10.8557 58.3637C10.8965 58.3666 10.9199 58.3866 10.9199 58.4185C10.92 58.4551 10.8929 58.473 10.8468 58.4751Z" fill="#2B2B2B"/>
<path d="M13.3962 58.5066C13.3498 58.5014 13.3248 58.4805 13.3273 58.4445C13.3302 58.4028 13.364 58.3849 13.4152 58.39C13.4625 58.3949 13.483 58.4206 13.4783 58.4556C13.4733 58.492 13.4426 58.5075 13.3962 58.5066Z" fill="#2B2B2B"/>
<path d="M39.0106 58.751C39.0512 58.7549 39.0789 58.7721 39.0803 58.8037C39.0817 58.8358 39.0549 58.8564 39.0144 58.8572C38.9728 58.8582 38.9462 58.8373 38.9444 58.8058C38.9427 58.7734 38.9707 58.7569 39.0106 58.751Z" fill="#2B2B2B"/>
<path d="M44.2178 58.8891C44.2134 58.9247 44.1889 58.9454 44.1417 58.9432C44.0945 58.9411 44.0704 58.9185 44.0735 58.8825C44.0763 58.8509 44.1014 58.8327 44.1428 58.8325C44.1896 58.8323 44.2141 58.8529 44.2178 58.8891Z" fill="#2B2B2B"/>
<path d="M41.6385 58.8418C41.6292 58.8725 41.6066 58.8934 41.5647 58.8907C41.5241 58.888 41.4981 58.8665 41.5012 58.8345C41.504 58.8033 41.5314 58.7834 41.573 58.7858C41.6139 58.7882 41.6351 58.8104 41.6385 58.8418Z" fill="#2B2B2B"/>
<path d="M46.7714 58.9263C46.7649 58.9622 46.738 58.9812 46.6915 58.9773C46.6443 58.9734 46.6223 58.9488 46.6278 58.9136C46.6326 58.8825 46.6595 58.8653 46.7008 58.8668C46.7483 58.8686 46.77 58.8907 46.7714 58.9263Z" fill="#2B2B2B"/>
<path d="M49.2547 59.0076C49.2086 59.0052 49.1803 58.9872 49.1807 58.9506C49.181 58.9142 49.2086 58.8947 49.2554 58.8961C49.2964 58.8972 49.3215 58.9161 49.3239 58.9477C49.3263 58.9838 49.3012 59.0037 49.2547 59.0076Z" fill="#2B2B2B"/>
<path d="M12.6468 58.1973C12.6866 58.2047 12.7141 58.2225 12.711 58.2547C12.7081 58.286 12.6808 58.306 12.6393 58.3035C12.5985 58.301 12.5727 58.2795 12.5754 58.2475C12.578 58.2157 12.6063 58.1999 12.6468 58.1973Z" fill="#2B2B2B"/>
<path d="M1.43132 58.4743C1.42373 58.5018 1.40333 58.5202 1.36743 58.5182C1.32627 58.516 1.30231 58.4945 1.30862 58.4629C1.31388 58.4364 1.34044 58.4198 1.37629 58.424C1.41078 58.428 1.42999 58.4471 1.43132 58.4743Z" fill="#2B2B2B"/>
<path d="M5.65527 58.3357C5.66145 58.3053 5.68164 58.2868 5.71709 58.2871C5.75871 58.2876 5.78339 58.3089 5.77904 58.3406C5.77539 58.3671 5.74995 58.3843 5.71359 58.3817C5.67782 58.3791 5.66053 58.3592 5.65527 58.3357Z" fill="#2B2B2B"/>
<path d="M15.2605 58.2781C15.253 58.309 15.2326 58.3275 15.1969 58.3263C15.1554 58.3248 15.1312 58.3031 15.1365 58.2716C15.1409 58.2455 15.167 58.2285 15.2034 58.2319C15.2391 58.2352 15.2555 58.2555 15.2605 58.2781Z" fill="#2B2B2B"/>
<path fill-rule="evenodd" clip-rule="evenodd" d="M43.1148 59.3361C43.1138 59.3361 43.1125 59.3361 43.1114 59.3361C43.0447 59.335 43.0084 59.3045 43.0098 59.2532C43.0112 59.2064 43.0467 59.1787 43.1073 59.1778C43.1084 59.1777 43.1097 59.1777 43.1108 59.1777C43.1745 59.1777 43.2103 59.2057 43.2158 59.2571C43.2117 59.306 43.1796 59.3361 43.1148 59.3361Z" fill="url(#paint0_linear_506_5367)"/>
<path fill-rule="evenodd" clip-rule="evenodd" d="M19.4528 58.523L17.7931 58.3431C17.8026 58.3352 17.8087 58.3242 17.8113 58.3111C17.8081 58.2838 17.7889 58.2652 17.754 58.2625C17.7515 58.2623 17.7489 58.2622 17.7464 58.2622C17.7146 58.2622 17.6926 58.2788 17.6893 58.3032C17.6877 58.3145 17.6899 58.3244 17.6952 58.3325L17.6162 58.324L17.6731 51.4365L19.4528 50.8423H19.4528V58.523Z" fill="url(#paint1_linear_506_5367)"/>
<path d="M14.7274 59.2545L5.38718 59.3147L5.39447 59.1948L18.1131 60.713C22.352 61.2236 26.5936 61.7128 30.8293 62.2495L30.812 62.2489L44.4111 61.6712C48.9438 61.4703 53.4774 61.2997 58.0121 61.1308C53.481 61.3693 48.9499 61.6061 44.4172 61.8128L30.8214 62.4575L30.813 62.4578L30.8039 62.4568C26.5632 61.9606 22.3284 61.417 18.0908 60.8948L5.37988 59.3142L5.38718 59.1943L14.7274 59.2545Z" fill="#505050"/>
<path d="M3.49326 57.7724C3.4628 56.0461 3.4501 54.3196 3.44538 52.5934L3.44531 52.5566L3.48122 52.5471L6.73681 51.6832C7.82073 51.3907 8.91158 51.1243 9.99863 50.8437L13.2625 50.0119C14.3492 49.7299 15.442 49.4711 16.532 49.2017C15.4489 49.4976 14.3686 49.8041 13.2821 50.0873L10.0267 50.9513C8.94062 51.2358 7.85838 51.535 6.76925 51.8076L3.50544 52.6395L3.54114 52.5934C3.53642 54.3196 3.52372 56.0461 3.49326 57.7724Z" fill="#505050"/>
<path d="M10.1486 54.6653C10.0931 52.6792 10.105 53.6596 10.0827 51.6735L10.082 51.6222L10.1328 51.6095C11.196 51.3446 12.2633 51.0955 13.3283 50.8377C14.3927 50.5775 15.4598 50.328 16.5303 50.0923C15.4736 50.3836 14.4135 50.6611 13.3507 50.928C12.2885 51.1972 11.2286 51.4752 10.1646 51.7374L10.2146 51.6735C10.1923 53.6596 10.2042 52.6792 10.1486 54.6653Z" fill="#505050"/>
<path d="M16.5304 52.8673L16.4934 48.9716L16.4932 48.9435L16.5208 48.9359L21.9558 47.449L21.9656 47.4463L21.9762 47.4473L25.7185 47.7843L29.459 48.1421C31.9529 48.3785 34.4463 48.6167 36.9378 48.8799C34.4401 48.6847 31.9448 48.4645 29.4497 48.2427L25.7067 47.9129L21.9656 47.5625L21.9859 47.5607L16.54 49.0072L16.5674 48.9716L16.5304 52.8673Z" fill="#505050"/>
<path d="M16.8758 57.7704C16.8272 55.5094 16.8322 53.2483 16.8149 50.9873L16.8145 50.9391L16.8627 50.9278C18.4198 50.5666 19.9864 50.2486 21.5483 49.9089L21.6074 49.896L21.6071 49.956C21.602 51.4685 21.5899 52.981 21.5588 54.4934C21.5276 52.981 21.5155 51.4685 21.5103 49.956L21.5692 50.0032C20.009 50.3509 18.4538 50.7204 16.889 51.0467L16.9368 50.9873C16.9194 53.2483 16.9245 55.5094 16.8758 57.7704Z" fill="#505050"/>
<path d="M3.79004 53.6224C4.83779 53.3363 5.89675 53.1014 6.95483 52.8625C8.01631 52.6391 9.07679 52.4115 10.1487 52.2358C9.101 52.5223 8.04202 52.7569 6.98394 52.9957C5.92246 53.219 4.86181 53.4461 3.79004 53.6224Z" fill="#505050"/>
<path d="M23.6973 47.7541L49.6398 40.9824L49.2071 40.8496L23.6973 47.7541Z" fill="#505050"/>
<path d="M21.9029 50.9404C21.9315 53.2702 21.946 55.6001 21.9494 57.9299L21.9035 57.8835L29.4216 57.9459L36.9391 58.052L36.9005 58.0903L36.9387 53.4842L36.9773 58.0903L36.9776 58.129L36.9384 58.1286L29.4202 58.0743L21.9025 57.9763L21.8564 57.9757V57.9299C21.8598 55.6001 21.8745 53.2702 21.9029 50.9404Z" fill="#505050"/>
<path d="M3.61523 57.4523C4.66149 57.4062 5.70734 57.4124 6.75318 57.4147C7.79885 57.4327 8.07538 57.4466 9.12063 57.5133C8.07424 57.5598 7.79764 57.5533 6.75184 57.551C5.70617 57.5328 4.66044 57.5186 3.61523 57.4523Z" fill="#505050"/>
<path d="M36.027 51.9204L36.063 53.0204L36.0645 53.0573L36.0253 53.0566C34.9234 53.0379 33.8218 53.0037 32.7208 52.9552C31.6198 52.9077 30.5193 52.8485 29.4199 52.7607C30.5228 52.7595 31.6246 52.7868 32.7259 52.8259C33.8273 52.864 34.9282 52.9163 36.0284 52.9842L35.9906 53.0204L36.027 51.9204Z" fill="#505050"/>
<path d="M29.4203 51.5197L29.3937 50.8017L29.3926 50.7739L29.4222 50.7752C31.5725 50.8651 33.7188 51.0127 35.8593 51.2447C33.7072 51.1815 31.5608 51.0338 29.4185 50.8283L29.447 50.8017L29.4203 51.5197Z" fill="#505050"/>
<path d="M36.9385 46.9175C36.9598 47.2522 36.9794 47.5871 36.9873 47.9219L36.9295 47.8743C38.0586 47.6314 39.1935 47.418 40.3421 47.2775C39.2217 47.5667 38.0874 47.7828 36.9477 47.9696L36.8887 47.9792L36.89 47.9219C36.8979 47.5871 36.9172 47.2522 36.9385 46.9175Z" fill="#505050"/>
<path d="M39.1839 46.9186L39.1667 46.5395L39.166 46.5262L39.1805 46.5227C39.895 46.3432 40.6148 46.1894 41.3352 46.0397C42.0562 45.8923 42.7783 45.7498 43.5042 45.6264L43.5554 45.6177L43.5547 45.6678C43.5488 46.0215 43.5271 46.3753 43.5124 46.7291C43.4976 46.3753 43.476 46.0215 43.4702 45.6678L43.5207 45.7091C42.8037 45.8763 42.083 46.0244 41.3612 46.1676C40.6388 46.3085 39.9157 46.4452 39.1873 46.5564L39.2011 46.5395L39.1839 46.9186Z" fill="#505050"/>
<path d="M45.469 45.6665L45.4954 46.2919L45.4644 46.266C47.3204 45.8674 49.1873 45.5264 51.0694 45.2686C49.2179 45.6929 47.351 46.0341 45.4738 46.3178L45.4414 46.3227L45.4428 46.2919L45.469 45.6665Z" fill="#505050"/>
<path d="M17.1475 51.0898L18.0328 51.1302L18.0607 51.1314L18.0617 51.1613C18.0943 52.2624 18.109 53.3637 18.11 54.4649C18.1098 55.5662 18.1007 56.6675 18.0587 57.7689C18.0072 56.6678 17.9886 55.5667 17.979 54.4655C17.9704 53.3642 17.9757 52.2629 17.9988 51.1616L18.0277 51.1926L17.1475 51.0898Z" fill="#505050"/>
<path d="M19.7832 50.4954C20.0972 50.4632 20.4064 50.4851 20.7147 50.5157L20.6946 50.517C20.933 50.4695 21.1733 50.4311 21.4207 50.4243C21.1933 50.5218 20.959 50.5876 20.7228 50.6445L20.7136 50.6466L20.7026 50.6458C20.3939 50.6194 20.0861 50.5845 19.7832 50.4954Z" fill="#505050"/>
<path d="M20.7212 51.0215C20.7951 53.2715 20.7981 55.5216 20.7725 57.7716L20.772 57.8205L20.7244 57.8228L19.7838 57.8653L19.781 57.8654L19.7798 57.8653L18.5713 57.7716L19.7832 57.7947H19.7794L20.718 57.7205L20.67 57.7716C20.6444 55.5216 20.6474 53.2715 20.7212 51.0215Z" fill="#505050"/>
<path d="M19.7812 50.8042C19.8374 51.8826 19.8414 52.961 19.8494 54.0395C19.8415 55.1179 19.8379 56.1963 19.7812 57.2748C19.7244 56.1963 19.7207 55.1179 19.7129 54.0395C19.7209 52.961 19.7248 51.8826 19.7812 50.8042Z" fill="#505050"/>
<path d="M21.0938 58.5552L21.9049 58.6264L21.9046 58.6264L33.561 58.5846L36.475 58.579C37.4466 58.5782 38.4173 58.6207 39.3886 58.6395L45.2145 58.7869C52.9819 59.0205 60.7503 59.2162 68.5162 59.4838C60.7473 59.3319 52.9804 59.108 45.2121 58.922L39.3868 58.7547C38.4159 58.7322 37.4449 58.6859 36.4736 58.683L33.5601 58.6774L21.9046 58.6355H21.9041L21.0938 58.5552Z" fill="#505050"/>
<path d="M3.79004 53.942C4.80737 53.6924 5.83435 53.4943 6.8607 53.2922C7.88996 53.1056 8.91843 52.9149 9.95679 52.7764C8.9395 53.0263 7.91244 53.2242 6.88613 53.4261C5.85683 53.6125 4.82827 53.8029 3.79004 53.942Z" fill="#505050"/>
<path d="M37.3223 56.9318C37.2961 56.4454 37.2782 55.959 37.2686 55.4726L37.2676 55.4223L37.3198 55.419C38.4389 55.3487 39.559 55.2902 40.6808 55.2749L40.7208 55.2744L40.7193 55.3114L40.6826 56.1216L40.6461 55.3114L40.6843 55.348C39.5662 55.44 38.4458 55.489 37.325 55.5261L37.3762 55.4726C37.3666 55.959 37.3487 56.4454 37.3223 56.9318Z" fill="#505050"/>
<path d="M41.0925 55.8988L41.1176 56.8748L41.0922 56.8497C42.6454 56.7965 44.1985 56.7692 45.7524 56.7521L45.6871 56.8179L45.695 55.1598L45.7544 55.2177C44.7577 55.2317 43.7603 55.2401 42.7629 55.2355C43.7589 55.1805 44.7553 55.1383 45.7517 55.1018L45.8108 55.0996L45.8111 55.1598L45.8191 56.8179L45.8194 56.883L45.7537 56.884C44.2002 56.9047 42.6467 56.9152 41.0929 56.9001L41.0664 56.8998L41.0671 56.8748L41.0925 55.8988Z" fill="#505050"/>
<path d="M46.2842 55.1622C47.684 55.0627 49.0856 55.0136 50.4869 54.9616L50.5573 54.959L50.557 55.0296L50.547 56.8394L50.5467 56.8981L50.489 56.8974C49.663 56.8863 48.8374 56.8694 48.0115 56.8394C48.8374 56.8096 49.663 56.7926 50.489 56.7815L50.4309 56.8394L50.421 55.0296L50.4911 55.0974C49.0895 55.134 47.6875 55.1733 46.2842 55.1622Z" fill="#505050"/>
<path d="M51.1327 55.9365L51.1531 56.8414L51.1333 56.8213C52.0989 56.7956 53.0645 56.8015 54.0306 56.79C54.9963 56.7875 55.9619 56.7645 56.9281 56.7786L56.8649 56.8414L56.8807 54.7899L56.9291 54.8369C55.8616 54.8661 54.7929 54.8856 53.7244 54.8894C54.7909 54.8268 55.8584 54.78 56.9265 54.743L56.9744 54.7412L56.9749 54.7899L56.9907 56.8414L56.9912 56.9034L56.9281 56.9043C55.9619 56.9184 54.9963 56.8954 54.0306 56.8929C53.0645 56.8814 52.0989 56.8873 51.1333 56.8616L51.1123 56.861L51.1129 56.8414L51.1327 55.9365Z" fill="#505050"/>
<path d="M61.5761 54.6608C60.2731 54.7191 58.9696 54.7607 57.6667 54.7934L57.7131 54.746L57.7257 56.8022L57.6656 56.7416C58.858 56.7271 60.0509 56.7436 61.2438 56.7495C62.4367 56.7609 63.6297 56.7566 64.8221 56.781L64.8012 56.8022L64.8221 55.6651L64.8435 56.8022L64.8445 56.8231L64.8221 56.8237C63.6297 56.8481 62.4367 56.8436 61.2438 56.8551C60.0509 56.861 58.858 56.8774 57.6656 56.8629L57.6045 56.8622V56.8022L57.6177 54.746L57.6182 54.6994L57.6646 54.6985C58.9681 54.6745 60.2716 54.6592 61.5761 54.6608Z" fill="#505050"/>
<path d="M10.3146 54.2188L10.2795 53.2807L10.2783 53.2518L10.3089 53.246C11.2944 53.0581 12.2823 52.8847 13.2727 52.7261C14.2629 52.567 15.255 52.4187 16.2519 52.2998C15.2698 52.5079 14.2827 52.6865 13.2939 52.8543C12.3052 53.0226 11.3139 53.1763 10.3203 53.3152L10.3497 53.2807L10.3146 54.2188Z" fill="#505050"/>
<path d="M12.0078 54.0406C12.7334 53.9062 13.462 53.7958 14.1925 53.7C14.9225 53.6014 15.6543 53.5161 16.3882 53.4475L16.3537 53.4866C16.36 53.2004 16.3805 52.9141 16.3932 52.6279C16.4059 52.9141 16.4264 53.2004 16.4326 53.4866L16.4334 53.52L16.3981 53.5256C15.6703 53.6417 14.9403 53.7411 14.2085 53.8272C13.4772 53.9161 12.744 53.9903 12.0078 54.0406Z" fill="#505050"/>
<path d="M18.9273 50.7148C18.9566 50.8712 18.9729 51.0275 18.9849 51.1839C18.9866 51.3402 19.0012 51.4965 18.9923 51.6529L18.9891 51.7074L18.9403 51.7164C18.7085 51.7597 18.4743 51.7915 18.2344 51.7951C18.4563 51.7039 18.6841 51.641 18.9142 51.5895L18.8624 51.6529C18.8535 51.4965 18.8679 51.3402 18.8697 51.1839C18.8816 51.0275 18.8979 50.8712 18.9273 50.7148Z" fill="#505050"/>
<path d="M18.9281 51.9121C18.9889 52.1742 18.9953 52.4364 18.9935 52.6986L18.9187 52.6338C19.125 52.6091 19.3327 52.5929 19.5451 52.6096C19.3461 52.6856 19.1424 52.7288 18.9375 52.7633L18.863 52.7759L18.8625 52.6986C18.8608 52.4364 18.8671 52.1742 18.9281 51.9121Z" fill="#505050"/>
<path d="M18.2344 53.732C18.4586 53.6496 18.689 53.6155 18.919 53.5797L18.8595 53.6468C18.866 53.4051 18.8693 53.1635 18.9273 52.9219C18.9853 53.1635 18.9886 53.4051 18.9951 53.6468L18.9967 53.7084L18.9356 53.714C18.7038 53.735 18.472 53.7578 18.2344 53.732Z" fill="#505050"/>
<path d="M18.9273 55.4078C18.8732 55.1875 18.8669 54.9671 18.8597 54.7468L18.9348 54.8139C18.7032 54.8341 18.4719 54.8567 18.2344 54.825C18.4588 54.7411 18.6893 54.7116 18.9196 54.6797L18.9975 54.6689L18.995 54.7468C18.9876 54.9671 18.9813 55.1875 18.9273 55.4078Z" fill="#505050"/>
<path d="M18.9282 56.8116C18.8661 56.4942 18.8576 56.1768 18.8641 55.8594L18.8654 55.7983L18.9242 55.7955C19.1474 55.7846 19.3717 55.7892 19.5974 55.8167C19.3771 55.8727 19.1552 55.9057 18.9323 55.9232L18.9923 55.8594C18.9988 56.1768 18.9903 56.4942 18.9282 56.8116Z" fill="#505050"/>
<path d="M15.1497 54.1914C14.9751 54.2774 14.7998 54.3617 14.6241 54.4444C14.4483 54.5272 14.2724 54.6096 14.0957 54.69C13.9195 54.7716 13.7426 54.8512 13.5655 54.9306L13.3 55.0499L13.0338 55.167L13.0249 55.1708L13.0137 55.1718L12.5868 55.2071L12.1595 55.2389C11.8747 55.2611 11.5899 55.2799 11.3048 55.2984C11.0199 55.3181 10.7347 55.3335 10.4496 55.3499C10.3071 55.3586 10.1644 55.3651 10.0218 55.3722C9.87915 55.3787 9.73655 55.3869 9.59385 55.3922L9.38379 55.3999L9.56708 55.2958L9.8518 55.1343L10.1374 54.9744C10.2327 54.9211 10.3284 54.8687 10.4241 54.8164C10.5195 54.7636 10.6161 54.7128 10.7122 54.6611C10.6213 54.7227 10.5309 54.7853 10.4394 54.8457C10.3484 54.9068 10.2571 54.9676 10.1653 55.0274L9.89033 55.2074L9.61425 55.3856L9.58748 55.2893C9.72963 55.2746 9.87196 55.2628 10.0142 55.2493C10.1565 55.2364 10.2987 55.2229 10.4411 55.2116C10.7258 55.188 11.0103 55.1634 11.2953 55.1432C11.5801 55.1217 11.8648 55.1005 12.1498 55.0826L12.5772 55.0544L13.0049 55.0298L12.9849 55.0345L13.2536 54.9243L13.5233 54.8163C13.7029 54.744 13.8828 54.6721 14.0633 54.6021C14.2434 54.5311 14.4242 54.4619 14.6051 54.393C14.7861 54.3242 14.9676 54.257 15.1497 54.1914Z" fill="#505050"/>
<path d="M9.68512 55.5679C9.69124 55.6372 9.69799 55.7067 9.70275 55.776C9.70828 55.8454 9.71326 55.9148 9.71734 55.9842L9.6876 55.9533C9.81891 55.9402 9.95028 55.9306 10.0816 55.92L10.4759 55.8939L10.8702 55.8737L11.2647 55.8592C11.3962 55.854 11.5279 55.8528 11.6593 55.8495C11.7909 55.8457 11.9225 55.8452 12.0541 55.8444C12.1858 55.8427 12.3173 55.8436 12.449 55.8449C12.5807 55.845 12.7124 55.8491 12.8441 55.8516L12.8408 55.852L13.9678 55.7325L14.5315 55.6746L15.0953 55.6187L14.5342 55.6998L13.9727 55.7787L12.8495 55.933L12.8462 55.9332C12.7149 55.9434 12.5835 55.9553 12.4521 55.963C12.3207 55.9719 12.1893 55.9804 12.0579 55.9864C11.9264 55.9934 11.7949 56.0004 11.6634 56.0044C11.5319 56.0087 11.4004 56.0152 11.2689 56.0176L10.8742 56.0261L10.4794 56.029L10.0844 56.0258C9.9527 56.0229 9.82102 56.0209 9.6893 56.0155L9.6582 56.0142L9.65948 55.9847C9.66256 55.9152 9.66643 55.8457 9.67074 55.7763C9.67441 55.7068 9.68018 55.6374 9.68512 55.5679Z" fill="#505050"/>
<path d="M9.73351 56.2842C9.74652 56.4271 9.7555 56.5701 9.76665 56.7131L9.78068 56.9275L9.79243 57.142C9.79615 57.2135 9.80268 57.285 9.8083 57.3565C9.8136 57.428 9.81442 57.4995 9.81071 57.571C9.80681 57.6426 9.80065 57.7141 9.79045 57.7857C9.7807 57.8574 9.76805 57.929 9.74725 58.0007L9.73244 58.0007C9.71055 57.9294 9.69679 57.858 9.68591 57.7865C9.67449 57.7151 9.66715 57.6436 9.66211 57.5722C9.65722 57.5007 9.65695 57.4292 9.66112 57.3576C9.66561 57.2861 9.67098 57.2145 9.67352 57.143L9.6818 56.9283L9.69243 56.7137C9.70118 56.5705 9.70791 56.4275 9.71856 56.2844L9.73351 56.2842Z" fill="#505050"/>
<path d="M10.3571 56.2539C10.3701 56.404 10.3792 56.5541 10.3904 56.7041L10.4045 56.9292L10.4163 57.1543C10.4201 57.2294 10.4266 57.3044 10.4323 57.3794C10.4377 57.4544 10.4385 57.5296 10.4348 57.6047C10.4311 57.6797 10.4247 57.7549 10.4146 57.83C10.4049 57.9052 10.3922 57.9803 10.3716 58.0556L10.3567 58.0557C10.3348 57.9808 10.321 57.9058 10.31 57.8309C10.2986 57.7558 10.2911 57.6808 10.2862 57.6058C10.2813 57.5308 10.281 57.4557 10.2851 57.3806C10.2895 57.3055 10.2948 57.2304 10.2974 57.1553L10.3056 56.93L10.3161 56.7047C10.3249 56.5545 10.3315 56.4043 10.3422 56.254L10.3571 56.2539Z" fill="#505050"/>
<path d="M10.9835 56.2285C10.9966 56.3856 11.0058 56.5428 11.0171 56.7L11.0312 56.9357L11.0431 57.1715C11.0469 57.2501 11.0535 57.3287 11.0591 57.4073C11.0645 57.4859 11.0655 57.5645 11.0618 57.6431C11.0581 57.7218 11.0516 57.8004 11.0416 57.8791C11.0319 57.9578 11.0193 58.0367 10.9987 58.1155L10.9838 58.1155C10.9619 58.0371 10.948 57.9586 10.937 57.88C10.9258 57.8015 10.9181 57.723 10.9132 57.6443C10.9083 57.5658 10.9079 57.4871 10.912 57.4085C10.9164 57.3298 10.9216 57.2512 10.9242 57.1725L10.9323 56.9365L10.9427 56.7006C10.9514 56.5433 10.9581 56.386 10.9686 56.2286L10.9835 56.2285Z" fill="#505050"/>
<path d="M11.6072 56.2031C11.6203 56.3674 11.6295 56.5317 11.6408 56.6959L11.655 56.9424L11.6671 57.1889C11.6709 57.271 11.6775 57.3532 11.6832 57.4352C11.6886 57.5174 11.6896 57.5995 11.686 57.6818C11.6823 57.764 11.6757 57.8463 11.6659 57.9285C11.6561 58.0107 11.6436 58.093 11.623 58.1754L11.6081 58.1755C11.5861 58.0935 11.5723 58.0114 11.5613 57.9294C11.5502 57.8472 11.5422 57.7651 11.5373 57.6829C11.5322 57.6008 11.5319 57.5186 11.536 57.4364C11.5404 57.3542 11.5456 57.272 11.5481 57.1898L11.5562 56.9432L11.5665 56.6966C11.5752 56.5322 11.5817 56.3678 11.5922 56.2033L11.6072 56.2031Z" fill="#505050"/>
<path d="M12.2306 56.207C12.2439 56.3784 12.2531 56.5498 12.2645 56.7211L12.2789 56.9782L12.2909 57.2354C12.2948 57.3211 12.3014 57.4067 12.3072 57.4924C12.3125 57.5781 12.3136 57.6638 12.31 57.7496C12.3064 57.8354 12.2997 57.9212 12.2901 58.007C12.2804 58.0927 12.2678 58.1786 12.2472 58.2645L12.2323 58.2647C12.2104 58.1791 12.1965 58.0934 12.1854 58.0077C12.1743 57.9222 12.1663 57.8364 12.1613 57.7507C12.1563 57.6651 12.156 57.5794 12.1599 57.4936C12.1643 57.4078 12.1696 57.322 12.172 57.2362L12.18 56.979L12.1901 56.7218C12.1988 56.5502 12.2052 56.3787 12.2158 56.2072L12.2306 56.207Z" fill="#505050"/>
<path d="M12.8551 56.1475C12.8685 56.3259 12.8778 56.5044 12.8893 56.683L12.9037 56.9506L12.9158 57.2184C12.9197 57.3077 12.9264 57.3969 12.9321 57.4861C12.9376 57.5753 12.9387 57.6647 12.935 57.754C12.9316 57.8433 12.9247 57.9327 12.9151 58.022C12.9055 58.1114 12.893 58.1321 12.8724 58.2215L12.8575 58.256C12.8356 58.1668 12.8216 58.112 12.8106 58.0228C12.7996 57.9337 12.7913 57.8444 12.7864 57.7552C12.7813 57.6659 12.781 57.5767 12.7849 57.4873C12.7893 57.398 12.7944 57.3087 12.7969 57.2193L12.8049 56.9515L12.8149 56.6835C12.8235 56.5049 12.8299 56.3263 12.8403 56.1476L12.8551 56.1475Z" fill="#505050"/>
<path d="M15.1067 55.8452C15.1201 56.0308 15.1294 56.2164 15.1409 56.402L15.1554 56.6805L15.1676 56.959C15.1716 57.0518 15.1783 57.1446 15.1841 57.2374C15.1895 57.3301 15.1906 57.423 15.187 57.5159C15.1835 57.6088 15.1768 57.7016 15.1673 57.7946C15.1577 57.8875 15.1452 57.9805 15.1246 58.0735L15.1098 58.0736C15.0877 57.981 15.0737 57.8882 15.0627 57.7954C15.0516 57.7027 15.0433 57.6099 15.0384 57.5171C15.0333 57.4243 15.0329 57.3314 15.0368 57.2386C15.0412 57.1457 15.0463 57.0528 15.0487 56.9599L15.0565 56.6813L15.0666 56.4027C15.075 56.2169 15.0814 56.0312 15.0918 55.8454L15.1067 55.8452Z" fill="#505050"/>
<path d="M14.3864 55.9941C14.3998 56.1728 14.409 56.3515 14.4204 56.5301L14.4349 56.7981L14.4471 57.0662C14.451 57.1555 14.4576 57.2449 14.4633 57.3342C14.4688 57.4236 14.4699 57.5129 14.4662 57.6023C14.4628 57.6917 14.456 57.7812 14.4463 57.8706C14.4367 57.9601 14.4242 58.0495 14.4037 58.1391L14.3888 58.1392C14.3668 58.05 14.3529 57.9607 14.3418 57.8714C14.3308 57.7822 14.3226 57.6929 14.3176 57.6035C14.3126 57.5142 14.3122 57.4248 14.3162 57.3354C14.3205 57.246 14.3257 57.1566 14.3281 57.0672L14.3361 56.799L14.3461 56.5307C14.3547 56.3519 14.3611 56.1731 14.3716 55.9942L14.3864 55.9941Z" fill="#505050"/>
<path d="M13.5896 56.1006C13.6029 56.2792 13.6121 56.4579 13.6236 56.6366L13.638 56.9046L13.6502 57.1726C13.6541 57.2619 13.6607 57.3513 13.6665 57.4406C13.672 57.53 13.6729 57.6193 13.6693 57.7087C13.6659 57.7981 13.6591 57.8876 13.6495 57.977C13.6399 58.0665 13.6274 58.1559 13.6069 58.2455L13.5919 58.2457C13.5699 58.1565 13.5559 58.0671 13.5449 57.9779C13.5339 57.8885 13.5257 57.7993 13.5207 57.7099C13.5157 57.6206 13.5153 57.5312 13.5193 57.4419C13.5236 57.3524 13.5288 57.263 13.5313 57.1735L13.5391 56.9054L13.5492 56.6372C13.5578 56.4583 13.5642 56.2795 13.5746 56.1007L13.5896 56.1006Z" fill="#505050"/>
<path d="M54.6503 9.375L50.3691 37.1935H54.9395L57.6885 20.0469H60.227L60.7441 16.646H58.1324L58.7121 12.5924H61.3985L61.8337 9.375H54.6503Z" fill="#505050"/>
<path d="M31.6754 29.6946L32.6682 25.7107H34.4842L34.0369 29.6946H38.2839L39.4603 9.33203H33.5795L27.3721 29.6946H31.6754ZM33.5048 22.3217L35.6775 13.5653L35.7743 13.177L36.1247 11.6752L35.8934 13.2193L35.8456 13.6211L34.8649 22.3236L33.5048 22.3217Z" fill="#505050"/>
<path d="M8.3551 0L4.09082 29.7379H8.61675L9.78121 21.3174L9.81542 21.0815L9.9499 20.0593L9.9648 21.4611L9.98361 21.9239L10.3817 29.7379H14.8648L13.6238 18.8488L17.609 9.37681H13.3231L10.6366 16.6141L10.533 16.8857L10.2386 17.8622L10.4019 16.7857L10.441 16.5517L12.7346 0H8.3551Z" fill="#505050"/>
<path d="M18.9401 9.375H23.7003L23.9996 17.8061L24.0097 18.067L23.9876 19.081L24.2021 17.7974L25.5399 9.375H29.1989L26.1284 29.7361H21.8352L21.3966 20.3574L21.3865 20.1118L21.4019 19.081L21.2231 20.3862L19.7884 29.7361H15.8691L18.9401 9.375Z" fill="#505050"/>
<path d="M54.6503 9.375L50.3691 37.1935H54.9395L57.6885 20.0469H60.227L60.7441 16.646H58.1324L58.7121 12.5924H61.3985L61.8337 9.375H54.6503Z" fill="#505050"/>
<path d="M31.6754 29.6946L32.6682 25.7107H34.4842L34.0369 29.6946H38.2839L39.4603 9.33203H33.5795L27.3721 29.6946H31.6754ZM33.5048 22.3217L35.6775 13.5653L35.7743 13.177L36.1247 11.6752L35.8934 13.2193L35.8456 13.6211L34.8649 22.3236L33.5048 22.3217Z" fill="#505050"/>
<path d="M45.8749 25.4586L48.4287 9.38845L52.8491 9.3851L50.384 25.0587C50.1628 26.4692 50.3839 25.0587 50.1541 26.4606C50.0456 27.1218 49.8803 27.6201 49.6817 28.0421C49.4095 28.6221 48.9299 29.0561 48.3858 29.4257C47.8745 29.775 47.2079 29.9816 46.3611 30.1037C45.5992 30.2123 44.7307 30.2479 43.8752 30.1936C43.2328 30.1532 42.5152 30.0667 42.0988 29.9038C41.6872 29.7428 41.427 29.6511 41.0838 29.3968C40.747 29.1527 40.5768 28.9715 40.3561 28.6202C40.1011 28.2069 40.0312 27.932 39.9479 27.4457C39.8611 26.9368 39.8765 26.5437 39.9411 26.0333C40.0124 25.4552 40.038 25.4163 40.1026 25.0193C40.1349 24.8295 40.1705 24.6753 40.1927 24.5311C41.1484 19.3963 41.6158 15.5022 42.6 9.38845L47.0956 9.375L44.5505 25.4009L44.4705 25.8738C44.4705 25.8738 44.4194 26.1285 44.4536 26.2861C44.4859 26.4606 44.5297 26.5673 44.6594 26.6879C44.7799 26.7999 44.8854 26.8489 45.0536 26.8469C45.1996 26.8455 45.2917 26.8181 45.4155 26.7388C45.5278 26.6672 45.5756 26.598 45.6455 26.486C45.7611 26.2977 45.7491 26.1588 45.7968 25.9435C45.8392 25.7556 45.8749 25.4586 45.8749 25.4586Z" fill="#505050"/>
<path d="M76.268 9.55811L73.2227 29.9087H80.5237L81.0403 26.4606H78.2894L79.2176 20.2723H81.5946L82.1117 16.8223H79.7348L80.3058 13.0081H83.038L83.5552 9.55811H76.268Z" fill="#505050"/>
<path d="M114.747 9.55811L113.424 18.1535L112.834 9.56146L108.75 9.55811L105.698 29.9087H110.113L111.814 18.5687L112.31 29.9087H116.076L119.126 9.55811H114.747Z" fill="#505050"/>
<path d="M68.7001 16.6212L69.2302 13.1712C69.2779 12.8776 69.2336 12.6608 68.7473 12.6555C68.1728 12.6507 68.1217 12.7454 68.0523 13.1573L66.0764 26.2013C66.0306 26.554 66.3351 26.7285 66.6156 26.7285C66.9622 26.7285 67.1121 26.4896 67.1458 26.2133L68.0523 20.4186L72.6395 20.41L71.7686 26.2133C71.2607 29.175 69.97 30.1818 65.4561 30.0972C60.9214 30.0703 61.4366 26.7794 61.4366 26.7794L63.5365 12.781C64.0362 9.75824 65.4864 9.45499 68.5945 9.43769C73.1325 9.3531 74.0164 10.9957 73.7017 13.3404L73.1832 16.6294L68.7001 16.6212Z" fill="#505050"/>
<path d="M82.5469 29.9106L85.6106 9.43457H90.1925L87.1919 29.9106H82.5469Z" fill="#505050"/>
<path d="M98.9365 29.9106L102 9.43457H106.583L103.582 29.9106H98.9365Z" fill="#505050"/>
<path d="M94.5071 26.3947L97.0436 9.44463L92.4361 9.43457L89.3945 29.9004H96.8922L97.4277 26.3947H94.5071Z" fill="#505050"/>
<path d="M125.744 9.40351C122.636 9.42081 121.186 9.72406 120.686 12.7468L118.586 26.7452C118.586 26.7452 118.071 30.0357 122.605 30.0631C122.78 30.0664 122.94 30.0645 123.103 30.0645L123.1 30.0683H128.386L129.277 23.7921L129.789 20.3758L125.202 20.3844L124.654 23.8887H125.786L125.519 25.6601C125.38 26.4958 125.458 26.7976 123.766 26.6928C123.486 26.6928 123.18 26.5198 123.226 26.1671L125.202 13.1231C125.273 12.7112 125.322 12.6166 125.897 12.6214C126.384 12.6267 126.429 12.8434 126.38 13.137L125.849 16.587L130.333 16.5952L130.852 13.3047C131.166 10.9615 130.282 9.31892 125.744 9.40351Z" fill="#505050"/>
<path d="M65.8078 37.0327C65.2839 36.3733 64.6092 36.0442 63.7779 36.0442C63.5089 36.0442 63.2386 36.097 62.9634 36.2051C62.6877 36.3123 62.4414 36.4699 62.2236 36.6766C62.0043 36.8871 61.826 37.1495 61.6847 37.4633C61.5435 37.7786 61.4722 38.1447 61.4722 38.5604C61.4722 39.1059 61.6202 39.547 61.9175 39.8844C62.2134 40.2198 62.6062 40.5404 63.1012 40.8422C63.4106 41.0406 63.7234 41.2641 64.0429 41.5082C64.3591 41.7523 64.6449 42.0339 64.8965 42.3559C65.1514 42.6818 65.3553 43.046 65.512 43.4545C65.6666 43.863 65.7432 44.333 65.7432 44.865C65.7432 45.6824 65.6141 46.3975 65.3538 47.015C65.0902 47.6335 64.7383 48.1473 64.2945 48.5644C63.8506 48.9796 63.3407 49.2948 62.7628 49.512C62.1864 49.7254 61.571 49.834 60.9232 49.834C60.0914 49.834 59.328 49.6798 58.6311 49.3698C57.9323 49.0627 57.3915 48.6663 57.0127 48.178L58.514 46.3686C58.7945 46.7435 59.1482 47.0453 59.5695 47.2726C59.9931 47.5033 60.4437 47.6181 60.9232 47.6181C61.5999 47.6181 62.1609 47.41 62.6043 46.9929C63.0482 46.5772 63.2694 45.9823 63.2694 45.2076C63.2694 44.6636 63.1248 44.197 62.8357 43.8092C62.5484 43.4223 62.0997 43.0427 61.4943 42.6698C61.183 42.4833 60.8804 42.2714 60.5844 42.0339C60.289 41.7985 60.0288 41.5255 59.8042 41.2184C59.5767 40.908 59.3979 40.5572 59.2634 40.1641C59.1309 39.769 59.0649 39.3063 59.0649 38.7757C59.0649 38.0448 59.1873 37.3768 59.4321 36.7751C59.6784 36.173 60.0134 35.6578 60.437 35.2272C60.8601 34.7966 61.3599 34.4626 61.9382 34.2252C62.518 33.9879 63.1436 33.8691 63.8202 33.8691C64.5802 33.8691 65.2637 33.9965 65.8705 34.2488C66.4758 34.4982 66.9621 34.8476 67.3294 35.2916L65.8078 37.0327Z" fill="#505050"/>
<path d="M75.4057 42.3048C75.4057 43.2356 75.2885 44.1544 75.0572 45.0579C74.8244 45.9618 74.4909 46.7687 74.0523 47.4776C73.6157 48.1879 73.0851 48.7573 72.4576 49.1879C71.8301 49.6171 71.1298 49.8338 70.3543 49.8338C69.268 49.8338 68.4265 49.4541 67.828 48.6929C67.2279 47.935 66.9287 46.9283 66.9287 45.6821C66.9287 44.7345 67.0443 43.8084 67.2791 42.905C67.5099 42.003 67.8482 41.1994 68.294 40.4978C68.7374 39.7943 69.2681 39.2311 69.8888 38.8077C70.5091 38.3852 71.2132 38.1733 72.0021 38.1733C73.0884 38.1733 73.9266 38.5462 74.5184 39.2921C75.1102 40.0384 75.4057 41.0418 75.4057 42.3048ZM73.1444 42.4336C73.1444 41.7588 73.0393 41.2148 72.8282 40.7977C72.6157 40.3825 72.2692 40.1754 71.793 40.1754C71.3814 40.1754 71.0176 40.3584 70.6913 40.7232C70.3664 41.0894 70.096 41.5435 69.8787 42.0895C69.6609 42.634 69.4893 43.2222 69.3702 43.8526C69.2511 44.4851 69.1914 45.0651 69.1914 45.5971C69.1914 46.2415 69.297 46.7687 69.5076 47.1758C69.7187 47.5857 70.0584 47.7909 70.523 47.7909C70.9462 47.7909 71.3188 47.6097 71.645 47.2517C71.968 46.8922 72.2383 46.4482 72.4576 45.9196C72.6754 45.3886 72.8456 44.8104 72.9661 44.1852C73.0851 43.5629 73.1444 42.978 73.1444 42.4336Z" fill="#505050"/>
<path d="M78.4703 49.4654H76.165L78.9565 33.2002H81.24L78.4703 49.4654Z" fill="#505050"/>
<path d="M88.8912 46.76C88.8624 46.9041 88.8334 47.1007 88.7963 47.3496C88.762 47.601 88.7211 47.8619 88.6787 48.1315C88.6363 48.4011 88.5987 48.6587 88.5616 48.9062C88.5293 49.1537 88.5038 49.3435 88.4917 49.4689H86.3123C86.3412 49.2536 86.3736 48.9792 86.4073 48.6399C86.4449 48.3045 86.4906 47.9773 86.5451 47.662H86.5027C86.2237 48.2637 85.8362 48.7774 85.348 49.2012C84.8569 49.6232 84.2771 49.8351 83.6072 49.8351C83.1821 49.8351 82.8183 49.7606 82.5189 49.6112C82.2182 49.4641 81.9801 49.2637 81.8033 49.0162C81.6264 48.7673 81.4938 48.4823 81.4104 48.1651C81.3222 47.8451 81.2812 47.5178 81.2812 47.1906C81.2812 46.9599 81.2948 46.6869 81.3222 46.3717C81.3511 46.0578 81.3951 45.7479 81.4514 45.4461L82.6481 38.561H84.9402L83.7566 45.4254C83.6853 45.7834 83.6481 46.1275 83.6481 46.4582C83.6481 46.8311 83.7228 47.1463 83.8688 47.4039C84.0187 47.662 84.294 47.7922 84.7022 47.7922C84.9692 47.7922 85.2241 47.7158 85.469 47.5668C85.7152 47.414 85.9364 47.2107 86.1321 46.9531C86.3273 46.6956 86.4993 46.3904 86.6367 46.0391C86.7779 45.6883 86.8815 45.3033 86.9533 44.8882L88.0295 38.561H90.3299L88.8912 46.76Z" fill="#505050"/>
<path d="M96.6078 40.4102H94.8106L93.8399 46.0011C93.8111 46.1304 93.7908 46.2726 93.7754 46.4216C93.7619 46.5744 93.7551 46.6979 93.7551 46.7984C93.7551 47.3712 94.0506 47.6576 94.6424 47.6576C94.7547 47.6576 94.8824 47.6456 95.0231 47.6167C95.1644 47.5879 95.2901 47.5523 95.4044 47.5086L95.1287 49.3818C94.9451 49.4664 94.7344 49.5308 94.4945 49.575C94.2549 49.6159 94.0149 49.6395 93.7754 49.6395C93.0154 49.6395 92.4409 49.441 92.0529 49.046C91.6654 48.6509 91.4716 48.1036 91.4716 47.4C91.4716 47.1425 91.5006 46.8507 91.5565 46.5201L92.6125 40.4102H91.1758L91.4938 38.5384H92.9084L93.3961 35.6973H95.6169L95.1287 38.5384H96.9481L96.6078 40.4102Z" fill="#505050"/>
<path d="M98.6585 49.4664H96.377L98.2589 38.5378H100.541L98.6585 49.4664ZM101.217 35.1388C101.217 35.5968 101.076 35.9865 100.794 36.3003C100.514 36.6155 100.162 36.7732 99.7381 36.7732C99.3419 36.7732 99.0393 36.6497 98.8287 36.3969C98.6161 36.146 98.5106 35.8544 98.5106 35.5271C98.5106 35.0965 98.6518 34.7116 98.9342 34.3761C99.2161 34.0388 99.5752 33.8691 100.014 33.8691C100.393 33.8691 100.688 33.9879 100.901 34.2233C101.112 34.4607 101.217 34.7659 101.217 35.1388Z" fill="#505050"/>
<path d="M109.735 42.3048C109.735 43.2356 109.618 44.1544 109.386 45.0579C109.154 45.9618 108.819 46.7687 108.382 47.4776C107.944 48.1879 107.414 48.7573 106.787 49.1879C106.159 49.6171 105.457 49.8338 104.684 49.8338C103.597 49.8338 102.756 49.4541 102.155 48.6929C101.557 47.935 101.258 46.9283 101.258 45.6821C101.258 44.7345 101.373 43.8084 101.608 42.905C101.839 42.003 102.176 41.1994 102.619 40.4978C103.067 39.7943 103.597 39.2311 104.216 38.8077C104.838 38.3852 105.542 38.1733 106.331 38.1733C107.416 38.1733 108.256 38.5462 108.848 39.2921C109.439 40.0384 109.735 41.0418 109.735 42.3048ZM107.474 42.4336C107.474 41.7588 107.368 41.2148 107.155 40.7977C106.945 40.3825 106.598 40.1754 106.118 40.1754C105.711 40.1754 105.343 40.3584 105.02 40.7232C104.696 41.0894 104.425 41.5435 104.206 42.0895C103.987 42.634 103.818 43.2222 103.699 43.8526C103.578 44.4851 103.521 45.0651 103.521 45.5971C103.521 46.2415 103.624 46.7687 103.837 47.1758C104.048 47.5857 104.388 47.7909 104.852 47.7909C105.275 47.7909 105.647 47.6097 105.971 47.2517C106.297 46.8922 106.567 46.4482 106.787 45.9196C107.004 45.3886 107.174 44.8104 107.292 44.1852C107.414 43.5629 107.474 42.978 107.474 42.4336Z" fill="#505050"/>
<path d="M119.501 40.8184C119.501 41.0639 119.48 41.3403 119.438 41.6473C119.397 41.9559 119.349 42.2658 119.292 42.583L118.141 49.4676H115.844L117.029 42.5883C117.056 42.4018 117.081 42.2202 117.102 42.0491C117.122 41.8761 117.134 41.705 117.134 41.5301C117.134 41.1706 117.061 40.864 116.913 40.6045C116.765 40.3469 116.485 40.2162 116.077 40.2162C115.541 40.2162 115.068 40.4892 114.66 41.037C114.25 41.5829 113.97 42.2798 113.815 43.127L112.736 49.4676H110.454L111.869 41.2706C111.884 41.1283 111.912 40.9217 111.955 40.6588C111.996 40.3926 112.04 40.1196 112.081 39.84C112.124 39.5603 112.163 39.3007 112.198 39.0667C112.232 38.8293 112.256 38.6534 112.272 38.5381H114.449C114.42 38.7399 114.386 39.0124 114.342 39.3551C114.301 39.7011 114.259 40.0163 114.217 40.3027H114.259C114.541 39.7011 114.932 39.1955 115.432 38.7856C115.934 38.3771 116.514 38.1733 117.175 38.1733C117.593 38.1733 117.95 38.2478 118.244 38.3987C118.538 38.5496 118.778 38.75 118.967 38.9989C119.156 39.2517 119.292 39.5367 119.375 39.85C119.458 40.1653 119.501 40.4892 119.501 40.8184Z" fill="#505050"/>
<path d="M126.627 40.7333C126.43 40.4911 126.192 40.3027 125.908 40.1739C125.627 40.0451 125.301 39.9807 124.937 39.9807C124.526 39.9807 124.169 40.1129 123.857 40.3772C123.55 40.6434 123.393 41.0197 123.393 41.508C123.393 41.7084 123.422 41.8809 123.478 42.0237C123.534 42.1678 123.616 42.2966 123.72 42.41C123.827 42.5272 123.959 42.632 124.123 42.7339C124.284 42.8339 124.478 42.9425 124.704 43.0559C125.296 43.3865 125.794 43.7782 126.194 44.229C126.597 44.6817 126.795 45.2939 126.795 46.0671C126.795 46.7279 126.683 47.2945 126.459 47.7674C126.233 48.2422 125.937 48.6319 125.571 48.939C125.204 49.249 124.791 49.4729 124.335 49.6171C123.876 49.7612 123.407 49.8324 122.928 49.8324C122.266 49.8324 121.646 49.705 121.067 49.4455C120.489 49.1865 120.039 48.8506 119.714 48.4353L121.11 46.9283C121.321 47.2027 121.581 47.4368 121.892 47.6386C122.203 47.8404 122.582 47.9404 123.035 47.9404C123.458 47.9404 123.822 47.801 124.133 47.5199C124.442 47.2416 124.597 46.8519 124.597 46.3483C124.597 45.9177 124.458 45.5635 124.177 45.2819C123.893 45.0041 123.541 44.7566 123.118 44.5413C122.582 44.2833 122.137 43.9358 121.775 43.4966C121.418 43.0612 121.236 42.4831 121.236 41.7661C121.236 41.1639 121.346 40.6401 121.566 40.1961C121.781 39.7501 122.075 39.3786 122.443 39.0768C122.807 38.7755 123.22 38.5496 123.679 38.4006C124.136 38.2478 124.612 38.1733 125.105 38.1733C125.712 38.1733 126.248 38.2719 126.712 38.4631C127.178 38.6568 127.55 38.899 127.831 39.184L126.627 40.7333Z" fill="#505050"/>
<path d="M73.76 59.7439H71.4439L70.8155 61.0287H69.5703L72.5113 55.2061H73.8694L75.1677 61.0287H74.0287L73.76 59.7439ZM73.5566 58.7679L73.0668 56.426L71.9212 58.7679H73.5566ZM75.8813 61.0287L76.7494 55.2061H77.89L77.0231 61.0287H75.8813ZM79.5847 57.9873L78.4616 57.8938C78.5667 57.5195 78.7716 57.2283 79.0768 57.0182C79.3821 56.808 79.7957 56.7025 80.3205 56.7025C80.8654 56.7025 81.2758 56.8121 81.5488 57.0305C81.823 57.2499 81.9699 57.5171 81.9891 57.8327C81.9969 57.9602 81.9944 58.0956 81.9798 58.2379C81.9657 58.3816 81.9098 58.7584 81.8112 59.3684C81.729 59.8725 81.695 60.2264 81.7073 60.4283C81.7181 60.6085 81.763 60.8078 81.8404 61.0287H80.7243C80.6716 60.8756 80.6345 60.7155 80.6139 60.5517C80.4578 60.7374 80.2736 60.8809 80.0624 60.9827C79.8509 61.0842 79.6339 61.1345 79.4139 61.1345C79.0633 61.1345 78.7666 61.0191 78.5241 60.7886C78.2816 60.5584 78.1495 60.2629 78.1273 59.9009C78.1027 59.4971 78.208 59.1731 78.445 58.9321C78.6814 58.6893 79.121 58.543 79.7637 58.4927C80.3059 58.4467 80.6668 58.3925 80.8463 58.3289C80.8843 58.1687 80.901 58.0416 80.8952 57.9466C80.8876 57.8231 80.8327 57.7216 80.7283 57.639C80.6252 57.5563 80.4763 57.5156 80.2817 57.5156C80.078 57.5156 79.9185 57.5563 79.8056 57.639C79.6919 57.7204 79.6175 57.8367 79.5847 57.9873ZM80.7384 59.0524C80.6701 59.0715 80.5804 59.0892 80.4669 59.1055C79.8975 59.1746 79.5288 59.2762 79.3614 59.4103C79.2425 59.5078 79.1878 59.638 79.1978 59.8007C79.2062 59.9364 79.2606 60.0487 79.3627 60.1422C79.4635 60.2345 79.5928 60.2804 79.7491 60.2804C79.9217 60.2804 80.0823 60.2385 80.2292 60.153C80.3777 60.0691 80.4853 59.9608 80.5519 59.8278C80.6199 59.6951 80.6739 59.4877 80.7152 59.2058L80.7384 59.0524ZM82.6586 61.0287L83.5267 55.2061H84.6672L84.3678 57.1416C84.5689 56.983 84.7589 56.8704 84.9371 56.8028C85.1166 56.7362 85.3142 56.7025 85.5305 56.7025C85.9776 56.7025 86.3457 56.8515 86.6343 57.1511C86.9216 57.4492 87.0827 57.8842 87.1175 58.4563C87.1409 58.8411 87.1 59.2153 86.9957 59.5785C86.8916 59.9404 86.7409 60.2357 86.5428 60.4634C86.3447 60.6899 86.1334 60.8593 85.9063 60.9691C85.6804 61.0789 85.4392 61.1345 85.1837 61.1345C84.5762 61.1345 84.1142 60.8713 83.7981 60.3468L83.6915 61.0287H82.6586ZM84.0872 59.3141C84.1046 59.6001 84.1991 59.8333 84.3718 60.012C84.5442 60.191 84.7401 60.2804 84.9591 60.2804C85.1507 60.2804 85.3299 60.2113 85.4967 60.0718C85.6623 59.9336 85.7941 59.7112 85.8925 59.4063C85.9895 59.1027 86.0291 58.7951 86.0101 58.4847C85.9917 58.1838 85.9 57.9466 85.7329 57.7744C85.5663 57.6022 85.3722 57.5156 85.1507 57.5156C84.8623 57.5156 84.6218 57.6497 84.43 57.9167C84.1669 58.2826 84.0527 58.7491 84.0872 59.3141ZM88.341 56.808H89.484L89.0717 59.3128C89.0205 59.6137 88.998 59.8007 89.0026 59.8753C89.0099 59.9972 89.057 60.1015 89.1439 60.1897C89.2309 60.2777 89.3383 60.3211 89.4661 60.3211C89.5571 60.3211 89.6456 60.3008 89.7328 60.2616C89.8187 60.2222 89.9062 60.1613 89.9949 60.0799C90.0838 59.9987 90.1623 59.9065 90.2308 59.8022C90.2991 59.6976 90.3602 59.5609 90.4148 59.39C90.4522 59.2641 90.4937 59.0743 90.5366 58.8222L90.8691 56.808H92.0108L91.3074 61.0287H90.2417L90.3216 60.4865C89.9183 60.9189 89.4641 61.1345 88.9569 61.1345C88.6376 61.1345 88.3785 61.0342 88.1841 60.8349C87.9885 60.6356 87.8799 60.3672 87.8595 60.0324C87.8505 59.8861 87.8817 59.5961 87.953 59.161L88.341 56.808ZM92.6097 61.2564L93.8287 61.4313C93.8362 61.5532 93.8622 61.6454 93.9056 61.7063C93.9487 61.7686 94.0159 61.8216 94.1069 61.8664C94.1979 61.9096 94.3205 61.9315 94.4727 61.9315C94.7295 61.9315 94.933 61.884 95.0822 61.7877C95.1933 61.7131 95.2811 61.5939 95.3444 61.4286C95.3829 61.3255 95.4275 61.099 95.4771 60.751L95.5056 60.5529C95.1096 60.8809 94.689 61.045 94.2443 61.045C93.83 61.045 93.4808 60.8985 93.1983 60.6072C92.9153 60.3156 92.7562 59.8874 92.7219 59.3249C92.6917 58.829 92.7535 58.3736 92.909 57.9601C93.0645 57.5467 93.2996 57.2338 93.6142 57.0209C93.9272 56.808 94.2554 56.7025 94.5952 56.7025C94.8752 56.7025 95.1366 56.7769 95.3796 56.9259C95.6211 57.0765 95.8146 57.2851 95.9616 57.555L96.0642 56.808H97.1392L96.6802 60.336C96.5922 60.8985 96.5136 61.2999 96.444 61.5409C96.3744 61.7809 96.2895 61.9719 96.1895 62.1144C96.0909 62.2579 95.9608 62.3773 95.801 62.4736C95.641 62.5696 95.4509 62.6387 95.2279 62.6809C95.0046 62.7229 94.7626 62.7445 94.4989 62.7445C93.9021 62.7445 93.4448 62.643 93.128 62.4396C92.8109 62.2348 92.6367 61.896 92.6077 61.423C92.6047 61.373 92.6055 61.3175 92.6097 61.2564ZM93.832 59.2098C93.8516 59.5323 93.9386 59.7778 94.0931 59.9457C94.2476 60.1151 94.4334 60.1993 94.6509 60.1993C94.8545 60.1993 95.0471 60.1234 95.2296 59.9716C95.4119 59.8198 95.5459 59.6056 95.6306 59.3264C95.7153 59.0472 95.7506 58.7775 95.7347 58.5159C95.7163 58.2162 95.6176 57.9737 95.4404 57.7908C95.2622 57.6078 95.0635 57.5156 94.8448 57.5156C94.6396 57.5156 94.4566 57.597 94.2953 57.7581C94.134 57.9209 94.0079 58.1703 93.9169 58.5091C93.8474 58.7692 93.8194 59.0024 93.832 59.2098ZM99.0654 57.9873L97.9422 57.8938C98.0473 57.5195 98.2523 57.2283 98.5575 57.0182C98.8628 56.808 99.2764 56.7025 99.8012 56.7025C100.346 56.7025 100.756 56.8121 101.029 57.0305C101.304 57.2499 101.451 57.5171 101.47 57.8327C101.478 57.9602 101.475 58.0956 101.46 58.2379C101.446 58.3816 101.39 58.7584 101.292 59.3684C101.21 59.8725 101.176 60.2264 101.188 60.4283C101.199 60.6085 101.244 60.8078 101.321 61.0287H100.205C100.152 60.8756 100.115 60.7155 100.095 60.5517C99.9385 60.7374 99.7543 60.8809 99.5431 60.9827C99.3316 61.0842 99.1146 61.1345 98.8945 61.1345C98.5439 61.1345 98.2472 61.0191 98.0048 60.7886C97.7623 60.5584 97.6302 60.2629 97.608 59.9009C97.5833 59.4971 97.6887 59.1731 97.9256 58.9321C98.162 58.6893 98.6016 58.543 99.2444 58.4927C99.7865 58.4467 100.148 58.3925 100.327 58.3289C100.365 58.1687 100.382 58.0416 100.376 57.9466C100.368 57.8231 100.313 57.7216 100.209 57.639C100.106 57.5563 99.9569 57.5156 99.7623 57.5156C99.5587 57.5156 99.3991 57.5563 99.2862 57.639C99.1725 57.7204 99.0981 57.8367 99.0654 57.9873ZM100.219 59.0524C100.151 59.0715 100.061 59.0892 99.9476 59.1055C99.3782 59.1746 99.0094 59.2762 98.8421 59.4103C98.7231 59.5078 98.6684 59.638 98.6785 59.8007C98.6868 59.9364 98.7413 60.0487 98.8434 60.1422C98.9442 60.2345 99.0735 60.2804 99.2298 60.2804C99.4024 60.2804 99.563 60.2385 99.7099 60.153C99.8584 60.0691 99.966 59.9608 100.033 59.8278C100.101 59.6951 100.155 59.4877 100.196 59.2058L100.219 59.0524ZM105.646 61.0287H104.446L105.314 55.2061H107.683C108.106 55.2061 108.442 55.2563 108.693 55.3551C108.945 55.4541 109.149 55.618 109.306 55.8472C109.462 56.0762 109.551 56.3501 109.571 56.6671C109.589 56.9613 109.549 57.2471 109.452 57.5251C109.355 57.8043 109.228 58.0265 109.073 58.1934C108.917 58.36 108.747 58.4859 108.56 58.5726C108.375 58.6581 108.122 58.7232 107.8 58.7692C107.614 58.7951 107.262 58.8087 106.745 58.8087H105.977L105.646 61.0287ZM106.121 57.8327H106.491C107.124 57.8327 107.545 57.7935 107.752 57.7149C107.959 57.6362 108.119 57.5103 108.23 57.3366C108.341 57.1632 108.39 56.9722 108.378 56.7648C108.369 56.6251 108.331 56.5112 108.263 56.4217C108.195 56.3322 108.104 56.2674 107.989 56.2267C107.874 56.186 107.621 56.1656 107.231 56.1656H106.37L106.121 57.8327ZM109.869 61.0287L110.737 55.2061H111.878L111.011 61.0287H109.869ZM113.573 57.9873L112.45 57.8938C112.555 57.5195 112.76 57.2283 113.065 57.0182C113.37 56.808 113.784 56.7025 114.309 56.7025C114.853 56.7025 115.264 56.8121 115.537 57.0305C115.811 57.2499 115.958 57.5171 115.977 57.8327C115.985 57.9602 115.982 58.0956 115.968 58.2379C115.954 58.3816 115.898 58.7584 115.799 59.3684C115.717 59.8725 115.683 60.2264 115.695 60.4283C115.706 60.6085 115.751 60.8078 115.828 61.0287H114.712C114.66 60.8756 114.623 60.7155 114.602 60.5517C114.446 60.7374 114.262 60.8809 114.05 60.9827C113.839 61.0842 113.622 61.1345 113.402 61.1345C113.051 61.1345 112.755 61.0191 112.512 60.7886C112.27 60.5584 112.138 60.2629 112.115 59.9009C112.091 59.4971 112.196 59.1731 112.433 58.9321C112.669 58.6893 113.109 58.543 113.752 58.4927C114.294 58.4467 114.655 58.3925 114.834 58.3289C114.872 58.1687 114.889 58.0416 114.883 57.9466C114.876 57.8231 114.821 57.7216 114.716 57.639C114.613 57.5563 114.464 57.5156 114.27 57.5156C114.066 57.5156 113.906 57.5563 113.794 57.639C113.68 57.7204 113.606 57.8367 113.573 57.9873ZM114.726 59.0524C114.658 59.0715 114.568 59.0892 114.455 59.1055C113.886 59.1746 113.517 59.2762 113.349 59.4103C113.23 59.5078 113.176 59.638 113.186 59.8007C113.194 59.9364 113.249 60.0487 113.351 60.1422C113.451 60.2345 113.581 60.2804 113.737 60.2804C113.91 60.2804 114.07 60.2385 114.217 60.153C114.366 60.0691 114.473 59.9608 114.54 59.8278C114.608 59.6951 114.662 59.4877 114.703 59.2058L114.726 59.0524ZM117.324 56.808H118.415L118.339 57.3625C118.597 57.124 118.842 56.9558 119.072 56.8543C119.302 56.7525 119.548 56.7025 119.811 56.7025C120.16 56.7025 120.442 56.8028 120.657 57.0046C120.87 57.2066 120.987 57.4736 121.007 57.8071C121.015 57.9546 120.983 58.2339 120.912 58.6445L120.545 61.0287H119.403L119.776 58.6377C119.829 58.2801 119.856 58.0672 119.856 57.9968C119.846 57.8463 119.796 57.7297 119.704 57.6445C119.61 57.559 119.487 57.5156 119.332 57.5156C119.162 57.5156 118.978 57.5862 118.78 57.7269C118.582 57.8679 118.432 58.0549 118.328 58.2869C118.249 58.4507 118.171 58.7883 118.09 59.2965L117.837 61.0287H116.696L117.324 56.808ZM121.748 57.6538L121.868 56.808H122.431L122.528 56.1493L123.772 55.3606L123.566 56.808H124.258L124.138 57.6538H123.445L123.181 59.4347C123.133 59.7547 123.11 59.9364 123.112 59.9809C123.118 60.0691 123.149 60.1369 123.208 60.1857C123.267 60.2345 123.367 60.2588 123.513 60.2588C123.563 60.2588 123.688 60.2508 123.888 60.2317L123.76 61.0747C123.566 61.1141 123.366 61.1345 123.16 61.1345C122.759 61.1345 122.462 61.0558 122.269 60.9C122.077 60.7442 121.973 60.5273 121.956 60.2508C121.948 60.1206 121.981 59.8225 122.055 59.3548L122.314 57.6538H121.748Z" fill="#505050"/>
<defs>
<linearGradient id="paint0_linear_506_5367" x1="20.8015" y1="50.6158" x2="63.8403" y2="46.8362" gradientUnits="userSpaceOnUse">
<stop stop-color="#C8C8C9"/>
<stop offset="1" stop-color="#FEFEFE"/>
</linearGradient>
<linearGradient id="paint1_linear_506_5367" x1="17.9965" y1="50.755" x2="19.0937" y2="58.7912" gradientUnits="userSpaceOnUse">
<stop stop-color="#FEFEFE"/>
<stop offset="1" stop-color="#FEFEFE"/>
</linearGradient>
</defs>
</svg>
