<svg width="55" height="58" viewBox="0 0 55 58" fill="none" xmlns="http://www.w3.org/2000/svg">
<path d="M1 8.80752L0.292893 8.10042L0 8.39331V8.80752H1ZM8.51463 1.29289L9.22174 2V2L8.51463 1.29289ZM7.13448 29.5571C6.5822 29.5571 6.13448 30.0048 6.13448 30.5571C6.13448 31.1093 6.5822 31.5571 7.13448 31.5571V30.5571V29.5571ZM37.8069 31.5571C38.3592 31.5571 38.8069 31.1093 38.8069 30.5571C38.8069 30.0048 38.3592 29.5571 37.8069 29.5571V30.5571V31.5571ZM7.13448 35.1339C6.5822 35.1339 6.13448 35.5816 6.13448 36.1339C6.13448 36.6861 6.5822 37.1339 7.13448 37.1339V36.1339V35.1339ZM24.9802 37.1339C25.5325 37.1339 25.9802 36.6861 25.9802 36.1339C25.9802 35.5816 25.5325 35.1339 24.9802 35.1339V36.1339V37.1339ZM7.13448 40.7107C6.5822 40.7107 6.13448 41.1584 6.13448 41.7107C6.13448 42.2629 6.5822 42.7107 7.13448 42.7107V41.7107V40.7107ZM22.7495 42.7107C23.3018 42.7107 23.7495 42.2629 23.7495 41.7107C23.7495 41.1584 23.3018 40.7107 22.7495 40.7107V41.7107V42.7107ZM7.13448 46.2875C6.5822 46.2875 6.13448 46.7352 6.13448 47.2875C6.13448 47.8397 6.5822 48.2875 7.13448 48.2875V47.2875V46.2875ZM24.4226 48.2875C24.9749 48.2875 25.4226 47.8397 25.4226 47.2875C25.4226 46.7352 24.9749 46.2875 24.4226 46.2875V47.2875V48.2875ZM43.4991 54.5373V53.5373H2V54.5373V55.5373H43.4991V54.5373ZM9.22174 1V2H43.4991V1V0H9.22174V1ZM1 53.5373H2V8.80752H1H0V53.5373H1ZM8.51463 1.29289L7.80752 0.585786L0.292893 8.10042L1 8.80752L1.70711 9.51463L9.22174 2L8.51463 1.29289ZM7.13448 30.5571V31.5571H37.8069V30.5571V29.5571H7.13448V30.5571ZM7.13448 36.1339V37.1339H24.9802V36.1339V35.1339H7.13448V36.1339ZM7.13448 41.7107V42.7107H22.7495V41.7107V40.7107H7.13448V41.7107ZM7.13448 47.2875V48.2875H24.4226V47.2875V46.2875H7.13448V47.2875ZM44.4991 2H43.4991V23.3072H44.4991H45.4991V2H44.4991ZM1 8.80752V9.80752H7.80752V8.80752V7.80752H1V8.80752ZM8.80752 7.80752H9.80752V1.55768H8.80752H7.80752V7.80752H8.80752ZM44.4991 53.5373H45.4991V51.1912H44.4991H43.4991V53.5373H44.4991ZM7.80752 8.80752V9.80752C8.91209 9.80752 9.80752 8.91209 9.80752 7.80752H8.80752H7.80752V8.80752ZM9.22174 1V0C8.6913 0 8.1826 0.210714 7.80752 0.585787L8.51463 1.29289L9.22174 2V2V1ZM2 54.5373V53.5373H2H1H0C0 54.6419 0.895433 55.5373 2 55.5373V54.5373ZM43.4991 54.5373V55.5373C44.6036 55.5373 45.4991 54.6419 45.4991 53.5373H44.4991H43.4991V54.5373ZM43.4991 1V2H44.4991H45.4991C45.4991 0.89543 44.6036 0 43.4991 0V1Z" fill="white"/>
<circle cx="22.1919" cy="16.6148" r="7.92288" stroke="white" stroke-width="2"/>
<path d="M18.2881 18.288L20.3397 19.9293C20.7534 20.2602 21.3533 20.2111 21.7077 19.8174L26.0956 14.9419" stroke="white" stroke-width="2" stroke-linecap="round" stroke-linejoin="round"/>
<path d="M36.9814 44.7475C39.5875 46.2036 41.6699 47.9237 42.9399 49.4916C43.5766 50.2777 43.9756 50.9844 44.1577 51.5647C44.3388 52.1424 44.2806 52.502 44.1574 52.7224C44.0342 52.9426 43.7587 53.1801 43.1722 53.3286C42.5826 53.4778 41.7716 53.5084 40.7684 53.3783C38.7674 53.1188 36.211 52.2471 33.6048 50.7911C30.9989 49.3351 28.9171 47.6152 27.6472 46.0474C27.0103 45.2611 26.6105 44.5543 26.4285 43.9739C26.2476 43.3966 26.3062 43.0379 26.4291 42.8175C26.5523 42.5971 26.8272 42.3586 27.414 42.21C28.0037 42.0607 28.8153 42.0306 29.8187 42.1607C31.8195 42.4203 34.3755 43.2916 36.9814 44.7475Z" stroke="white" stroke-width="2"/>
<path d="M26.6533 42.8259L29.6714 37.2927C29.8691 36.9303 30.2661 36.7236 30.6726 36.7958C35.0918 37.5801 43.5785 40.8845 47.5413 47.3287C47.7344 47.6428 47.7216 48.0392 47.5237 48.3502L43.9414 53.9795" stroke="white" stroke-width="2" stroke-linecap="round" stroke-linejoin="round"/>
<path d="M35.0186 37.8069C37.4352 36.3197 42.4915 32.007 43.3838 26.6533C44.4991 19.9611 48.9606 20.5187 50.6336 21.0764C53.422 22.0059 55.6527 26.0956 51.1913 29.9993C46.7298 33.9031 43.3838 38.9222 43.9414 42.2683" stroke="white" stroke-width="2" stroke-linecap="round" stroke-linejoin="round"/>
</svg>
