<svg width="60" height="60" viewBox="0 0 60 60" fill="none" xmlns="http://www.w3.org/2000/svg">
<rect x="19" y="16.3064" width="22.8387" height="29.0484" rx="2" stroke="white" stroke-width="2"/>
<path d="M33.9679 17.0807V13.3145C33.9679 12.2099 33.0724 11.3145 31.9679 11.3145H28.6453M26.8711 17.0807V13.0887C26.8711 12.1089 27.6654 11.3145 28.6453 11.3145M28.6453 11.3145V4C28.6453 2.89543 29.5407 2 30.6453 2H38.4034V6.43549H32.1937V10.871M31.7501 45.9113V50.3468H37.9598V54.7823H30.2017C29.0972 54.7823 28.2017 53.8868 28.2017 52.7823V45.4678" stroke="white" stroke-width="2" stroke-linejoin="round"/>
<path d="M34.8546 50.3469C35.6638 49.2696 36.9519 48.1292 38.403 48.1292C40.8527 48.1292 42.8385 50.115 42.8385 52.5647C42.8385 55.0143 40.8527 57.0002 38.403 57.0002C36.9519 57.0002 35.2206 55.8597 34.4114 54.7824M18.8872 36.5969H41.9517" stroke="white" stroke-width="2"/>
<path d="M28.9746 19.5763C29.3073 19.5958 29.548 19.6778 29.7373 19.8273C29.927 19.9771 30.1646 20.2731 30.3447 20.9034L30.8115 22.5382L32.0137 21.3361C32.2508 21.0989 32.451 20.8521 32.6104 20.5948C32.8126 20.8275 32.9998 21.0734 33.1543 21.3448C33.6014 22.1306 33.8091 23.1456 33.0732 24.6173C32.5926 25.5785 31.6232 26.1007 30.5547 26.1866C29.445 26.2758 28.5091 25.8781 28.1143 25.3517C27.7878 24.9164 27.6092 24.7769 27.4463 24.424C27.3255 24.1623 27.2277 23.768 27.3975 23.089C27.4712 22.7943 27.6037 22.5854 27.7744 22.3468C27.8471 22.2452 27.9805 22.0685 28.0771 21.9005C28.1819 21.7183 28.3145 21.4328 28.3145 21.0724C28.3144 20.513 28.2274 20.038 28.0898 19.6339C28.4139 19.5863 28.7059 19.5605 28.9746 19.5763Z" stroke="white" stroke-width="2"/>
<path d="M30.4193 28.6129V32.6049M25.0967 28.6129V32.6049M35.7418 28.6129V32.6049" stroke="white" stroke-width="2" stroke-linecap="round" stroke-linejoin="round"/>
<circle cx="30.4196" cy="41.0323" r="1.66129" stroke="white" stroke-width="2"/>
</svg>
