<svg width="131" height="14" viewBox="0 0 131 14" fill="none" xmlns="http://www.w3.org/2000/svg">
<g clip-path="url(#clip0_506_5060)">
<path fill-rule="evenodd" clip-rule="evenodd" d="M14.0749 0H14.6829C14.9261 0.0314466 15.1693 0.0628929 15.4125 0.0943394C14.8044 1.06918 14.1661 2.01258 13.558 2.98742C13.9532 2.26415 14.3788 1.54088 14.7741 0.817611C13.8924 0.723273 12.95 0.911949 12.19 1.44654C11.7948 1.72956 11.5212 2.13836 11.2476 2.51572C10.4876 3.6478 9.84916 4.87421 9.11952 6.03773C8.6027 6.85535 8.05552 7.70439 7.38671 8.42768C7.0523 8.77359 6.68748 9.1195 6.23145 9.27672C5.83626 9.40252 5.41065 9.40252 4.98504 9.43394C5.38023 9.37106 5.80584 9.37106 6.17066 9.18237C6.74827 8.86793 7.14351 8.33333 7.5387 7.8302C8.90674 5.91197 9.81875 3.71069 11.0652 1.69811C9.66675 0.691823 7.7819 0.314466 6.07946 0.723273C4.65063 1.03774 3.3738 1.88679 2.46178 3.01887C2.00577 2.95597 1.51936 3.01887 1.09375 3.20755C1.70176 2.32705 2.46178 1.57233 3.3738 1.03774C4.58982 0.314466 6.07946 0 7.47791 0.125786C8.81553 0.251572 10.0924 0.786162 11.126 1.63522C11.734 0.628929 12.9196 0.0943394 14.0749 0Z" fill="#505050"/>
<path fill-rule="evenodd" clip-rule="evenodd" d="M0.516685 4.24531C-0.000126584 5.47172 -0.121729 6.85536 0.121476 8.1447C0.395082 9.46546 1.06389 10.6919 2.00632 11.6353C3.76956 13.4906 6.688 14.1195 9.08967 13.239C10.2449 12.7988 11.3393 12.1069 12.0994 11.1007C10.9137 11.6353 9.57607 11.7925 8.29924 11.5724C5.98882 11.2264 3.79996 9.84278 2.64473 7.76733C2.18872 6.91829 1.82391 5.88051 2.12792 4.90569C2.31032 4.43399 2.52313 3.86795 3.07034 3.71072C2.61433 3.52204 2.09752 3.4277 1.61111 3.4906C1.1551 3.55348 0.699087 3.83651 0.516685 4.24531Z" fill="#505050"/>
<path fill-rule="evenodd" clip-rule="evenodd" d="M13.4372 4.5595C13.0421 4.59095 12.6772 4.68528 12.3428 4.93686C11.826 5.34564 11.37 5.84882 10.9748 6.35195C10.2756 7.20099 9.54596 8.05008 8.84674 8.86766C8.51233 9.24503 8.11714 9.62241 7.60032 9.81109C6.93151 10.0312 6.23229 10.0312 5.56348 9.87397C5.98909 10.157 6.44507 10.44 6.9011 10.6601C7.75232 10.7545 8.60354 10.5029 9.30276 10.0312C10.3972 9.37084 11.1876 8.30165 12.3124 7.67271C12.6772 7.45256 13.0724 7.23246 13.498 7.16958C14.1668 6.35195 14.7749 5.50291 15.4133 4.65384C14.7749 4.5595 14.1061 4.4966 13.4372 4.5595Z" fill="#505050"/>
<path fill-rule="evenodd" clip-rule="evenodd" d="M13.5286 7.20089C14.167 7.10655 14.8358 7.23236 15.4134 7.51534C14.6838 8.49019 13.9542 9.46504 13.103 10.3455C12.4037 11.1002 11.3397 11.3519 10.3365 11.3833C9.18127 11.4147 7.99564 11.1632 6.93164 10.6914C7.78286 10.7858 8.63408 10.5342 9.33326 10.0625C10.4277 9.40216 11.2181 8.33296 12.343 7.70403C12.7077 7.45246 13.103 7.26377 13.5286 7.20089Z" fill="#505050"/>
<path fill-rule="evenodd" clip-rule="evenodd" d="M20.1898 1.59953C23.1279 1.5957 26.0679 1.59761 29.006 1.59761C28.8869 2.51513 28.7679 3.43457 28.6488 4.354C27.654 4.354 26.6571 4.354 25.6623 4.354C25.3132 6.90204 24.9642 9.45007 24.6151 11.9981C23.4064 11.9981 22.1956 11.9981 20.9849 11.9981C21.334 9.45007 21.6831 6.90204 22.0322 4.354C20.8053 4.35209 19.5784 4.35591 18.3516 4.35209C18.9569 3.43265 19.5804 2.52087 20.1898 1.59953ZM30.1057 1.60717C29.795 4.30621 29.4862 7.00714 29.1775 9.70618C29.0967 10.4727 28.9636 11.2354 28.8566 11.9981C30.0815 11.9981 31.3043 11.9981 32.5292 11.9981C32.622 11.3463 32.7108 10.6925 32.8036 10.0407C33.9821 10.0388 35.1605 10.0446 36.3389 10.0369C37.4064 10.0216 38.4718 9.26083 38.609 8.2286C38.8209 6.60194 39.0348 4.97524 39.2427 3.34664C39.3375 2.71393 38.946 2.06211 38.3306 1.80406C37.9916 1.64349 37.6062 1.60526 37.2288 1.61291C34.8558 1.61099 32.4807 1.60908 30.1057 1.60717ZM33.5785 4.35591C34.2161 4.35591 34.8538 4.35591 35.4914 4.35591C35.3623 5.22375 35.2372 6.09153 35.108 6.95744C35.1 7.12759 34.9567 7.28815 34.769 7.28052C34.2322 7.29199 33.6975 7.28052 33.1608 7.28244C33.302 6.30754 33.4332 5.33077 33.5785 4.35591ZM41.9729 2.16533C42.096 1.79832 42.5035 1.58423 42.899 1.59761C44.6425 1.59953 46.3879 1.5957 48.1314 1.59953C48.4664 1.58041 48.8274 1.79259 48.8338 2.13666C49.2209 5.42446 49.6047 8.71224 49.9899 11.9981C48.7489 11.9981 47.5079 11.9981 46.2669 11.9981C46.2003 11.396 46.1357 10.7939 46.0692 10.1898C44.8907 10.1994 43.7103 10.2166 42.5298 10.228C42.3159 10.811 42.1222 11.4036 41.8982 11.9847C41.4886 11.9446 41.0749 11.9771 40.6653 11.9675C39.842 11.9752 39.0207 11.9522 38.1994 11.979C39.4424 8.70264 40.7177 5.43593 41.9729 2.16533ZM44.7051 4.72674C44.3277 5.68057 43.9504 6.63633 43.5751 7.59017C44.3055 7.59017 45.036 7.59017 45.7665 7.59017C45.6575 6.63633 45.5425 5.68249 45.4315 4.72674C45.1893 4.72674 44.9472 4.72674 44.7051 4.72674ZM52.3448 1.59761C53.5674 1.59761 54.7885 1.59761 56.0111 1.59761C55.8294 2.90126 55.6522 4.20681 55.4725 5.51047C56.1624 5.51239 56.8528 5.51047 57.5427 5.51239C57.7263 4.20681 57.9021 2.90126 58.0837 1.5957C59.3732 1.59761 60.6646 1.59379 61.9541 1.59761C61.4839 5.06315 61.0196 8.53062 60.5494 11.9962C59.2599 11.9962 57.9724 11.9962 56.6834 11.9962C56.8509 10.7632 57.0223 9.53032 57.1897 8.29744C56.4993 8.29744 55.8075 8.29744 55.1171 8.29744C54.9477 9.53032 54.7782 10.7632 54.6108 11.9962C53.3901 11.9962 52.1671 11.9962 50.9445 11.9962C51.4103 8.53254 51.8785 5.06507 52.3448 1.59761ZM73.5789 1.59761C74.7996 1.59953 76.0207 1.59761 77.2413 1.59761C77.0636 2.90317 76.882 4.20681 76.7047 5.51239C77.3946 5.51239 78.087 5.51239 78.7769 5.51239C78.9585 4.20681 79.1343 2.90126 79.3179 1.5957C80.6073 1.59761 81.8968 1.5957 83.1858 1.59761C82.718 5.06507 82.2518 8.53062 81.7835 11.9981C80.4941 11.9981 79.2046 11.9981 77.9151 11.9981C78.087 10.7652 78.2544 9.53224 78.4239 8.30123C77.7315 8.30123 77.0416 8.30123 76.3493 8.30123C76.1798 9.53416 76.0104 10.7671 75.841 12C74.6199 12 73.3973 12 72.1742 12C72.6444 8.53254 73.1107 5.06315 73.5789 1.59761ZM110.147 1.59761C113.771 1.59761 117.393 1.5957 121.017 1.59761C120.428 2.51705 119.839 3.43648 119.252 4.354C118.378 4.354 117.504 4.354 116.632 4.354C116.279 6.90204 115.932 9.45007 115.583 11.9981C114.372 12 113.162 11.9981 111.953 11.9981C112.3 9.45007 112.651 6.90204 112.998 4.354C111.927 4.354 110.859 4.354 109.788 4.354C109.907 3.43648 110.026 2.51705 110.147 1.59761ZM121.598 1.59761C121.128 5.05744 120.656 8.51532 120.204 11.9771C120.755 11.9522 121.308 11.9752 121.861 11.9675C123.749 11.979 125.64 11.9465 127.531 11.9847C128.302 11.9274 129.052 11.5145 129.43 10.8665C129.668 10.4765 129.676 10.014 129.743 9.57815C129.93 8.2286 130.098 6.87527 130.297 5.52764V5.20653C130.243 4.66749 129.874 4.17814 129.357 3.95067C128.863 3.70982 128.292 3.75761 127.757 3.7557C126.824 3.7557 125.894 3.7557 124.962 3.7557C125.065 3.03698 125.17 2.31825 125.273 1.59953C124.048 1.59761 122.823 1.59761 121.598 1.59761ZM124.218 9.25128C124.347 8.33946 124.476 7.42769 124.605 6.51593C125.239 6.51593 125.872 6.51593 126.506 6.51593C126.381 7.31875 126.292 8.12729 126.129 8.92249C126.09 9.04481 126.066 9.26274 125.885 9.24552C125.329 9.25891 124.775 9.24744 124.218 9.25128ZM62.7895 3.90289C62.5249 5.7685 62.2807 7.63603 62.0205 9.5036C61.938 9.97956 61.9741 10.4861 62.2285 10.9123C62.6098 11.5928 63.4086 11.9866 64.204 12.0402H68.6534C69.876 11.8987 71.0503 11.0787 71.3369 9.91072C71.4579 9.2933 71.5004 8.66633 71.5912 8.04512C70.3726 8.04512 69.1558 8.04512 67.9391 8.04512C67.8844 8.38345 67.8297 8.72178 67.7794 9.06012C67.0852 9.06396 66.3933 9.0582 65.701 9.06396C65.9168 7.50032 66.1653 5.94052 66.3791 4.37694C67.0832 4.38458 67.7878 4.3865 68.4918 4.39223C68.4396 4.73056 68.3888 5.07082 68.3365 5.41108C69.5513 5.41108 70.7641 5.41108 71.9809 5.41108C72.0556 4.7707 72.1562 4.13035 72.223 3.48809C72.2694 3.02168 72.0937 2.52852 71.7143 2.22076C71.1635 1.76965 70.4048 1.63967 69.6963 1.64158C68.3546 1.64731 67.0105 1.63393 65.6687 1.64731C64.3309 1.68746 63.0034 2.61645 62.7895 3.90289ZM84.4128 1.64158C83.947 5.10714 83.4788 8.57269 83.0125 12.0382H91.9758C92.095 11.1303 92.2141 10.2204 92.3313 9.31244C90.5633 9.31052 88.7958 9.31244 87.0279 9.31244C87.0908 8.88042 87.1553 8.45037 87.2197 8.01835C88.9833 8.01451 90.7449 8.00113 92.5065 8.00113C92.6135 7.21552 92.7204 6.43178 92.8273 5.64618C91.0638 5.6481 89.2982 5.6634 87.5347 5.6634C87.5972 5.23138 87.6616 4.80129 87.7261 4.36929C89.4921 4.36929 91.2556 4.36929 93.0212 4.36929C93.1403 3.45942 93.2594 2.55145 93.3761 1.64158C90.39 1.64158 87.4014 1.64158 84.4128 1.64158ZM94.4254 2.80568C94.8292 2.07549 95.7007 1.63202 96.5625 1.64731C99.8474 1.64922 103.131 1.6454 106.414 1.64922C107.005 1.65687 107.645 1.5957 108.178 1.89199C108.751 2.17488 109.081 2.80759 108.989 3.40972C108.783 5.01729 108.573 6.62295 108.365 8.2286C108.248 9.26845 107.187 10.0503 106.115 10.0732C104.927 10.0809 103.738 10.0732 102.551 10.0751C102.461 10.7289 102.366 11.3826 102.277 12.0363H98.5985C98.7074 11.3826 98.7943 10.725 98.8934 10.0694C97.7694 10.0694 96.6455 10.0694 95.5215 10.0694C95.1744 10.0694 94.8209 10.0273 94.5084 9.87825C94.0021 9.65269 93.6163 9.17673 93.568 8.6434C93.5377 8.27638 93.6266 7.9132 93.6691 7.5481C93.8322 6.32284 93.9977 5.09759 94.1612 3.8723C94.2057 3.51294 94.2359 3.13255 94.4254 2.80568ZM97.3476 7.31492C97.9789 7.31492 98.6107 7.31492 99.2425 7.31492C99.4056 6.34194 99.5428 5.36517 99.6497 4.3865C99.012 4.3865 98.3744 4.3865 97.7392 4.3865C97.6078 5.36325 97.4765 6.33815 97.3476 7.31492ZM102.909 7.32067C103.458 7.31683 104.006 7.3283 104.555 7.31683C104.731 7.3283 104.85 7.17345 104.852 7.01865C104.981 6.14315 105.108 5.26961 105.237 4.39605C104.598 4.39605 103.96 4.39605 103.322 4.39605C103.183 5.36901 103.046 6.34577 102.909 7.32067Z" fill="#505050"/>
</g>
<defs>
<clipPath id="clip0_506_5060">
<rect width="130.364" height="13.6364" fill="white"/>
</clipPath>
</defs>
</svg>
