<svg width="60" height="60" viewBox="0 0 60 60" fill="none" xmlns="http://www.w3.org/2000/svg">
<path d="M7.04412 34.5926V37.2593C7.04412 37.8115 7.49183 38.2593 8.04412 38.2593H11.2552C11.6463 38.2593 12.0015 38.4872 12.1644 38.8427L14.0351 42.926C14.2086 43.3047 14.1292 43.7514 13.8357 44.047L11.3831 46.5177C10.9961 46.9076 10.9961 47.5368 11.3831 47.9267L16.0808 52.6592C16.4558 53.037 17.0611 53.0548 17.4576 52.6997L19.9453 50.472C20.2191 50.2269 20.6052 50.1516 20.951 50.276L25.39 51.8731C25.7869 52.0159 26.0515 52.3923 26.0515 52.8141V56C26.0515 56.5523 26.4992 57 27.0515 57H33.5441C34.0964 57 34.5441 56.5523 34.5441 56V52.8141C34.5441 52.3923 34.8087 52.0159 35.2056 51.8731L39.6773 50.2643C40.0055 50.1462 40.3717 50.2077 40.6433 50.4266L43.5233 52.7476C43.9325 53.0774 44.5272 53.0342 44.8843 52.6487L49.2973 47.8855C49.6462 47.5089 49.6532 46.9292 49.3135 46.5442L47.0765 44.009C46.8306 43.7302 46.7595 43.338 46.8921 42.9907L48.4529 38.9026C48.6008 38.5152 48.9725 38.2593 49.3871 38.2593H52.9559C53.5082 38.2593 53.9559 37.8115 53.9559 37.2593V34.5926M53.9559 28.0741V3C53.9559 2.44771 53.5082 2 52.9559 2H43.2279C42.6757 2 42.2279 2.44772 42.2279 3V15.037M42.2279 28.0741V15.037M30.5 28.0741V15.037M18.3676 28.0741V19.3148M18.3676 19.3148V10.9316C18.3676 10.6892 18.4557 10.455 18.6154 10.2727L23.6816 4.4885C24.0799 4.03366 24.7877 4.03366 25.1861 4.4885L30.2523 10.2727C30.412 10.455 30.5 10.6892 30.5 10.9316V15.037M18.3676 19.3148H8.04412C7.49183 19.3148 7.04412 19.7625 7.04412 20.3148V28.0741M30.5 15.037H42.2279M22.0074 12.5926H27.2647M22.0074 20.7407H27.2647M22.0074 24.8148H27.2647M22.0074 16.6667H27.2647M44.25 34.5926C44.25 42.2428 38.0939 48.4444 30.5 48.4444C22.9061 48.4444 16.75 42.2428 16.75 34.5926M6.23529 34.5926H54.7647C56.5515 34.5926 58 33.1334 58 31.3333C58 29.5333 56.5515 28.0741 54.7647 28.0741H6.23529C4.44849 28.0741 3 29.5333 3 31.3333C3 33.1334 4.44849 34.5926 6.23529 34.5926ZM46 8.5H50C50.5523 8.5 51 8.05228 51 7.5V6C51 5.44772 50.5523 5 50 5H46C45.4477 5 45 5.44772 45 6V7.5C45 8.05228 45.4477 8.5 46 8.5ZM46 20.7407H50C50.5523 20.7407 51 20.293 51 19.7407V18.4815C51 17.9292 50.5523 17.4815 50 17.4815H46C45.4477 17.4815 45 17.9292 45 18.4815V19.7407C45 20.293 45.4477 20.7407 46 20.7407ZM46 14.6296H50C50.5523 14.6296 51 14.1819 51 13.6296V12.3704C51 11.8181 50.5523 11.3704 50 11.3704H46C45.4477 11.3704 45 11.8181 45 12.3704V13.6296C45 14.1819 45.4477 14.6296 46 14.6296Z" stroke="white" stroke-width="2" stroke-linecap="round"/>
</svg>
