<svg width="59" height="53" viewBox="0 0 59 53" fill="none" xmlns="http://www.w3.org/2000/svg">
<path d="M11.5229 20.7959C12.4961 14.8025 16.959 13 19.3976 13C21.8173 13 25.4974 14.8569 26.806 19.5M11.5229 20.7959C11.4487 21.2533 11.3947 21.7352 11.3636 22.2425C11.344 22.5612 11.1755 22.8487 10.96 23.0842C9.65171 24.5145 9.41169 28.0103 12.1485 28.8234C12.5246 28.9351 12.8484 29.1968 12.9963 29.5602C13.7791 31.4826 15.7731 34.2727 19.3976 34.2727C22.8507 34.2727 25.04 31.1583 25.7217 29.3121C25.8014 29.0961 25.9878 28.9399 26.2078 28.8917C29.3309 28.2079 28.9923 24.2964 27.5151 22.9365C27.3766 22.809 27.2789 22.6329 27.2696 22.4421C27.2164 21.3574 27.0537 20.3788 26.806 19.5M11.5229 20.7959C12.9009 20.3639 15.5992 18.85 15.369 16.25C16.3752 17.8258 20.0713 20.6818 26.806 19.5M19.3976 52H1.98096C1.42867 52 0.978659 51.5504 1.00073 50.9985C1.4139 40.6683 8.20547 36.9072 12.2796 36.1574C12.7377 36.0731 13.1719 36.3583 13.3202 36.7998L15.4352 43.0971C15.6117 43.6226 16.3454 43.6482 16.5581 43.1362L17.4844 40.9055C17.6022 40.6218 17.5831 40.2996 17.4325 40.0319L17.3579 39.8992C16.9831 39.2326 17.4648 38.4091 18.2296 38.4091H19.3976H21.2852C21.7282 38.4091 22.0051 38.9015 21.7836 39.2955L21.2747 40.2004C21.1842 40.3614 21.1727 40.5567 21.2437 40.7276L22.2713 43.202C22.4779 43.6995 23.173 43.6742 23.3448 43.1628L25.5875 36.4852C25.6741 36.2272 25.9204 36.0618 26.1834 36.101C30.2579 36.7072 37.5576 40.4693 37.8141 51.4034C37.8218 51.7297 37.5634 52 37.2455 52H19.3976ZM25.8651 49.2917H30.4836C31.0358 49.2917 31.4836 48.844 31.4836 48.2917V46.5C31.4836 45.9477 31.0358 45.5 30.4836 45.5H25.8651C25.3128 45.5 24.8651 45.9477 24.8651 46.5V48.2917C24.8651 48.844 25.3128 49.2917 25.8651 49.2917Z" stroke="white" stroke-width="2" stroke-linecap="round" stroke-linejoin="round"/>
<path d="M35.3145 1H54.3975C56.0543 1 57.3975 2.34315 57.3975 4V16.3027C57.3973 17.9595 56.0542 19.3027 54.3975 19.3027H47.3076C46.1993 19.3027 45.1223 19.671 44.2461 20.3496L40.9814 22.8779V19.3027H35.3145C33.6577 19.3027 32.3146 17.9595 32.3145 16.3027V4L32.3184 3.8457C32.3987 2.26055 33.7093 1 35.3145 1Z" stroke="white" stroke-width="2" stroke-linecap="round" stroke-linejoin="round"/>
</svg>
