<svg width="58" height="54" viewBox="0 0 58 54" fill="none" xmlns="http://www.w3.org/2000/svg">
<path d="M25.5 39.7921V38.4194V36.6939C25.5 36.3365 25.7959 36.0468 26.1608 36.0468H28.2828C28.5412 36.0468 28.7759 35.8992 28.8835 35.6692L30.1197 33.0269C30.2344 32.7818 30.1819 32.4928 29.988 32.3014L28.3673 30.7026C28.1115 30.4503 28.1115 30.0432 28.3673 29.7908L31.4716 26.7284C31.7194 26.4839 32.1194 26.4724 32.3814 26.7022L34.0253 28.1438C34.2062 28.3024 34.4614 28.3511 34.6899 28.2706L37.6232 27.2371C37.8855 27.1447 38.0603 26.9011 38.0603 26.6282V24.5665C38.0603 24.2092 38.3562 23.9194 38.7212 23.9194H43.0116C43.3766 23.9194 43.6724 24.2092 43.6724 24.5665V26.6282C43.6724 26.9011 43.8473 27.1447 44.1095 27.2371L47.0645 28.2782C47.2814 28.3546 47.5233 28.3148 47.7029 28.1731L49.606 26.6712C49.8764 26.4578 50.2694 26.4858 50.5054 26.7352L53.4215 29.8175C53.6521 30.0612 53.6567 30.4363 53.4323 30.6855L51.954 32.3261C51.7915 32.5065 51.7446 32.7603 51.8322 32.985L52.8636 35.6305C52.9613 35.8811 53.2069 36.0468 53.4809 36.0468H55.8392C56.2041 36.0468 56.5 36.3365 56.5 36.6939V38.4194V39.7921C56.5 40.3444 56.0523 40.7921 55.5 40.7921H53.7093C53.2972 40.7921 52.9273 41.0449 52.7776 41.4289L51.9136 43.6449C51.7763 43.9971 51.8494 44.3967 52.1024 44.6775L53.2095 45.9062C53.5586 46.2936 53.5514 46.8841 53.193 47.2628L50.7145 49.8826C50.3588 50.2586 49.7749 50.301 49.3686 49.9803L47.8461 48.7788C47.577 48.5664 47.2177 48.5067 46.8943 48.6206L44.3401 49.5205C43.94 49.6615 43.6724 50.0395 43.6724 50.4637V51.9194C43.6724 52.4717 43.2247 52.9194 42.6724 52.9194H39.0603C38.5081 52.9194 38.0603 52.4717 38.0603 51.9194V50.4637C38.0603 50.0395 37.7927 49.6615 37.3926 49.5205L34.8707 48.632C34.5299 48.5119 34.1508 48.5851 33.8791 48.8233L32.6132 49.9334C32.219 50.279 31.6248 50.2616 31.2516 49.8934L28.6268 47.304C28.2298 46.9124 28.2298 46.2718 28.6268 45.8802L29.8076 44.7154C30.109 44.4181 30.1905 43.9632 30.0111 43.5797L28.9765 41.3683C28.812 41.0168 28.4589 40.7921 28.0707 40.7921H26.5C25.9477 40.7921 25.5 40.3444 25.5 39.7921Z" stroke="white" stroke-width="2" stroke-linecap="round"/>
<path d="M45 26.9194V10.5849C45 10.1818 44.758 9.81812 44.3861 9.66247L23.8775 1.07747C23.6356 0.976189 23.3635 0.974022 23.12 1.07143L1.62861 9.66799C1.24895 9.81985 1 10.1876 1 10.5965V29.9194C1 42.622 11.2975 52.9194 24 52.9194C27.5 52.9194 31.8762 52.5169 36 49.5489" stroke="white" stroke-width="2" stroke-linecap="round" stroke-linejoin="round"/>
<path d="M41 31.9194C44.8419 31.9194 47.5 34.8051 47.5 38.4194C47.5 42.0337 44.8419 44.9194 41 44.9194C37.1581 44.9194 34.5 42.0337 34.5 38.4194C34.5 34.8051 37.1581 31.9194 41 31.9194Z" stroke="white" stroke-width="2"/>
<path d="M15 25.9194L20.2604 32.0566C20.6527 32.5142 21.3577 32.5234 21.7618 32.0761L35 17.4194" stroke="white" stroke-width="2" stroke-linecap="round" stroke-linejoin="round"/>
</svg>
