<svg width="60" height="60" viewBox="0 0 60 60" fill="none" xmlns="http://www.w3.org/2000/svg">
<path d="M30.1834 1.95473C31.7817 2.01147 33.1719 2.71135 34.2117 3.98207C35.0858 5.05034 35.5201 5.37745 36.4109 5.64027C37.1465 5.85718 37.7351 5.84245 38.7254 5.55043L39.1756 5.40883C40.5596 4.94744 41.3915 4.86323 42.3845 5.08559C44.6967 5.60371 46.2637 7.33319 46.6287 9.77211C46.9183 11.7082 48.0741 12.9529 49.8582 13.2477C51.9532 13.5941 53.0399 14.2335 54.0125 15.694C54.6606 16.6674 54.8887 17.4494 54.8836 18.6754C54.8797 19.5628 54.8477 19.7363 54.4939 20.7838L54.3445 21.2536C54.0388 22.2892 54.0308 22.9293 54.283 23.6657C54.5868 24.5528 54.9296 24.982 56.1004 25.9391C56.7243 26.4493 57.4085 27.4863 57.6892 28.3473C58.006 29.319 58.006 30.6803 57.6892 31.652C57.4085 32.513 56.7242 33.55 56.1004 34.0602C54.9297 35.0172 54.5868 35.4466 54.283 36.3336L54.1902 36.6471C54.0122 37.3721 54.1017 38.0727 54.489 39.1793C54.8409 40.1844 54.8686 40.339 54.8777 41.277C54.8901 42.552 54.6732 43.3129 54.0125 44.3053L53.7918 44.6168C53.2697 45.3136 52.6806 45.8029 51.9431 46.1569C51.272 46.479 50.947 46.5716 49.8582 46.7516L49.5506 46.8151C48.0389 47.1846 46.938 48.3718 46.6804 49.943C46.3356 52.0472 45.6987 53.1381 44.2449 54.1149L43.8885 54.3395C43.0734 54.8195 42.3434 54.9954 41.2752 54.9909L40.7215 54.9782C40.2515 54.9509 39.9587 54.8657 39.1765 54.5993C37.9 54.1644 37.2593 54.1089 36.4109 54.359C35.5187 54.6223 35.0866 54.9488 34.2068 56.0241L33.9451 56.32C33.3068 56.9925 32.4723 57.5364 31.6463 57.8082L31.4597 57.8639C30.5734 58.1075 29.4271 58.1075 28.5408 57.8639L28.3553 57.8082C27.529 57.5365 26.6939 56.9927 26.0554 56.32L25.7947 56.0241C24.9147 54.9485 24.4817 54.6223 23.5896 54.359C22.7413 54.1089 22.1004 54.1645 20.824 54.5993C19.7811 54.9545 19.6085 54.987 18.7254 54.9909L18.2869 54.9811C17.4467 54.9388 16.8108 54.751 16.1121 54.3395L15.7566 54.1149C14.8944 53.5356 14.3157 52.8842 13.9129 52.0377C13.592 51.3636 13.4994 51.0371 13.3201 49.943C13.0626 48.372 11.9622 47.1849 10.4509 46.8151L10.1433 46.7516C8.17899 46.4269 7.10104 45.8448 6.17263 44.57L5.98904 44.3053C5.42157 43.4532 5.1758 42.7481 5.12673 41.7633L5.11697 41.3239C5.12082 40.4365 5.15281 40.2632 5.50662 39.2155C5.88545 38.0937 5.9753 37.461 5.82498 36.7496L5.74588 36.4381C5.48373 35.5419 5.15881 35.1072 4.08767 34.2233C3.28357 33.5596 2.62047 32.6003 2.3113 31.652C2.01431 30.741 1.99579 29.4876 2.25564 28.5338L2.3113 28.3473C2.62053 27.399 3.28356 26.4387 4.08767 25.775C5.15853 24.8913 5.48375 24.4573 5.74588 23.5612C5.96386 22.8155 5.94854 22.2299 5.65115 21.236L5.50662 20.7838C5.15278 19.7361 5.12082 19.5629 5.11697 18.6754C5.11245 17.6025 5.28741 16.87 5.76541 16.0514L5.98904 15.694C6.49376 14.9363 7.05392 14.3966 7.75076 14.0026L8.0574 13.8424C8.56059 13.6009 8.86979 13.4878 9.45193 13.3707L10.1433 13.2477C11.7075 12.9889 12.8897 11.8829 13.2576 10.3649L13.3201 10.0563C13.6434 8.08359 14.2236 7.00137 15.4929 6.06898L15.7566 5.88441C16.726 5.23339 17.5044 5.00321 18.7254 5.00844C19.6086 5.01231 19.7811 5.0448 20.824 5.40004C21.9411 5.78057 22.5716 5.8705 23.2801 5.71937L23.5896 5.64027C24.3626 5.41219 24.8503 5.088 25.5076 4.32289L25.8015 3.96645C26.4944 3.09642 27.4722 2.44792 28.5847 2.11586L28.8084 2.05336C29.1245 1.97245 29.6377 1.93544 30.1834 1.95473ZM30.741 3.67055C30.1763 3.56298 29.7534 3.56465 29.1873 3.67641C28.298 3.85196 27.8891 4.16187 26.2937 5.86684L26.1121 6.05043C25.1842 6.94054 23.9488 7.39922 22.4842 7.39516L21.9265 7.38344C21.614 7.3658 21.3833 7.3222 21.0281 7.21254L20.3758 6.99281C19.3031 6.61903 19.182 6.59671 18.4959 6.6393C17.5896 6.69572 16.7564 7.06186 16.1375 7.67445L15.9158 7.9059C15.439 8.43912 15.2241 8.94662 15.0095 9.95766C14.6349 11.7239 14.2853 12.4642 13.4129 13.3405C12.5384 14.2185 11.8042 14.5677 10.032 14.9469L9.62771 15.0397C8.75214 15.2585 8.33563 15.5022 7.78298 16.0651L7.56423 16.3092C7.08209 16.8984 6.80286 17.6216 6.74685 18.4342L6.7322 18.6745C6.70802 19.1835 6.76332 19.3774 7.09353 20.3327C7.46329 21.4024 7.49135 21.5523 7.49392 22.4508C7.49831 24.0216 6.9842 25.3122 5.97244 26.2711L5.37771 26.8405C4.14491 28.0415 3.93515 28.4195 3.76345 29.3463C3.68758 29.756 3.68641 30.0815 3.75857 30.5504C3.93301 31.6822 4.15889 32.0086 5.92263 33.6735C6.97814 34.6699 7.4992 35.9558 7.49197 37.5485L7.47927 38.1071C7.45156 38.5815 7.36463 38.8808 7.08963 39.6989L6.8699 40.3717C6.70851 40.905 6.70781 41.094 6.74685 41.6022C6.81583 42.5007 7.18008 43.3199 7.78298 43.9342C8.4145 44.5774 8.86804 44.8033 10.032 45.0524C11.8043 45.4316 12.5384 45.7807 13.4129 46.6588C14.2853 47.5351 14.6349 48.2747 15.0095 50.0407C15.2548 51.1965 15.5009 51.6945 16.1375 52.3248C16.7565 52.9375 17.5896 53.3036 18.4959 53.36C19.0089 53.3918 19.2087 53.3863 19.7273 53.2262L20.3758 53.0104C22.2086 52.3792 23.4489 52.4121 24.9588 53.1334C25.4388 53.3628 25.7857 53.6535 26.7459 54.6276C27.5264 55.4195 28.0861 55.9074 28.3679 56.0426C28.9304 56.3121 29.664 56.4373 30.324 56.3834L30.6013 56.3493C31.5531 56.1908 31.9329 55.9848 33.1365 54.735L33.7078 54.1325C34.6536 53.122 35.955 52.5996 37.5174 52.6041L38.074 52.6159C38.543 52.6423 38.8272 52.7273 39.6258 53.0055C40.5644 53.3326 40.7735 53.3909 41.2713 53.3717L41.5047 53.36C42.3543 53.3071 43.14 52.9823 43.7449 52.4371L43.864 52.3248C44.5004 51.6947 44.7458 51.1963 44.991 50.0407C45.3188 48.4954 45.6275 47.7358 46.284 46.983L46.5877 46.6588C47.4621 45.7808 48.1961 45.4316 49.9685 45.0524C50.9871 44.8344 51.4622 44.6345 51.9881 44.1569L52.2185 43.9342C52.8392 43.3015 53.2032 42.4687 53.2595 41.5534C53.2914 41.0365 53.287 40.8394 53.1258 40.319L52.908 39.6666C52.6309 38.8644 52.5456 38.5793 52.5193 38.108L52.5076 37.5485C52.5035 36.0755 52.955 34.8495 53.8455 33.9118L54.0291 33.7282C55.8173 32.0337 56.0559 31.6954 56.2361 30.6032C56.2898 30.2773 56.304 30.0054 56.2771 29.7067L56.2361 29.3961C56.0784 28.4404 55.8758 28.0621 54.6297 26.8473L54.0291 26.2711C53.0802 25.372 52.569 24.1817 52.5125 22.7418L52.5076 22.4508C52.5095 21.7773 52.5254 21.524 52.6892 20.9889L52.908 20.3327C53.2336 19.3902 53.2913 19.18 53.2722 18.6803L53.2595 18.4459C53.2067 17.5876 52.8837 16.8014 52.3318 16.1852L52.2185 16.0651C51.6659 15.5022 51.2489 15.2585 50.3738 15.0397L49.9685 14.9469C48.196 14.5676 47.4622 14.2186 46.5877 13.3405C45.7151 12.4641 45.3657 11.724 44.991 9.95766C44.7765 8.94651 44.5616 8.43916 44.0847 7.9059L43.864 7.67445C43.245 7.0616 42.4112 6.69574 41.5047 6.6393C40.8183 6.59668 40.6978 6.61923 39.6258 6.99281L38.9724 7.21254C38.4397 7.37703 38.1876 7.39321 37.5174 7.39516L37.2273 7.39027C35.8891 7.33678 34.7556 6.8811 33.8894 6.05043L33.7078 5.86684C32.0746 4.12141 31.716 3.85633 30.741 3.67055ZM29.9998 8.99965C41.5977 8.99965 50.9997 18.4017 50.9998 29.9996C50.9998 41.5976 41.5978 50.9996 29.9998 50.9996C18.4019 50.9995 8.99978 41.5975 8.99978 29.9996C8.99986 18.4018 18.402 8.99978 29.9998 8.99965ZM29.9998 10.9997C19.5065 10.9998 10.9999 19.5064 10.9998 29.9996C10.9998 40.493 19.5065 48.9995 29.9998 48.9996C40.4932 48.9996 48.9998 40.4931 48.9998 29.9996C48.9997 19.5063 40.4931 10.9997 29.9998 10.9997ZM28.8543 14.3307C30.1013 13.8006 31.6024 14.512 32.2908 15.9596C32.6829 16.7843 32.7817 17.2919 32.7263 18.1989L32.7078 18.4518C32.6564 19.004 32.5353 19.3527 31.9812 20.7301L31.4881 21.9791C31.3623 22.3073 31.2845 22.5235 31.284 22.5485C31.284 22.6007 33.4504 22.6352 36.8064 22.6364C41.9517 22.6382 42.3544 22.65 42.6961 22.8063C43.2126 23.0429 43.6019 23.3961 43.9021 23.902C44.1424 24.3068 44.1624 24.4197 44.1931 25.5006C44.2303 26.8094 44.1321 27.1758 43.5681 27.8209L43.5457 27.8463C43.376 28.0404 43.3348 28.3162 43.4402 28.5514C43.5796 28.8631 43.6131 29.1586 43.6131 30.0895L43.6072 30.7467C43.5919 31.2541 43.537 31.3814 43.3416 31.736L43.2117 31.9469C43.0682 32.1616 42.8913 32.3756 42.7664 32.4791C42.5871 32.6275 42.5261 32.8772 42.617 33.0914C42.8506 33.6433 42.8265 35.4261 42.5779 35.984L42.4998 36.1412C42.3013 36.5096 41.9889 36.8726 41.6736 37.0934L41.6101 37.1403C41.4831 37.2406 41.4963 37.3091 41.6111 37.736C41.788 38.3948 41.7324 39.9307 41.5135 40.4489L41.4265 40.6286C41.1988 41.0423 40.8066 41.4127 40.3133 41.6764L40.072 41.8053L39.9617 41.8561C39.8494 41.8996 39.7293 41.9225 39.6082 41.9235L36.0506 41.9508L34.1111 41.9567C30.0277 41.9426 28.8121 41.7004 25.5545 40.5963C24.3475 40.1873 23.3077 39.852 23.24 39.8502C23.1772 39.8502 23.1259 39.911 23.1258 39.985L23.1199 40.026C23.0606 40.2483 22.5792 40.7641 22.2644 40.9293L22.1668 40.9704C21.9127 41.0578 21.4338 41.0822 20.0545 41.0914L19.2761 41.0905C18.5261 41.084 17.8973 41.0609 17.7332 41.0309C17.2203 40.9364 16.8412 40.6597 16.615 40.2145C16.4828 39.9541 16.4469 39.7642 16.4373 36.4704L16.4334 32.0241C16.4334 24.469 16.405 23.9472 16.8162 23.5661L17.0213 23.3912C17.4463 23.0166 17.7431 22.9797 20.1082 23.0172C21.9656 23.0467 22.0897 23.0601 22.409 23.2594C22.5705 23.36 22.7772 23.3274 22.9002 23.192L22.947 23.1276L23.0594 22.9371C23.6485 21.9341 25.7939 18.3789 26.948 16.485L27.6775 15.3004C28.0124 14.7927 28.2722 14.5783 28.8543 14.3307ZM30.8113 16.65C30.3954 15.9421 29.9276 15.6472 29.4959 15.819C29.3953 15.8593 29.2418 15.9723 29.1541 16.07C28.9651 16.2812 29.026 16.1812 24.9803 22.9108C24.2059 24.1989 23.4928 25.3387 23.3933 25.4479C23.2402 25.6136 23.2176 25.782 23.2176 26.7555V37.3551L23.2293 37.5123C23.2868 37.8732 23.5397 38.1792 23.8933 38.3004L25.4402 38.8307C28.0646 39.7303 29.4059 40.0794 30.7801 40.2194C31.2514 40.2673 32.417 40.2952 34.0008 40.2985L35.7146 40.2936L39.3015 40.2672C39.5173 40.2655 39.7227 40.1705 39.8631 40.0065C40.0605 39.7758 40.0838 39.661 40.0838 38.9313C40.0838 38.1924 40.0616 38.0886 39.8513 37.8375C39.7223 37.6837 39.5398 37.5853 39.3426 37.5612L39.2576 37.5563L37.3679 37.5319L35.4578 37.5075C35.2418 37.5047 35.0368 37.4088 34.8963 37.2448C34.5885 36.8853 34.6027 36.4567 34.9324 36.1393C35.0766 36.0007 35.2633 35.9153 35.4607 35.8961L35.5467 35.8912H37.7605C39.151 35.8912 40.1591 35.8631 40.5056 35.8151L40.6131 35.7936C40.9505 35.6752 41.1349 35.3315 41.1756 34.7389L41.1834 34.4694C41.1834 33.8141 41.0269 33.3839 40.7303 33.2243C40.6477 33.1807 40.0557 33.1496 39.1297 33.1364L38.0965 33.1295C36.8647 33.1293 35.7954 33.0976 35.4158 33.0534L35.2967 33.0338C34.675 32.8603 34.4764 32.2256 34.8709 31.7946L34.9578 31.7106C35.1381 31.5584 35.3693 31.4724 35.6053 31.4723H38.198C39.8853 31.4723 40.9626 31.4455 41.3328 31.3942L41.448 31.3707C41.8678 31.2235 42.0086 30.8782 42.0086 29.9967C42.0086 29.2934 41.9927 29.233 41.741 28.9801C41.5909 28.8294 41.3932 28.7364 41.1834 28.7155L41.0935 28.7106H38.4842L37.4217 28.7086C35.387 28.6967 35.0128 28.6318 34.8172 28.3366L34.7742 28.2643C34.6026 27.9421 34.6586 27.556 34.9138 27.2995C35.0667 27.1462 35.2745 27.0589 35.491 27.0573L38.6345 27.0338L41.7761 27.0104C41.9918 27.0086 42.1973 26.9135 42.3377 26.7496C42.5371 26.5168 42.5584 26.4066 42.5584 25.6315C42.5584 24.9234 42.5278 24.7345 42.3836 24.5553C42.3005 24.4523 42.1858 24.3809 42.0594 24.3512L41.9295 24.3356L35.9763 24.2916C29.9091 24.2468 29.7389 24.2403 29.5408 24.0612C29.1119 23.6729 29.0736 23.5493 29.8386 21.6676L30.2176 20.7467L30.9793 18.9049C31.0292 18.784 31.0545 18.6539 31.0545 18.5231V17.8932C31.0545 17.2537 31.0328 17.0617 30.8836 16.7789L30.8113 16.65ZM18.9939 24.6598C18.4407 24.66 17.9924 25.1095 17.9939 25.6627L18.0144 32.0475L18.0349 38.4537C18.0369 38.9989 18.4752 39.4419 19.0203 39.4498L19.7996 39.4606L20.5535 39.4713C21.074 39.4785 21.5075 39.0872 21.5623 38.5807L21.5681 38.4772L21.5877 35.1032L21.5672 26.3746V25.6598C21.567 25.1078 21.1192 24.6601 20.5672 24.6598H18.9939ZM17.7674 24.0787L17.7693 24.0797L17.7742 24.0768C17.7718 24.0775 17.7674 24.0787 17.7674 24.0787ZM30.3894 23.0123C30.3924 23.0117 30.3953 23.011 30.3982 23.0104C30.3968 23.0077 30.3947 23.0053 30.3933 23.0026C30.3922 23.0058 30.3906 23.0092 30.3894 23.0123Z" fill="white"/>
</svg>
